<svg width="311" height="308" viewBox="0 0 311 308" fill="none" xmlns="http://www.w3.org/2000/svg">
<path d="M271.274 263.289C263.251 271.555 256.063 276.414 250.57 280.081C196.936 315.855 135.638 305.55 116.681 302.025C86.0972 296.341 60.2902 292.327 38.1093 272.303C-12.2888 226.821 -9.83513 131.917 28.6746 73.1357C33.2454 66.1609 71.69 9.22328 133.13 1.19626C134.628 1.00101 135.757 0.892539 136.734 0.784066C146.234 -0.224735 205.133 -5.52907 253.154 34.6711C260.026 40.4202 271.09 50.8011 281.349 66.6381C318.86 124.519 318.98 214.162 271.274 263.289Z" fill="#F4F7FA"/>
<path d="M284.9 146.68C284.9 210.278 233.318 264.189 167.503 267.205C99.1474 270.329 41.7791 217.73 41.7791 149.62C41.7791 81.5097 99.1583 27.5226 167.503 28.9978C233.307 30.4079 284.9 83.0825 284.9 146.68Z" fill="url(#paint0_linear)"/>
<path d="M290.306 146.68C290.306 210.278 238.725 264.189 172.91 267.205C104.554 270.329 47.1858 217.73 47.1858 149.62C47.1858 81.5097 104.565 27.5226 172.91 28.9978C238.725 30.4079 290.306 83.0825 290.306 146.68Z" fill="#CC9D3E"/>
<path d="M283.52 146.756C283.52 206.677 234.859 257.388 172.909 260.089C108.712 262.887 54.9263 213.424 54.9263 149.511C54.9263 85.5989 108.712 34.8335 172.909 36.0917C234.87 37.3066 283.52 86.8355 283.52 146.756Z" fill="#F6C33E"/>
<path d="M127.136 82.6273C129.861 80.3169 132.836 78.1257 136.072 76.0647C139.296 74.0037 142.781 72.2139 146.516 70.7061C150.24 69.1984 154.268 68.0269 158.611 67.1916C162.932 66.3564 167.611 65.9659 172.616 66.0201C179.402 66.096 185.558 67.0831 191.106 68.9706C196.621 70.858 201.344 73.5047 205.263 76.9217C209.172 80.3277 212.19 84.428 214.329 89.2117C216.468 93.9953 217.532 99.3322 217.532 105.233C217.532 110.982 216.696 115.961 215.013 120.17C213.33 124.379 211.213 128.056 208.651 131.18C206.077 134.315 203.298 137.037 200.301 139.337C197.294 141.648 194.439 143.828 191.735 145.878C189.021 147.928 186.687 149.946 184.7 151.92C182.724 153.894 181.53 156.107 181.15 158.559L178.468 175.361L158.611 175.752L156.602 156.964C156.526 156.584 156.483 156.259 156.483 155.988C156.483 155.717 156.483 155.391 156.483 155.001C156.483 151.616 157.351 148.655 159.088 146.138C160.815 143.622 162.986 141.246 165.57 139.033C168.154 136.821 170.933 134.673 173.908 132.579C176.872 130.486 179.641 128.229 182.203 125.811C184.765 123.392 186.904 120.647 188.609 117.588C190.313 114.529 191.16 110.95 191.16 106.828C191.16 104.083 190.639 101.621 189.597 99.4515C188.554 97.2712 187.099 95.4055 185.232 93.8326C183.365 92.2598 181.128 91.0449 178.522 90.1988C175.906 89.3418 173.083 88.9079 170.032 88.8971C165.57 88.8754 161.77 89.3418 158.665 90.2856C155.549 91.2401 152.9 92.3032 150.728 93.4964C148.546 94.6896 146.711 95.7634 145.202 96.718C143.693 97.6834 142.347 98.1607 141.153 98.1607C138.286 98.1499 136.213 96.9892 134.932 94.657L127.136 82.6273ZM149.73 219.228C149.73 216.841 150.186 214.542 151.098 212.361C152.01 210.181 153.269 208.294 154.887 206.699C156.504 205.115 158.415 203.824 160.619 202.848C162.823 201.861 165.179 201.34 167.687 201.275C170.119 201.21 172.421 201.612 174.614 202.469C176.796 203.325 178.664 204.497 180.227 205.983C181.779 207.469 183.028 209.27 183.962 211.374C184.895 213.489 185.362 215.724 185.362 218.089C185.362 220.529 184.895 222.818 183.962 224.955C183.028 227.092 181.79 228.947 180.227 230.531C178.664 232.114 176.796 233.394 174.614 234.349C172.421 235.314 170.119 235.835 167.687 235.922C165.179 236.019 162.823 235.661 160.619 234.859C158.415 234.056 156.504 232.906 154.887 231.431C153.269 229.945 151.999 228.166 151.098 226.072C150.175 223.968 149.73 221.69 149.73 219.228Z" fill="white"/>
<path opacity="0.3" d="M119.938 96.4899C115.9 83.3321 116.084 63.3405 135.79 33.8032C84.9464 48.4363 47.1858 94.5048 47.1858 149.609C47.1858 217.72 104.565 270.318 172.91 267.194C198.109 266.044 221.191 257.453 240.038 243.807C239.452 225.638 235.5 205.755 224.372 187.412C193.799 136.994 132.619 137.786 119.938 96.4899Z" fill="#CC9D3E"/>
<path d="M295.246 6.97804L209.541 3.07301C203.277 2.8886 198.174 7.69396 198.174 13.7793V47.2975L184.472 60.336L198.174 60.5096L209.237 60.6506L298.753 61.7678C304.692 61.8438 309.491 57.1143 309.491 51.2134V16.6213C309.491 10.7204 301.185 7.14075 295.246 6.97804Z" fill="url(#paint1_linear)"/>
<path d="M300.262 5.62213L211.05 3.07301C204.786 2.8886 199.683 7.69396 199.683 13.7793V47.2975L185.982 60.336L199.683 60.5096L210.746 60.6506L300.262 61.7678C306.201 61.8438 311 57.1143 311 51.2134V16.6213C311 10.7204 306.201 5.79568 300.262 5.62213Z" fill="url(#paint2_linear)"/>
<g opacity="0.54">
<path opacity="0.54" d="M210.791 23.5965L298.711 25.6032V21.4487L210.791 19.3335V23.5965Z" fill="white"/>
<path opacity="0.54" d="M210.79 31.8836L298.71 33.6843V29.5297L210.79 27.6206V31.8836Z" fill="white"/>
<path opacity="0.54" d="M245.391 40.8002L298.71 41.7764V37.6219L245.391 36.5806V40.8002Z" fill="white"/>
</g>
<path d="M192.095 285.808C207.555 283.931 210.747 287.565 226.479 286.849C241.95 286.144 243.014 282.445 255.662 283.204C267.03 283.888 281.665 287.803 281.719 292.056C281.773 296.731 264.185 303.304 247.335 300.907C237.955 299.573 238.606 296.85 229.616 295.7C213.342 293.618 208.554 302.209 192.106 300.386C182.584 299.334 172.65 295.18 172.824 292.056C173.041 288.118 189.337 286.144 192.095 285.808Z" fill="#D8DEE8"/>
<path d="M227.369 287.153C222.57 263.473 224.633 244.436 226.815 232.949C229.453 219.01 234.827 190.666 257.377 174.861C259.158 173.614 276.801 161.497 284.715 167.518C288.798 170.62 289.731 178.126 287.951 184.038C283.336 199.322 262.534 197.63 255.629 215.018C253.328 220.811 252.904 227.883 254.511 228.545C256.487 229.369 262.122 220.724 262.654 219.899C267.681 212.198 267.724 207.837 271.557 206.655C273.913 205.928 277.007 206.611 278.397 208.466C281.556 212.697 275.313 222.318 273.576 225.019C269.016 232.059 265.205 233.665 264.282 239.652C263.881 242.234 263.957 246.052 265.488 246.649C267.561 247.452 271.513 242.06 274.054 238.6C280.883 229.293 281.599 223.891 284.998 223.501C288.157 223.143 291.729 227.362 292.641 229.944C295.138 236.973 285.095 251.932 227.369 287.153Z" fill="url(#paint3_linear)"/>
<path opacity="0.28" d="M228.085 283.096C227.369 261.087 230.93 243.645 234.165 232.201C238.313 217.481 246.13 189.809 268.028 177.834C269.581 176.988 281.035 170.718 284.238 174.07C286.366 176.304 284.477 182.444 281.339 186.501C275.986 193.432 269.82 190.688 261.08 197.489C253.241 203.596 250.483 211.819 249.789 213.977C247.226 221.961 248.562 228.805 248.92 231.333C250.299 240.911 247.498 256.596 228.085 283.096Z" fill="white"/>
<path opacity="0.28" d="M235.902 277.596C248.181 266.608 251.026 257.605 251.243 251.281C251.417 246.356 250.081 240.509 253.849 235.086C256.259 231.615 258.072 232.168 262.241 228.436C270.948 220.626 272.023 210.104 273.815 210.506C274.813 210.734 275.335 214.183 274.683 217.448C273.348 224.173 268.082 224.878 262.816 233.068C259.223 238.655 257.974 244.089 257.312 246.953C255.705 253.928 256.802 256.379 255.868 260.252C254.663 265.274 250.287 271.761 235.902 277.596Z" fill="white"/>
<path d="M234.751 290.982C256.042 292.197 262.371 293.477 272.403 290.06C281.827 286.849 291.501 280.525 290.654 277.629C290.046 275.546 284.129 275.579 280.589 275.59C271.1 275.633 263.273 278.54 257.79 281.339C262.523 278.128 267.257 274.917 271.991 271.706C275.302 270.524 280.894 268.018 285.844 262.714C288.949 259.395 296.072 250.413 293.401 246.096C290.6 241.583 277.3 242.494 269.635 248.894C265.954 251.964 265.954 254.307 261.025 259.666C256.541 264.536 251.916 267.628 248.67 269.493C251.71 265.686 255.857 259.753 259.082 251.747C263.978 239.577 267.67 220.333 261.449 216.841C257.323 214.519 249.137 219.303 245.044 224.965C241.721 229.564 242.047 233.415 239.767 248.178C238.779 254.6 237.802 259.763 237.172 262.974C230.843 249.1 228.997 237.418 228.628 228.838C228.15 217.806 229.974 209.171 225.762 206.872C221.994 204.822 215.285 208.824 211.876 212.567C198.087 227.742 216.284 263.376 218.205 267.042C213.146 263.213 206.165 257.225 199.412 248.558C192.192 239.294 189.141 232.406 185.471 233.025C181.823 233.643 179.413 241.41 179.685 247.419C180.445 264.178 202.354 274.017 204.699 275.036C202.853 275.329 199.727 275.644 196.046 274.939C187.882 273.377 185.33 268.43 177.046 266.749C173.876 266.109 167.394 265.437 166.602 267.4C165.169 270.914 181.541 284.137 201.399 289.181C208.651 291.047 206.903 289.387 234.751 290.982Z" fill="url(#paint4_linear)"/>
<path opacity="0.28" d="M248.8 278.855C258.496 274.548 257.182 268.691 267.778 261.445C274.575 256.802 276.149 258.494 283.423 254.058C287.43 251.617 290.698 248.818 293.358 246.052C293.368 246.074 293.39 246.085 293.401 246.106C296.083 250.424 288.95 259.405 285.844 262.725C280.894 268.029 275.291 270.535 271.991 271.717C267.257 274.928 262.524 278.139 257.79 281.349C263.284 278.54 271.101 275.644 280.59 275.6C283.673 275.589 288.57 275.568 290.176 276.935C287.332 278.703 284.759 279.549 282.674 279.972C277.919 280.937 274.933 279.852 270.818 282.337C267.518 284.322 267.789 286.014 264.89 287.088C262.154 288.096 260.754 287.033 254.012 285.927C247.443 284.853 244.11 284.343 241.461 286.014C239.452 287.272 238.388 289.344 237.802 291.177C237.118 291.134 236.423 291.09 235.707 291.047C236.239 288.953 237.205 286.545 239.051 284.398C241.971 280.991 245.174 280.471 248.8 278.855Z" fill="white"/>
<path opacity="0.28" d="M221.18 286.296C219.649 285.927 218.911 287.023 216.793 287.305C212.841 287.815 211.354 284.56 206.707 283.009C201.203 281.176 199.813 284.582 194.33 282.89C189.998 281.545 190.552 279.31 184.885 276.056C178.859 272.585 176.308 274.006 171.867 271.142C170.445 270.22 168.816 268.853 167.275 266.717C169.218 265.664 174.321 266.228 177.013 266.771C185.297 268.452 187.849 273.398 196.013 274.96C199.694 275.666 202.82 275.351 204.666 275.058C202.332 274.038 180.422 264.2 179.652 247.441C179.402 241.865 181.454 234.782 184.668 233.296C184.288 237.168 184.233 240.477 184.288 243.08C184.429 249.133 184.537 252.214 186.448 254.741C189.77 259.123 193.831 256.835 199.357 261.401C204.395 265.545 202.636 268.767 207.891 272.921C212.418 276.501 215.111 275.199 219.377 278.106C222.048 279.929 225.305 283.378 227.249 290.613C226.358 290.57 225.512 290.537 224.697 290.505C223.948 288.433 222.83 286.697 221.18 286.296Z" fill="white"/>
<path opacity="0.28" d="M225.957 263.463C223.308 256.238 218.694 256.987 216.772 250.63C214.861 244.306 219.041 242.343 217.977 233.188C217.174 226.332 214.59 225.324 214.416 220.637C214.286 217.177 215.513 212.469 221.147 206.644C222.852 206.2 224.47 206.2 225.74 206.883C229.963 209.183 228.139 217.817 228.606 228.849C228.975 237.429 230.81 249.112 237.151 262.985C237.78 259.775 238.757 254.611 239.745 248.19C242.025 233.426 241.7 229.565 245.022 224.976C249.115 219.314 257.301 214.53 261.427 216.852C261.666 216.982 261.883 217.145 262.089 217.318C260.026 218.718 258.126 220.442 256.53 222.568C251.091 229.814 254.185 235.01 249.245 249.307C244.501 263.061 239.68 263.907 235.859 275.785C234.643 279.582 233.492 284.604 233.253 290.906C231.863 290.83 230.55 290.765 229.301 290.7C227.868 286.025 227.195 281.838 226.912 278.28C226.304 270.448 227.748 268.333 225.957 263.463Z" fill="white"/>
<path d="M64.7632 284.572C88.8114 284.778 113.815 285.006 114.586 290.235C115.281 294.921 96.2593 301.613 85.1418 304.38C74.2414 307.091 55.5673 309.857 33.6145 303.815C25.5586 301.603 5.7446 295.073 6.43945 290.235C7.32972 284.073 40.9972 284.366 64.7632 284.572Z" fill="#D8DEE8"/>
<path d="M79.1589 289.291C79.1589 289.291 78.312 290.082 78.312 291.493C78.312 291.916 78.5074 292.317 78.844 292.577C79.5931 293.163 81.2325 294.324 83.8057 295.387C87.4427 296.895 88.6696 296.764 88.8216 296.157C88.9736 295.549 87.1062 293.901 85.5102 292.458C83.8925 291.026 79.1589 289.291 79.1589 289.291Z" fill="url(#paint5_linear)"/>
<path d="M78.0083 283.65C78.0083 283.65 79.1591 289.15 79.0614 291.157C79.0614 291.157 80.5162 292.448 82.5791 291.157C82.5791 291.157 81.5259 286.134 82.0471 284.052L78.0083 283.65Z" fill="url(#paint6_linear)"/>
<path d="M38.4891 291.178C38.4891 291.178 37.5336 291.851 37.3382 293.239C37.2839 293.651 37.4142 294.074 37.7074 294.389C38.3696 295.072 39.8353 296.45 42.2347 297.86C45.6221 299.856 46.8598 299.899 47.0878 299.325C47.3158 298.75 45.6981 296.851 44.3193 295.203C42.9296 293.554 38.4891 291.178 38.4891 291.178Z" fill="url(#paint7_linear)"/>
<path d="M36.7844 286.112C36.7844 286.112 37.9353 291.612 37.8376 293.619C37.8376 293.619 39.2924 294.91 41.3552 293.619C41.3552 293.619 40.3021 288.596 40.8232 286.514L36.7844 286.112Z" fill="url(#paint8_linear)"/>
<path d="M92.329 168.744C92.6765 185.254 92.4485 202.967 91.3628 221.733C90.0056 245.174 87.5194 266.891 84.4143 286.676C83.3069 286.98 81.7869 287.273 79.9738 287.251C78.6927 287.24 77.5852 287.067 76.695 286.871C76.1955 284.539 75.403 280.981 74.3824 276.653C72.5259 268.821 72.0699 267.78 71.4945 265.09C69.0842 253.928 72.2545 250.782 70.7236 239.273C70.3871 236.746 70.2459 236.974 66.8694 224.825C62.6569 209.671 60.5289 202.1 59.5409 196.307C56.8918 180.752 55.5672 172.964 59.9318 168.169C65.6208 161.899 78.8555 162.876 92.329 168.744Z" fill="url(#paint9_linear)"/>
<path opacity="0.3" d="M80.7557 277.229C78.9425 272.098 82.1236 269.494 82.1019 260.654C82.0911 253.028 79.7242 252.074 79.0185 243.504C78.3671 235.64 80.1151 233.405 80.5602 226.159C81.4071 212.503 76.0112 207.914 74.9689 197.447C74.2523 190.233 75.5552 179.755 85.1745 166.076C74.3717 162.757 64.6005 163.017 59.9319 168.159C55.5783 172.953 56.9028 180.731 59.5411 196.297C60.5291 202.089 62.6571 209.661 66.8696 224.814C70.2461 236.963 70.3872 236.746 70.7238 239.263C72.2546 250.772 69.0844 253.928 71.4946 265.08C72.0809 267.77 72.5261 268.811 74.3826 276.643C75.414 280.971 76.1957 284.518 76.6951 286.861C77.5854 287.067 78.6928 287.23 79.974 287.241C81.7871 287.262 83.3071 286.969 84.4145 286.666C84.599 285.462 84.7945 284.247 84.979 283.021C83.1551 281.513 81.5916 279.615 80.7557 277.229Z" fill="url(#paint10_linear)"/>
<path d="M74.5784 167.584C67.9448 185.579 61.474 205.571 55.7198 227.45C50.1284 248.722 46.0028 268.778 42.952 287.251C42.0943 287.642 40.4549 288.26 38.3269 288.217C36.5138 288.173 35.1024 287.674 34.2664 287.306C32.1275 281.893 29.9019 274.842 28.5773 266.414C27.7305 261.012 26.8076 255.111 27.5242 247.55C28.4796 237.495 31.2481 235.911 32.5401 225.964C33.5064 218.534 32.2578 217.069 31.9647 206.309C31.4978 189.625 31.259 181.024 35.4389 175.09C44.3959 162.355 70.2899 166.803 74.5784 167.584Z" fill="url(#paint11_linear)"/>
<path d="M29.3256 93.2035C32.2027 90.1988 42.0174 80.6857 58.14 78.2993C74.545 75.8695 86.8785 82.3996 90.4504 84.4606C97.3555 99.8095 97.2469 110.895 95.8029 118.25C94.9235 122.752 93.8053 124.487 93.295 130.008C92.4156 139.543 94.8692 143.795 96.9755 156.042C97.5835 159.6 101.101 180.036 96.7692 181.653C94.4241 182.52 92.5567 176.836 85.7711 175.491C81.0917 174.558 79.5066 176.782 73.4267 176.261C67.857 175.784 67.6182 173.799 63.1125 173.105C55.8926 171.998 53.2761 176.63 39.4986 180.85C32.6695 182.943 27.3822 184.495 24.8851 181.978C23.2565 180.34 23.2999 177.465 24.6679 171.543C27.4365 159.567 31.0953 154.795 33.5272 147.559C36.2523 139.489 35.8723 133.057 35.2318 122.122C34.5804 110.917 32.1701 101.176 29.3256 93.2035Z" fill="url(#paint12_linear)"/>
<path opacity="0.3" d="M98.8865 173.116C93.9683 172.92 91.1563 171.38 89.4409 169.71C84.5878 164.991 87.4867 158.331 82.2102 154.1C75.6525 148.839 66.7715 155.576 62.2441 150.922C58.0316 146.583 64.6327 139.619 61.6687 126.928C61.1041 124.498 59.1607 116.222 52.4077 110.744C44.3192 104.181 36.7953 107.696 32.4417 102.359C32.2788 102.153 32.116 101.947 31.964 101.719C33.5817 107.804 34.7976 114.638 35.2428 122.112C35.8833 133.046 36.2633 139.478 33.5382 147.549C31.0954 154.773 27.4475 159.557 24.6789 171.532C23.3109 177.455 23.2675 180.329 24.8961 181.967C27.404 184.484 32.6914 182.933 39.5096 180.839C53.2871 176.619 55.9036 171.998 63.1236 173.094C67.6292 173.788 67.8681 175.784 73.4377 176.251C79.5176 176.76 81.1027 174.548 85.7821 175.48C92.5677 176.826 94.4243 182.52 96.7803 181.642C98.4739 181.013 98.9625 177.433 98.8865 173.116Z" fill="url(#paint13_linear)"/>
<path d="M83.4588 86.2722C83.9148 84.3522 84.349 82.9096 85.4782 82.4974C90.0815 80.8269 102.969 97.6077 105.944 116.102C106.258 118.044 108.994 135.096 102.871 137.851C98.018 140.032 89.745 132.135 85.5867 126.353C76.6514 113.955 80.2994 99.5059 83.4588 86.2722Z" fill="url(#paint14_linear)"/>
<path d="M32.3877 147.7C31.2151 147.614 15.0056 146.236 8.66514 133.686C2.0858 120.658 11.7702 106.73 14.7451 102.467C26.1449 86.0875 52.6468 76.2164 57.0982 81.217C60.301 84.8292 50.7903 98.1172 46.4258 104.051C38.5327 114.779 30.1077 115.278 28.1969 122.838C27.2849 126.461 27.7192 132.232 35.1345 141.051C34.2225 143.275 33.3105 145.487 32.3877 147.7Z" fill="url(#paint15_linear)"/>
<path d="M59.53 67.8101C60.0402 69.2202 60.7134 72.3225 59.2043 75.1103C57.8688 77.5618 55.4043 78.6465 54.4272 79.0804C52.0495 80.1435 50.6164 79.8289 50.5512 80.2736C50.4101 81.2716 57.1957 84.4824 64.2093 83.0722C68.335 82.2478 72.2435 79.8831 71.9829 78.5598C71.6898 77.0737 66.3916 78.1042 64.5676 75.2296C63.4059 73.3856 64.1659 70.7605 65.1213 68.6562C63.7642 67.5063 60.8871 68.9599 59.53 67.8101Z" fill="url(#paint16_linear)"/>
<path d="M69.3453 58.4807C70.6219 55.6869 70.0184 51.4031 67.6509 49.0749C65.6083 47.0727 62.9623 47.2589 61.3607 47.3753C56.7417 47.7013 51.3568 50.9142 50.1034 55.9197C49.3607 58.8998 52.8423 64.0683 53.4226 64.9996C54.0725 66.0706 54.9545 66.3034 55.8597 67.0251C57.1131 68.0262 59.0628 69.6094 62.2891 72.3101C62.3356 71.3089 62.4748 70.075 62.7534 68.7014C62.8694 68.1659 63.3336 66.0938 64.2621 64.2779C66.0725 60.5993 68.1383 61.1116 69.3453 58.4807Z" fill="url(#paint17_linear)"/>
<path d="M57.324 71.5245C57.324 71.5245 61.3311 76.6842 67.4383 74.956C72.8696 73.403 71.4454 59.1009 67.4624 56.8216C66.1348 56.0702 63.7209 56.1203 61.8863 57.1472C60.8242 57.7484 60.5104 58.3495 58.7482 59.3013C57.1068 60.1529 56.5998 60.0527 56.1653 60.6539C55.6101 61.4053 55.3929 63.0334 57.1068 66.9658C55.8515 65.9639 54.5239 65.7635 53.7031 66.4398C53.5825 66.54 53.2445 66.9157 53.0997 67.4167C52.5686 69.1199 54.1859 70.9233 57.324 71.5245Z" fill="url(#paint18_linear)"/>
<path d="M64.5894 76.2056C63.634 75.7066 63.7426 74.5243 63.9706 73.6673C64.1008 73.1901 64.6763 73.0057 65.0671 73.3094C65.6751 73.7758 66.5654 74.3616 67.3362 74.5568C68.6825 74.8822 69.8225 82.2259 69.8225 82.2259L68.6825 83.0069C68.6825 83.0069 67.5425 80.3059 66.3048 78.2883C65.7185 77.3012 65.1105 76.4768 64.5894 76.2056Z" fill="url(#paint19_linear)"/>
<path d="M66.815 81.2931L69.9961 79.8721C73.6766 86.4239 77.1617 91.3594 79.6262 94.6244C83.6976 100.016 86.2816 102.532 92.9586 111.253C96.7477 116.2 98.17 118.337 99.5488 120.767C102.133 125.312 106.606 133.176 103.696 136.853C102.99 137.753 102.078 138.101 101.166 138.459C96.9648 140.096 92.5243 137.96 90.2987 136.853C78.6817 131.082 71.9938 118.89 71.9938 118.89C63.5036 103.432 65.6316 87.4977 66.815 81.2931Z" fill="url(#paint20_linear)"/>
<path d="M34.1793 143.362C34.1793 143.362 36.7307 140.476 38.9021 141.051C41.0735 141.626 43.8203 144.23 43.8203 144.23C43.8203 144.23 43.8203 146.833 41.79 146.106C39.7598 145.379 32.9958 146.236 32.9958 146.236L34.1793 143.362Z" fill="url(#paint21_linear)"/>
<defs>
<linearGradient id="paint0_linear" x1="77.7267" y1="311.474" x2="260.824" y2="-38.8553" gradientUnits="userSpaceOnUse">
<stop stop-color="#444B8C"/>
<stop offset="0.9964" stop-color="#26264F"/>
</linearGradient>
<linearGradient id="paint1_linear" x1="184.479" y1="32.4149" x2="309.488" y2="32.4149" gradientUnits="userSpaceOnUse">
<stop stop-color="#444B8C"/>
<stop offset="0.9964" stop-color="#26264F"/>
</linearGradient>
<linearGradient id="paint2_linear" x1="275.578" y1="-23.4117" x2="206.246" y2="168.477" gradientUnits="userSpaceOnUse">
<stop stop-color="#FF9085"/>
<stop offset="1" stop-color="#FB6FBB"/>
</linearGradient>
<linearGradient id="paint3_linear" x1="221.249" y1="185.857" x2="300.763" y2="280.491" gradientUnits="userSpaceOnUse">
<stop offset="0.00359712" stop-color="#E38DDD"/>
<stop offset="1" stop-color="#9571F6"/>
</linearGradient>
<linearGradient id="paint4_linear" x1="228.162" y1="294.655" x2="231.432" y2="237.144" gradientUnits="userSpaceOnUse">
<stop stop-color="#AA80F9"/>
<stop offset="0.9964" stop-color="#6165D7"/>
</linearGradient>
<linearGradient id="paint5_linear" x1="78.31" y1="292.946" x2="88.8225" y2="292.946" gradientUnits="userSpaceOnUse">
<stop stop-color="#444B8C"/>
<stop offset="0.9964" stop-color="#26264F"/>
</linearGradient>
<linearGradient id="paint6_linear" x1="82.1386" y1="297.753" x2="79.4431" y2="280.506" gradientUnits="userSpaceOnUse">
<stop stop-color="#311944"/>
<stop offset="1" stop-color="#893976"/>
</linearGradient>
<linearGradient id="paint7_linear" x1="37.3227" y1="295.416" x2="47.1143" y2="295.416" gradientUnits="userSpaceOnUse">
<stop stop-color="#444B8C"/>
<stop offset="0.9964" stop-color="#26264F"/>
</linearGradient>
<linearGradient id="paint8_linear" x1="39.2162" y1="298.095" x2="38.9274" y2="282.197" gradientUnits="userSpaceOnUse">
<stop stop-color="#311944"/>
<stop offset="1" stop-color="#893976"/>
</linearGradient>
<linearGradient id="paint9_linear" x1="61.6395" y1="305.841" x2="74.3465" y2="203.516" gradientUnits="userSpaceOnUse">
<stop stop-color="#444B8C"/>
<stop offset="0.9964" stop-color="#3E4177"/>
</linearGradient>
<linearGradient id="paint10_linear" x1="61.5273" y1="305.827" x2="74.2343" y2="203.503" gradientUnits="userSpaceOnUse">
<stop stop-color="#444B8C"/>
<stop offset="0.9964" stop-color="#3E4177"/>
</linearGradient>
<linearGradient id="paint11_linear" x1="18.7463" y1="204.761" x2="66.4541" y2="235.148" gradientUnits="userSpaceOnUse">
<stop stop-color="#444B8C"/>
<stop offset="0.9964" stop-color="#3E4177"/>
</linearGradient>
<linearGradient id="paint12_linear" x1="55.0883" y1="144.539" x2="112.614" y2="92.8942" gradientUnits="userSpaceOnUse">
<stop stop-color="#AA80F9"/>
<stop offset="0.9964" stop-color="#6165D7"/>
</linearGradient>
<linearGradient id="paint13_linear" x1="51.6167" y1="161.465" x2="92.4536" y2="98.9982" gradientUnits="userSpaceOnUse">
<stop offset="0.00359712" stop-color="#E38DDD"/>
<stop offset="1" stop-color="#9571F6"/>
</linearGradient>
<linearGradient id="paint14_linear" x1="55.4367" y1="144.928" x2="112.962" y2="93.2821" gradientUnits="userSpaceOnUse">
<stop stop-color="#AA80F9"/>
<stop offset="0.9964" stop-color="#6165D7"/>
</linearGradient>
<linearGradient id="paint15_linear" x1="32.4153" y1="116.394" x2="93.9038" y2="61.1904" gradientUnits="userSpaceOnUse">
<stop stop-color="#AA80F9"/>
<stop offset="0.9964" stop-color="#6165D7"/>
</linearGradient>
<linearGradient id="paint16_linear" x1="72.6448" y1="57.9569" x2="56.7554" y2="88.2218" gradientUnits="userSpaceOnUse">
<stop stop-color="#311944"/>
<stop offset="1" stop-color="#893976"/>
</linearGradient>
<linearGradient id="paint17_linear" x1="55.3465" y1="89.7065" x2="66.1498" y2="50.5496" gradientUnits="userSpaceOnUse">
<stop stop-color="#444B8C"/>
<stop offset="0.9964" stop-color="#26264F"/>
</linearGradient>
<linearGradient id="paint18_linear" x1="67.9022" y1="82.3166" x2="62.5848" y2="68.5962" gradientUnits="userSpaceOnUse">
<stop stop-color="#311944"/>
<stop offset="1" stop-color="#893976"/>
</linearGradient>
<linearGradient id="paint19_linear" x1="67.3255" y1="84.5436" x2="67.0366" y2="81.0751" gradientUnits="userSpaceOnUse">
<stop stop-color="#311944"/>
<stop offset="1" stop-color="#893976"/>
</linearGradient>
<linearGradient id="paint20_linear" x1="88.0306" y1="112.438" x2="130.294" y2="134.344" gradientUnits="userSpaceOnUse">
<stop stop-color="#AA80F9"/>
<stop offset="0.9964" stop-color="#6165D7"/>
</linearGradient>
<linearGradient id="paint21_linear" x1="46.094" y1="134.731" x2="35.2577" y2="149.337" gradientUnits="userSpaceOnUse">
<stop stop-color="#311944"/>
<stop offset="1" stop-color="#893976"/>
</linearGradient>
</defs>
</svg>
