<svg width="15" height="15" viewBox="0 0 15 15" fill="none" xmlns="http://www.w3.org/2000/svg">
<path d="M0.535715 1.60714H2.54799C2.58351 1.60714 2.61758 1.59303 2.64269 1.56792C2.66781 1.5428 2.68192 1.50873 2.68192 1.47321V1.06875C2.68263 0.785054 2.79583 0.513219 2.99668 0.312867C3.19753 0.112514 3.46965 -8.86549e-07 3.75335 0L11.2463 0.0087053C11.5297 0.00923601 11.8014 0.122031 12.0018 0.322399C12.2022 0.522767 12.3151 0.794384 12.3157 1.07779V1.47321C12.3157 1.50873 12.3298 1.5428 12.355 1.56792C12.3801 1.59303 12.4141 1.60714 12.4497 1.60714H14.4643C14.6064 1.60714 14.7426 1.66358 14.8431 1.76405C14.9436 1.86452 15 2.00078 15 2.14286V2.67857C15 4.50435 13.9955 6.44364 12.4379 6.87556C12.3919 6.88838 12.3502 6.91357 12.3175 6.9484C12.2847 6.98322 12.2621 7.02635 12.2521 7.0731C12.0589 7.97344 11.4646 8.83091 10.5308 9.53772C9.83069 10.0677 8.99565 10.4585 8.24498 10.6252C8.18563 10.6385 8.13257 10.6716 8.09454 10.7191C8.05651 10.7666 8.03576 10.8256 8.03571 10.8864V13.7946C8.03571 13.8302 8.04982 13.8642 8.07494 13.8893C8.10006 13.9145 8.13412 13.9286 8.16964 13.9286H10.1635C10.4518 13.9286 10.6992 14.1502 10.7136 14.4385C10.7171 14.5109 10.7059 14.5833 10.6805 14.6513C10.6552 14.7192 10.6164 14.7813 10.5664 14.8338C10.5163 14.8863 10.4562 14.9281 10.3895 14.9567C10.3229 14.9853 10.2511 15 10.1786 15H4.8365C4.54821 15 4.30078 14.7783 4.28638 14.4901C4.28289 14.4176 4.29415 14.3452 4.31946 14.2773C4.34477 14.2093 4.38362 14.1472 4.43365 14.0947C4.48367 14.0422 4.54384 14.0004 4.61049 13.9719C4.67715 13.9433 4.74891 13.9286 4.82143 13.9286H6.83036C6.86588 13.9286 6.89994 13.9145 6.92506 13.8893C6.95018 13.8642 6.96429 13.8302 6.96429 13.7946V10.8864C6.96424 10.8256 6.94349 10.7666 6.90546 10.7191C6.86743 10.6716 6.81437 10.6385 6.75502 10.6252C6.00435 10.4578 5.16931 10.0677 4.4692 9.53772C3.53538 8.83091 2.94107 7.97344 2.74788 7.0731C2.73789 7.02635 2.7153 6.98322 2.68254 6.9484C2.64978 6.91357 2.60811 6.88838 2.56205 6.87556C1.00446 6.44364 0 4.50435 0 2.67857V2.14286C0 2.00078 0.0564413 1.86452 0.156907 1.76405C0.257373 1.66358 0.393635 1.60714 0.535715 1.60714ZM12.3214 5.5654C12.3215 5.58887 12.3278 5.61191 12.3395 5.6322C12.3513 5.65249 12.3683 5.66933 12.3886 5.68103C12.4089 5.69273 12.432 5.69888 12.4555 5.69886C12.4789 5.69884 12.502 5.69265 12.5223 5.68091C12.8658 5.47634 13.1166 5.16629 13.2636 4.94799C13.6624 4.35569 13.8998 3.58627 13.9262 2.81752C13.9269 2.79952 13.9239 2.78156 13.9175 2.76473C13.9111 2.74789 13.9013 2.73253 13.8888 2.71956C13.8763 2.70658 13.8613 2.69627 13.8447 2.68922C13.8282 2.68218 13.8103 2.67856 13.7923 2.67857H12.453C12.4175 2.67857 12.3834 2.69268 12.3583 2.7178C12.3332 2.74291 12.3191 2.77698 12.3191 2.8125C12.3198 3.73158 12.3214 4.78359 12.3214 5.5654ZM1.73672 4.94799C1.88371 5.16629 2.13415 5.47634 2.47768 5.68091C2.49803 5.69266 2.52111 5.69885 2.54461 5.69886C2.56811 5.69886 2.59119 5.69269 2.61155 5.68095C2.6319 5.66921 2.64881 5.65232 2.66058 5.63198C2.67234 5.61164 2.67855 5.58856 2.67857 5.56507C2.67857 4.67746 2.67857 3.66897 2.68025 2.8125C2.68025 2.77698 2.66614 2.74291 2.64102 2.7178C2.6159 2.69268 2.58184 2.67857 2.54632 2.67857H1.20703C1.18901 2.67856 1.17118 2.68218 1.15459 2.68922C1.13801 2.69627 1.12301 2.70658 1.11051 2.71956C1.098 2.73253 1.08825 2.74789 1.08182 2.76473C1.07539 2.78156 1.07243 2.79952 1.0731 2.81752C1.09955 3.58627 1.33761 4.35569 1.73638 4.94799H1.73672Z" fill="white"/>
</svg>
