<svg width="22" height="18" viewBox="0 0 22 18" fill="none" xmlns="http://www.w3.org/2000/svg">
<path d="M0.846154 3.27228H12.8377C13.0128 3.75071 13.3369 4.16489 13.7655 4.45784C14.1941 4.75078 14.706 4.90807 15.2308 4.90807C15.7556 4.90807 16.2675 4.75078 16.696 4.45784C17.1246 4.16489 17.4487 3.75071 17.6238 3.27228H21.1538C21.3783 3.27228 21.5935 3.18607 21.7522 3.03262C21.9109 2.87917 22 2.67105 22 2.45404C22 2.23703 21.9109 2.0289 21.7522 1.87545C21.5935 1.722 21.3783 1.63579 21.1538 1.63579H17.6238C17.4487 1.15737 17.1246 0.743181 16.696 0.450238C16.2675 0.157296 15.7556 0 15.2308 0C14.706 0 14.1941 0.157296 13.7655 0.450238C13.3369 0.743181 13.0128 1.15737 12.8377 1.63579H0.846154C0.62174 1.63579 0.406517 1.722 0.247833 1.87545C0.0891481 2.0289 0 2.23703 0 2.45404C0 2.67105 0.0891481 2.87917 0.247833 3.03262C0.406517 3.18607 0.62174 3.27228 0.846154 3.27228ZM21.1538 14.7277H17.6238C17.4487 14.2493 17.1246 13.8351 16.696 13.5422C16.2675 13.2492 15.7556 13.0919 15.2308 13.0919C14.706 13.0919 14.1941 13.2492 13.7655 13.5422C13.3369 13.8351 13.0128 14.2493 12.8377 14.7277H0.846154C0.62174 14.7277 0.406517 14.8139 0.247833 14.9674C0.0891481 15.1208 0 15.3289 0 15.546C0 15.763 0.0891481 15.9711 0.247833 16.1245C0.406517 16.278 0.62174 16.3642 0.846154 16.3642H12.8377C13.0128 16.8426 13.3369 17.2568 13.7655 17.5498C14.1941 17.8427 14.706 18 15.2308 18C15.7556 18 16.2675 17.8427 16.696 17.5498C17.1246 17.2568 17.4487 16.8426 17.6238 16.3642H21.1538C21.3783 16.3642 21.5935 16.278 21.7522 16.1245C21.9109 15.9711 22 15.763 22 15.546C22 15.3289 21.9109 15.1208 21.7522 14.9674C21.5935 14.8139 21.3783 14.7277 21.1538 14.7277ZM21.1538 8.18175H9.16226C8.98717 7.70333 8.66305 7.28914 8.2345 6.9962C7.80595 6.70326 7.29404 6.54596 6.76923 6.54596C6.24442 6.54596 5.73251 6.70326 5.30396 6.9962C4.87541 7.28914 4.55129 7.70333 4.3762 8.18175H0.846154C0.62174 8.18175 0.406517 8.26796 0.247833 8.42141C0.0891481 8.57486 0 8.78299 0 9C0 9.21701 0.0891481 9.42514 0.247833 9.57859C0.406517 9.73204 0.62174 9.81824 0.846154 9.81824H4.3762C4.55129 10.2967 4.87541 10.7109 5.30396 11.0038C5.73251 11.2967 6.24442 11.454 6.76923 11.454C7.29404 11.454 7.80595 11.2967 8.2345 11.0038C8.66305 10.7109 8.98717 10.2967 9.16226 9.81824H21.1538C21.3783 9.81824 21.5935 9.73204 21.7522 9.57859C21.9109 9.42514 22 9.21701 22 9C22 8.78299 21.9109 8.57486 21.7522 8.42141C21.5935 8.26796 21.3783 8.18175 21.1538 8.18175Z" fill="#C8C8C8"/>
</svg>
