<svg width="20" height="17" viewBox="0 0 20 17" fill="none" xmlns="http://www.w3.org/2000/svg">
<path d="M0.769231 3.09049H11.6707C11.8298 3.54233 12.1245 3.93351 12.5141 4.21018C12.9037 4.48685 13.3691 4.6354 13.8462 4.6354C14.3233 4.6354 14.7886 4.48685 15.1782 4.21018C15.5678 3.93351 15.8625 3.54233 16.0216 3.09049H19.2308C19.4348 3.09049 19.6304 3.00907 19.7747 2.86415C19.919 2.71922 20 2.52266 20 2.3177C20 2.11275 19.919 1.91618 19.7747 1.77126C19.6304 1.62633 19.4348 1.54491 19.2308 1.54491H16.0216C15.8625 1.09307 15.5678 0.701893 15.1782 0.425225C14.7886 0.148557 14.3233 0 13.8462 0C13.3691 0 12.9037 0.148557 12.5141 0.425225C12.1245 0.701893 11.8298 1.09307 11.6707 1.54491H0.769231C0.565218 1.54491 0.369561 1.62633 0.225302 1.77126C0.0810437 1.91618 0 2.11275 0 2.3177C0 2.52266 0.0810437 2.71922 0.225302 2.86415C0.369561 3.00907 0.565218 3.09049 0.769231 3.09049ZM19.2308 13.9095H16.0216C15.8625 13.4577 15.5678 13.0665 15.1782 12.7898C14.7886 12.5132 14.3233 12.3646 13.8462 12.3646C13.3691 12.3646 12.9037 12.5132 12.5141 12.7898C12.1245 13.0665 11.8298 13.4577 11.6707 13.9095H0.769231C0.565218 13.9095 0.369561 13.9909 0.225302 14.1359C0.0810437 14.2808 0 14.4773 0 14.6823C0 14.8873 0.0810437 15.0838 0.225302 15.2287C0.369561 15.3737 0.565218 15.4551 0.769231 15.4551H11.6707C11.8298 15.9069 12.1245 16.2981 12.5141 16.5748C12.9037 16.8514 13.3691 17 13.8462 17C14.3233 17 14.7886 16.8514 15.1782 16.5748C15.5678 16.2981 15.8625 15.9069 16.0216 15.4551H19.2308C19.4348 15.4551 19.6304 15.3737 19.7747 15.2287C19.919 15.0838 20 14.8873 20 14.6823C20 14.4773 19.919 14.2808 19.7747 14.1359C19.6304 13.9909 19.4348 13.9095 19.2308 13.9095ZM19.2308 7.72721H8.32933C8.17016 7.27537 7.8755 6.88419 7.48591 6.60752C7.09632 6.33086 6.63095 6.1823 6.15385 6.1823C5.67675 6.1823 5.21138 6.33086 4.82178 6.60752C4.43219 6.88419 4.13753 7.27537 3.97837 7.72721H0.769231C0.565218 7.72721 0.369561 7.80863 0.225302 7.95356C0.0810437 8.09848 0 8.29504 0 8.5C0 8.70496 0.0810437 8.90152 0.225302 9.04644C0.369561 9.19137 0.565218 9.27279 0.769231 9.27279H3.97837C4.13753 9.72463 4.43219 10.1158 4.82178 10.3925C5.21138 10.6691 5.67675 10.8177 6.15385 10.8177C6.63095 10.8177 7.09632 10.6691 7.48591 10.3925C7.8755 10.1158 8.17016 9.72463 8.32933 9.27279H19.2308C19.4348 9.27279 19.6304 9.19137 19.7747 9.04644C19.919 8.90152 20 8.70496 20 8.5C20 8.29504 19.919 8.09848 19.7747 7.95356C19.6304 7.80863 19.4348 7.72721 19.2308 7.72721Z" fill="#C8C8C8"/>
</svg>
