<svg width="42" height="42" viewBox="0 0 42 42" fill="none" xmlns="http://www.w3.org/2000/svg">
<path d="M41 21C41 9.95833 32.0417 1 21 1C9.95833 1 1 9.95833 1 21C1 32.0417 9.95833 41 21 41C32.0417 41 41 32.0417 41 21Z" stroke="white" stroke-width="2" stroke-miterlimit="10"/>
<path d="M16.8669 29.1706L28.7888 21.9685C28.9549 21.8672 29.0923 21.7249 29.1876 21.5553C29.2829 21.3856 29.3329 21.1943 29.3329 20.9997C29.3329 20.8051 29.2829 20.6138 29.1876 20.4442C29.0923 20.2745 28.9549 20.1322 28.7888 20.031L16.8669 12.8289C16.696 12.7265 16.501 12.6714 16.3018 12.6693C16.1026 12.6672 15.9064 12.7181 15.7334 12.8168C15.5603 12.9155 15.4167 13.0585 15.3171 13.231C15.2176 13.4036 15.1657 13.5995 15.1669 13.7987V28.2008C15.1657 28.4 15.2176 28.5959 15.3171 28.7684C15.4167 28.941 15.5603 29.0839 15.7334 29.1827C15.9064 29.2814 16.1026 29.3323 16.3018 29.3301C16.501 29.328 16.696 29.2729 16.8669 29.1706Z" fill="white"/>
</svg>
