<svg width="31" height="31" viewBox="0 0 31 31" fill="none" xmlns="http://www.w3.org/2000/svg">
<path d="M29.5714 15.2857C29.5714 7.39881 23.1726 1 15.2857 1C7.39881 1 1 7.39881 1 15.2857C1 23.1726 7.39881 29.5714 15.2857 29.5714C23.1726 29.5714 29.5714 23.1726 29.5714 15.2857Z" stroke="white" stroke-miterlimit="10"/>
<path d="M12.3341 21.1218L20.8497 15.9774C20.9684 15.9051 21.0665 15.8035 21.1345 15.6823C21.2026 15.5611 21.2384 15.4245 21.2384 15.2855C21.2384 15.1465 21.2026 15.0098 21.1345 14.8887C21.0665 14.7675 20.9684 14.6658 20.8497 14.5935L12.3341 9.44918C12.212 9.37605 12.0727 9.33671 11.9304 9.33519C11.7881 9.33367 11.648 9.37003 11.5244 9.44054C11.4008 9.51104 11.2982 9.61316 11.2271 9.7364C11.156 9.85965 11.1189 9.9996 11.1198 10.1419V20.4291C11.1189 20.5714 11.156 20.7113 11.2271 20.8346C11.2982 20.9578 11.4008 21.0599 11.5244 21.1304C11.648 21.2009 11.7881 21.2373 11.9304 21.2358C12.0727 21.2343 12.212 21.1949 12.3341 21.1218Z" fill="white"/>
</svg>
