<svg width="93" height="99" viewBox="0 0 93 99" fill="none" xmlns="http://www.w3.org/2000/svg">
<g opacity="0.9" filter="url(#filter0_d)">
<path fill-rule="evenodd" clip-rule="evenodd" d="M9.7129 21.2629C21.43 0.914297 47.4446 -6.02371 67.7487 5.69475C88.0527 17.4132 95.0322 43.4307 83.3151 63.7371C71.598 84.0857 45.5834 91.0237 25.2793 79.3053C4.93299 67.5445 -2.04653 41.5693 9.7129 21.2629Z" fill="#FFFFED"/>
</g>
<g filter="url(#filter1_d)">
<path d="M69.17 34.8113C65.1893 34.9514 61.9094 41.4552 61.9094 41.4552C61.9094 41.4552 66.0583 39.5209 69.983 40.1937C73.1507 40.7263 74.8888 39.2966 76.5147 38.1472C78.1687 36.9698 79.29 35.1196 79.29 35.1196C79.29 35.1196 77.9725 35.6803 75.87 35.6242C73.8235 35.5401 71.5809 34.7272 69.17 34.8113Z" fill="#829233"/>
<g style="mix-blend-mode:multiply">
<path d="M75.0009 37.082C76.9072 36.6615 77.8603 36.1008 77.8603 36.1008C77.8603 36.1008 75.3934 36.9699 73.2348 36.7176C70.4595 36.4092 70.9922 36.3251 69.3662 36.4653C66.0863 36.7176 62.0776 41.1188 62.0776 41.1188C62.0776 41.1188 63.5914 39.4648 65.6378 38.2314C65.9181 38.5397 66.4227 38.8481 66.8432 38.736C66.8713 38.736 66.8713 38.6799 66.8432 38.6799C66.7031 38.5958 66.5068 38.5678 66.3667 38.5117C66.1424 38.4556 65.9462 38.3155 65.778 38.1473C66.2265 37.8669 66.7311 37.6427 67.2357 37.4464C67.2357 37.4745 67.2637 37.5025 67.2637 37.5305C67.6562 38.0351 68.2449 38.4276 68.8056 38.6799C68.8897 38.7079 68.9738 38.5678 68.8897 38.5117C68.6093 38.3715 68.357 38.2033 68.1608 37.9791C67.9926 37.7548 67.7683 37.5305 67.5721 37.3343C68.1047 37.1381 68.6654 37.0259 69.198 36.9979C69.6185 37.895 70.4876 39.0724 71.5809 39.0443C71.6369 39.0443 71.665 38.9883 71.6089 38.9602C71.1604 38.6799 70.7399 38.4556 70.3474 38.0632C70.039 37.7548 69.8708 37.3904 69.6746 36.9979C69.7307 36.9979 69.7867 36.9979 69.8428 36.9979C70.3754 37.0259 70.824 37.082 71.2445 37.1381C71.2445 37.1661 71.2725 37.1941 71.2725 37.1941C71.9173 37.895 72.7022 38.4556 73.6553 38.5678C73.7114 38.5678 73.7394 38.4837 73.6834 38.4556C73.0666 38.1473 72.5901 37.6987 72.1135 37.2502C72.5901 37.3063 73.0386 37.3343 73.5993 37.2782L73.6273 37.3063C73.9076 37.5025 74.1599 37.6707 74.4683 37.8109C74.7486 37.951 75.0009 37.951 75.3093 37.951C75.3654 37.951 75.3654 37.895 75.3093 37.895C74.8608 37.8109 74.4683 37.5305 74.1039 37.2222C74.2721 37.1941 74.4403 37.1661 74.6365 37.1381C74.6365 37.1381 74.6365 37.1661 74.6645 37.1661C74.8608 37.3063 75.085 37.3904 75.3093 37.4184C75.5616 37.4464 75.8139 37.4184 76.0942 37.4464V37.4184C75.6737 37.3904 75.3093 37.3063 75.0009 37.082Z" fill="#BCCCCA"/>
</g>
<path d="M71.1604 35.2879C67.5721 34.2787 65.0771 37.3904 65.1893 37.3343C66.5068 36.6335 68.3851 34.8954 72.1976 35.9326C73.5993 36.2971 76.0942 36.1849 77.4959 35.7644C77.608 35.7364 74.0478 36.1008 71.1604 35.2879Z" fill="#A0AF9D"/>
<path d="M65.4976 39.2406C65.3855 39.2406 65.0771 39.2125 65.0211 39.1004C64.965 38.9883 64.7687 38.9602 64.6566 38.9042C64.6286 38.9042 64.6286 38.9042 64.6286 38.9322C64.7127 39.0724 64.7968 39.1845 64.965 39.1845C65.0491 39.1845 65.1332 39.2125 65.2173 39.2406C65.3014 39.2686 65.4135 39.2686 65.4976 39.2966C65.5256 39.2686 65.5256 39.2406 65.4976 39.2406Z" fill="#BCCCCA"/>
<path d="M72.8704 38.7079C72.2536 38.3154 71.6649 37.8108 71.1043 37.3623C71.0202 37.2782 70.908 37.3903 70.9641 37.4744C71.4687 38.1472 71.9733 38.5958 72.8143 38.82C72.8984 38.82 72.9264 38.7359 72.8704 38.7079Z" fill="#A0AF9D"/>
<path d="M75.1131 38.3435C74.9168 38.2314 74.6645 38.2033 74.4683 38.1192C74.216 38.0071 73.9917 37.8109 73.7675 37.6707C73.7394 37.6427 73.7114 37.6987 73.7114 37.6987C73.9637 38.1192 74.5244 38.5397 75.057 38.4837C75.1411 38.4837 75.1972 38.3715 75.1131 38.3435Z" fill="#A0AF9D"/>
<path d="M76.0942 37.5585C75.926 37.5585 75.7858 37.5865 75.6176 37.5585C75.5335 37.5585 75.4494 37.5305 75.3934 37.5305C75.2812 37.5305 75.1691 37.5305 75.057 37.5024C75.0289 37.5024 74.9729 37.5305 75.0009 37.5865C75.1691 37.7267 75.2812 37.8108 75.5055 37.8669C75.7017 37.9229 75.926 37.9229 76.1222 37.8949C76.2904 37.8388 76.2624 37.5305 76.0942 37.5585Z" fill="#A0AF9D"/>
<path d="M77.608 36.6335C77.636 36.5774 77.608 36.5214 77.5519 36.5214C77.2996 36.5214 77.0754 36.6896 76.8511 36.7456C76.5988 36.8297 76.3185 36.8578 76.0381 36.9419C75.954 36.9699 75.954 37.1101 76.0662 37.1101C76.3465 37.082 76.6268 37.054 76.9072 36.9979C77.1314 36.9699 77.4678 36.8858 77.608 36.6335Z" fill="#A0AF9D"/>
<path d="M70.6838 38.7079C70.4034 38.5397 70.1512 38.4276 69.8989 38.1753C69.6746 37.923 69.4503 37.6987 69.2261 37.4464C69.17 37.3903 69.0579 37.4464 69.1139 37.5305C69.2821 37.8949 69.4784 38.2033 69.7867 38.4556C70.011 38.6518 70.3754 38.8761 70.6838 38.82C70.7118 38.82 70.7118 38.7359 70.6838 38.7079Z" fill="#A0AF9D"/>
<path d="M68.1328 38.2593C67.9926 38.1472 67.8244 38.0911 67.6842 38.007C67.516 37.8949 67.3478 37.7547 67.2357 37.5865C67.1516 37.4464 66.9554 37.6146 67.0114 37.7547C67.1796 38.1192 67.5721 38.5677 67.9926 38.5677C68.1608 38.5397 68.2729 38.3434 68.1328 38.2593Z" fill="#A0AF9D"/>
<path d="M66.2826 38.6518C66.0863 38.5957 65.9181 38.5116 65.778 38.3995C65.6658 38.2874 65.4416 38.3995 65.5257 38.5677C65.6658 38.82 65.8901 38.9602 66.1424 39.0723C66.4227 39.1564 66.5349 38.7359 66.2826 38.6518Z" fill="#A0AF9D"/>
<path d="M64.937 39.2125C64.8809 39.1004 64.7688 39.1004 64.6847 39.0163C64.5165 38.9322 64.3202 39.1004 64.4043 39.2686C64.4604 39.3527 64.5165 39.4368 64.6006 39.4928C64.6847 39.5489 64.7968 39.5489 64.8809 39.4648L64.9089 39.4368C64.937 39.3807 64.965 39.2966 64.937 39.2125Z" fill="#A0AF9D"/>
<path d="M60.9843 46.6974C60.9843 46.6974 61.0123 46.333 61.0684 45.7443C61.1244 45.1276 61.2366 44.2866 61.3767 43.2493C61.4608 42.7447 61.5449 42.1841 61.6571 41.5954C61.7692 41.0067 61.8813 40.3899 62.0495 39.7452C62.1897 39.1004 62.3579 38.4556 62.5541 37.7829C62.7504 37.1101 62.9466 36.4373 63.1709 35.7645C63.283 35.4281 63.3951 35.0917 63.5353 34.7553C63.6474 34.4189 63.7876 34.1105 63.9278 33.7741C64.2081 33.1293 64.5165 32.5126 64.8529 31.8959C65.0211 31.6155 65.1893 31.3072 65.3855 31.0268C65.5817 30.7465 65.7499 30.4662 65.9462 30.2139C66.3386 29.7093 66.7591 29.2327 67.1796 28.8402C67.4039 28.644 67.6001 28.4478 67.8244 28.3076C68.0487 28.1394 68.2449 27.9712 68.4692 27.8591C68.6934 27.7469 68.8897 27.6068 69.0859 27.5227C69.2821 27.4386 69.4784 27.3545 69.6466 27.2984C69.7307 27.2704 69.8148 27.2423 69.8708 27.1863C69.9549 27.1582 70.011 27.1302 70.0951 27.1302C70.2353 27.1022 70.3474 27.0461 70.4315 27.0181C70.6277 26.962 70.7118 26.934 70.7118 26.934L71.1604 29.4289C71.1604 29.4289 71.1043 29.4289 70.9641 29.457C70.9081 29.457 70.824 29.485 70.7399 29.513C70.6838 29.513 70.6558 29.5411 70.5997 29.5411C70.5436 29.5691 70.4876 29.5691 70.4315 29.5971C70.3194 29.6252 70.1792 29.6812 70.0671 29.7093C69.9269 29.7653 69.7867 29.8494 69.6466 29.9055C69.4784 29.9616 69.3382 30.0737 69.17 30.1858C69.0018 30.2699 68.8336 30.4101 68.6654 30.5503C68.301 30.8306 67.9365 31.167 67.5721 31.5595C67.3759 31.7557 67.2077 31.98 67.0395 32.2042C66.8713 32.4285 66.7031 32.6808 66.5068 32.9051C66.1704 33.4097 65.834 33.9423 65.5257 34.531C65.3575 34.8113 65.2173 35.1197 65.0771 35.4C64.937 35.7084 64.7968 35.9887 64.6566 36.2971C64.3763 36.9138 64.124 37.5306 63.8997 38.1473C63.6755 38.764 63.4512 39.3807 63.255 39.9975C63.0587 40.6142 62.8905 41.2029 62.7223 41.7636C62.5541 42.3242 62.442 42.8569 62.3018 43.3615C62.0495 44.3426 61.8813 45.1836 61.7972 45.7723C61.6851 46.361 61.629 46.6974 61.629 46.6974H60.9843Z" fill="#829233"/>
<path d="M62.6102 29.7092C65.2453 32.6807 62.8345 39.5209 62.8345 39.5209C62.8345 39.5209 61.3768 35.2037 58.1529 32.7929C55.5739 30.8866 55.4057 28.6439 55.1253 26.6816C54.845 24.6632 55.4057 22.5887 55.4057 22.5887C55.4057 22.5887 55.9103 23.9343 57.396 25.3921C58.8818 26.8778 61.0123 27.9151 62.6102 29.7092Z" fill="#829233"/>
<g style="mix-blend-mode:multiply">
<path d="M56.9475 27.074C55.9383 25.392 55.6579 24.3268 55.6579 24.3268C55.6579 24.3268 56.7232 26.6816 58.4052 28.1113C60.5638 29.9054 60.2274 29.4569 61.2646 30.7184C63.3391 33.2694 62.9466 39.2125 62.9466 39.2125C62.9466 39.2125 63.0868 36.9698 62.5541 34.643C62.1617 34.6711 61.5449 34.5029 61.3487 34.1104C61.3487 34.0824 61.3487 34.0543 61.3767 34.0543C61.5449 34.1104 61.6851 34.1945 61.8253 34.2786C62.0215 34.3907 62.2738 34.4468 62.4981 34.4468C62.3859 33.9422 62.2177 33.4096 62.0215 32.905C61.9935 32.905 61.9654 32.933 61.9374 32.933C61.3207 32.9891 60.6198 32.8489 60.0592 32.6246C59.9751 32.5966 60.0311 32.4284 60.1152 32.4564C60.3956 32.5405 60.7039 32.6246 61.0123 32.5966C61.2926 32.5686 61.601 32.5686 61.8813 32.5686C61.629 32.064 61.3487 31.5594 60.9843 31.1389C60.0592 31.4472 58.5734 31.6435 57.8726 30.8305C57.8445 30.8025 57.8726 30.7464 57.9286 30.7464C58.4613 30.8866 58.8818 31.0267 59.4424 31.0267C59.8629 31.0267 60.2834 30.9146 60.6759 30.7744C60.6198 30.7184 60.5918 30.6903 60.5357 30.6343C60.1433 30.2698 59.7788 29.9895 59.4705 29.7372C59.4424 29.7372 59.4144 29.7652 59.3864 29.7652C58.4332 29.7933 57.4801 29.597 56.7512 28.9803C56.6952 28.9523 56.7512 28.8682 56.8073 28.8962C57.4521 29.1485 58.0968 29.1485 58.7696 29.2046C58.4052 28.8962 58.0688 28.5878 57.7044 28.1673C57.6763 28.1673 57.6763 28.1673 57.6483 28.1673C57.3399 28.1113 57.0035 28.0272 56.7232 27.915C56.4429 27.8029 56.2747 27.6347 56.0504 27.4104C56.0224 27.3824 56.0504 27.3263 56.1065 27.3544C56.4709 27.6347 56.9475 27.7188 57.396 27.7749C57.2839 27.6347 57.1998 27.4945 57.0876 27.3263H57.0596C56.8353 27.2703 56.6111 27.1862 56.4148 27.046C56.2186 26.8778 56.0504 26.6816 55.8542 26.5134C55.8542 26.5134 55.8542 26.4853 55.8542 26.5134C56.2466 26.7937 56.555 27.018 56.9475 27.074Z" fill="#BCCCCA"/>
</g>
<path d="M60.9002 28.6159C64.124 30.5222 63.5914 34.4749 63.5633 34.3628C63.1709 32.905 63.1148 30.354 59.7508 28.3356C58.5173 27.6067 56.8634 25.7005 56.1906 24.3829C56.1065 24.2427 58.3211 27.1021 60.9002 28.6159Z" fill="#A0AF9D"/>
<path d="M61.9374 35.428C62.0215 35.5121 62.2458 35.7083 62.3579 35.6522C62.4981 35.6242 62.6382 35.7363 62.7504 35.7924C62.7784 35.7924 62.7784 35.8204 62.7504 35.8204C62.6102 35.8765 62.442 35.8485 62.3299 35.7644C62.2738 35.7083 62.2177 35.6522 62.1336 35.6242C62.0495 35.5681 61.9935 35.5121 61.9374 35.428C61.9094 35.428 61.9374 35.428 61.9374 35.428Z" fill="#BCCCCA"/>
<path d="M57.2278 29.7372C57.9287 29.9334 58.7136 29.9895 59.4425 30.0736C59.5546 30.0736 59.5546 30.2418 59.4425 30.2418C58.6015 30.3539 57.9287 30.2979 57.1998 29.8213C57.1437 29.7933 57.1718 29.7092 57.2278 29.7372Z" fill="#A0AF9D"/>
<path d="M55.9663 27.859C56.1906 27.9431 56.3588 28.0833 56.5831 28.1674C56.8354 28.2795 57.1157 28.3076 57.396 28.3636C57.4241 28.3636 57.4241 28.4197 57.396 28.4197C56.9195 28.5318 56.2186 28.4197 55.8822 27.9992C55.8542 27.9431 55.8822 27.831 55.9663 27.859Z" fill="#A0AF9D"/>
<path d="M55.8542 26.6255C55.9663 26.7376 56.0504 26.8778 56.1906 26.9619C56.2467 27.018 56.3308 27.046 56.3868 27.1021C56.4709 27.1862 56.527 27.2422 56.6391 27.3263C56.6672 27.3544 56.6672 27.4104 56.6111 27.4104C56.4149 27.3824 56.2467 27.3544 56.0504 27.2422C55.8822 27.1301 55.714 26.9899 55.6019 26.8217C55.4898 26.6816 55.7421 26.4853 55.8542 26.6255Z" fill="#A0AF9D"/>
<path d="M55.4617 24.8875C55.4897 24.8314 55.5458 24.8314 55.5738 24.8595C55.742 25.0277 55.7981 25.308 55.9102 25.5323C56.0224 25.7846 56.1906 26.0088 56.3307 26.2611C56.3868 26.3452 56.2747 26.4574 56.1906 26.3733C55.9943 26.149 55.8542 25.9247 55.686 25.6724C55.5458 25.4482 55.3776 25.1678 55.4617 24.8875Z" fill="#A0AF9D"/>
<path d="M58.7416 31.3352C59.078 31.4193 59.3303 31.5314 59.6667 31.5314C60.0031 31.5314 60.3395 31.5034 60.6479 31.5034C60.732 31.5034 60.76 31.6155 60.6759 31.6436C60.3115 31.7837 59.9471 31.8398 59.5546 31.8118C59.2462 31.7837 58.8538 31.6716 58.6575 31.4193C58.6575 31.3632 58.7136 31.3352 58.7416 31.3352Z" fill="#A0AF9D"/>
<path d="M60.8442 32.8209C61.0124 32.849 61.1805 32.9331 61.3487 32.9611C61.545 33.0172 61.7412 33.0172 61.9655 32.9891C62.1337 32.9611 62.1337 33.2134 61.9935 33.2695C61.6291 33.4096 61.0123 33.4096 60.732 33.1293C60.6199 33.0452 60.676 32.8209 60.8442 32.8209Z" fill="#A0AF9D"/>
<path d="M61.8253 34.4749C61.9935 34.587 62.1617 34.6431 62.3579 34.6431C62.5261 34.6711 62.5822 34.8954 62.414 34.9234C62.1336 35.0075 61.8813 34.9514 61.629 34.8113C61.3767 34.6991 61.601 34.3347 61.8253 34.4749Z" fill="#A0AF9D"/>
<path d="M62.3579 35.8205C62.4981 35.7925 62.5542 35.8485 62.6663 35.8766C62.8345 35.9326 62.8625 36.1849 62.6663 36.241C62.5542 36.269 62.4701 36.2971 62.386 36.241C62.3019 36.213 62.2177 36.1289 62.2177 36.0167C62.2177 35.9326 62.2738 35.8485 62.3579 35.8205Z" fill="#A0AF9D"/>
<path d="M62.0776 40.6422C64.0399 41.4271 65.2173 46.1086 65.2173 46.1086L54.4805 44.1463C54.4805 44.1463 60.5077 39.9974 62.0776 40.6422Z" fill="#829233"/>
<path d="M56.8634 47.0618C56.1345 49.7249 53.3873 51.2948 50.7241 50.5659C48.0609 49.8371 46.4911 47.0898 47.2199 44.4266C47.9488 41.7635 50.6961 40.1936 53.3592 40.9225C56.0224 41.6513 57.5923 44.3986 56.8634 47.0618Z" fill="#633072"/>
<g style="mix-blend-mode:multiply">
<path d="M55.9383 42.6326C55.9103 42.8288 55.8822 43.0531 55.8262 43.2493C55.0973 45.9125 52.35 47.4823 49.6869 46.7535C48.6216 46.4731 47.7526 45.8564 47.1078 45.0434C46.7714 47.5104 48.2852 49.8932 50.7521 50.538C53.4153 51.2668 56.1626 49.697 56.8914 47.0338C57.3119 45.4639 56.8914 43.838 55.9383 42.6326Z" fill="#B1B8CC"/>
</g>
<path d="M53.8078 42.184C53.8919 42.7727 52.8546 43.4174 51.481 43.6137C50.1074 43.8099 48.93 43.4735 48.8459 42.8848C48.7618 42.2961 49.799 41.6513 51.1726 41.4551C52.5463 41.2869 53.7237 41.5953 53.8078 42.184Z" fill="#8B777E"/>
<path d="M64.096 49.0521C63.3671 51.7153 60.6199 53.2852 57.9567 52.5563C55.2935 51.8274 53.7237 49.0802 54.4525 46.417C55.1814 43.7538 57.9287 42.184 60.5918 42.9128C63.255 43.6417 64.8248 46.389 64.096 49.0521Z" fill="#633072"/>
<g style="mix-blend-mode:multiply">
<path d="M63.1709 44.5948C63.1428 44.7911 63.1148 45.0153 63.0587 45.2116C62.3299 47.8747 59.5826 49.4446 56.9194 48.7157C55.8542 48.4354 54.9852 47.8187 54.3404 47.0337C54.004 49.4726 55.5178 51.8835 57.9847 52.5283C60.6479 53.2571 63.3951 51.6873 64.124 49.0241C64.5445 47.4262 64.152 45.8003 63.1709 44.5948Z" fill="#B1B8CC"/>
</g>
<path d="M61.0403 44.1744C61.1244 44.7631 60.0872 45.4079 58.7136 45.6041C57.3399 45.8003 56.1625 45.4639 56.0784 44.8752C55.9943 44.2865 57.0316 43.6418 58.4052 43.4455C59.7788 43.2493 60.9562 43.5857 61.0403 44.1744Z" fill="#8B777E"/>
<path d="M71.5528 51.0706C70.824 53.7337 68.0767 55.3036 65.4136 54.5747C62.7504 53.8459 61.1805 51.0986 61.9094 48.4354C62.6383 45.7723 65.3855 44.2024 68.0487 44.9313C70.7118 45.6601 72.2817 48.4074 71.5528 51.0706Z" fill="#633072"/>
<g style="mix-blend-mode:multiply">
<path d="M70.6277 46.6414C70.5997 46.8376 70.5717 47.0619 70.5156 47.2581C69.7867 49.9213 67.0395 51.4911 64.3763 50.7623C63.311 50.4819 62.442 49.8652 61.7972 49.0803C61.4608 51.5192 62.9746 53.93 65.4416 54.5748C68.1047 55.3036 70.852 53.7338 71.5809 51.0706C71.9733 49.4727 71.5809 47.8468 70.6277 46.6414Z" fill="#B1B8CC"/>
</g>
<path d="M68.4692 46.1928C68.5533 46.7815 67.5161 47.4263 66.1424 47.6225C64.7688 47.8188 63.5914 47.4824 63.5073 46.8937C63.4232 46.305 64.4604 45.6602 65.8341 45.464C67.2077 45.2677 68.3851 45.6041 68.4692 46.1928Z" fill="#8B777E"/>
<path d="M68.2449 60.1254C67.7683 61.8354 62.1617 61.7793 55.714 60.0132C49.2663 58.2471 44.4166 55.4438 44.8651 53.7618C45.3417 52.0518 50.9483 52.1078 57.396 53.8739C63.8717 55.64 68.7215 58.4434 68.2449 60.1254Z" fill="#633072"/>
<path d="M49.0999 51.0986C48.371 53.7618 45.6238 55.3317 42.9606 54.6028C40.2974 53.8739 38.7276 51.1267 39.4564 48.4635C40.1853 45.8003 42.9326 44.2305 45.5957 44.9593C48.2309 45.6882 49.8007 48.4355 49.0999 51.0986Z" fill="#633072"/>
<path d="M48.1451 46.6694C48.117 46.8937 48.089 47.0899 48.0329 47.3142C47.3041 49.9774 44.5568 51.5472 41.8936 50.8184C40.8284 50.538 39.9593 49.9213 39.3146 49.1083C38.9782 51.5753 40.492 53.9581 42.9589 54.6029C45.6221 55.3317 48.3693 53.7619 49.0982 51.0987C49.5187 49.5008 49.1262 47.8749 48.1451 46.6694Z" fill="#B1B8CC"/>
<path d="M46.0145 46.2208C46.0986 46.8095 45.0614 47.4543 43.6878 47.6505C42.3141 47.8468 41.1367 47.5104 41.0526 46.9217C40.9685 46.333 42.0058 45.6882 43.3794 45.492C44.753 45.3238 45.9304 45.6321 46.0145 46.2208Z" fill="#8B777E"/>
<path d="M57.7885 53.4815C57.0596 56.1446 54.3124 57.7145 51.6492 56.9856C48.986 56.2567 47.4162 53.5095 48.145 50.8463C48.8739 48.1832 51.6212 46.6133 54.2843 47.3422C56.9475 48.071 58.5174 50.8183 57.7885 53.4815Z" fill="#633072"/>
<path d="M56.8634 49.0242C56.8354 49.2484 56.8074 49.4447 56.7513 49.6689C56.0224 52.3321 53.2752 53.902 50.612 53.1731C49.5467 52.8928 48.6777 52.276 48.0329 51.4631C47.6965 53.93 49.2103 56.3128 51.6773 56.9576C54.3404 57.6865 57.0877 56.1166 57.8166 53.4534C58.2371 51.8836 57.8446 50.2296 56.8634 49.0242Z" fill="#B1B8CC"/>
<path d="M54.7329 48.6037C54.817 49.1924 53.7798 49.8372 52.4061 50.0334C51.0325 50.2296 49.8551 49.8932 49.771 49.3045C49.6869 48.7158 50.7241 48.0711 52.0978 47.8748C53.4714 47.6786 54.6488 48.015 54.7329 48.6037Z" fill="#8B777E"/>
<path d="M66.8152 55.9203C66.0863 58.5835 63.3391 60.1533 60.6759 59.4245C58.0127 58.6956 56.4429 55.9483 57.1717 53.2852C57.9006 50.622 60.6479 49.0521 63.311 49.781C65.9742 50.5099 67.5441 53.2571 66.8152 55.9203Z" fill="#633072"/>
<g style="mix-blend-mode:multiply">
<path d="M65.8901 51.4911C65.8621 51.7154 65.834 51.9116 65.778 52.1359C65.0491 54.799 62.3018 56.3689 59.6387 55.64C58.5734 55.3597 57.7044 54.743 57.0596 53.93C56.7232 56.3969 58.237 58.7798 60.704 59.4245C63.3671 60.1534 66.1144 58.5835 66.8432 55.9204C67.2357 54.3225 66.8432 52.6965 65.8901 51.4911Z" fill="#B1B8CC"/>
</g>
<path d="M63.7315 51.0705C63.8156 51.6592 62.7784 52.3039 61.4048 52.5002C60.0311 52.6964 58.8537 52.36 58.7696 51.7713C58.6855 51.1826 59.7228 50.5378 61.0964 50.3416C62.4981 50.1454 63.6474 50.4537 63.7315 51.0705Z" fill="#8B777E"/>
<path d="M75.5055 58.3031C74.7767 60.9663 72.0294 62.5361 69.3662 61.8073C66.7031 61.0784 65.1332 58.3311 65.8621 55.668C66.5909 53.0048 69.3382 51.4349 72.0014 52.1638C74.6645 52.8927 76.2344 55.6399 75.5055 58.3031Z" fill="#633072"/>
<g style="mix-blend-mode:multiply">
<path d="M74.5805 53.8739C74.5524 54.0982 74.5244 54.2944 74.4683 54.4906C73.7395 57.1538 70.9922 58.7237 68.329 57.9948C67.2638 57.7145 66.3947 57.0977 65.75 56.2848C65.4136 58.7517 66.9274 61.1345 69.3943 61.7793C72.0575 62.5082 74.8047 60.9383 75.5336 58.2751C75.9541 56.7053 75.5616 55.0793 74.5805 53.8739Z" fill="#B1B8CC"/>
</g>
<path d="M72.4499 53.4253C72.534 54.014 71.4968 54.6588 70.1232 54.855C68.7495 55.0512 67.5721 54.7148 67.488 54.1261C67.4039 53.5374 68.4412 52.8927 69.8148 52.6964C71.1884 52.5282 72.3658 52.8366 72.4499 53.4253Z" fill="#8B777E"/>
<path d="M49.6028 58.8638C48.8739 61.5269 46.1266 63.0968 43.4635 62.3679C40.8003 61.6391 39.2304 58.8918 39.9593 56.2286C40.6882 53.5655 43.4354 51.9956 46.0986 52.7245C48.7618 53.4533 50.3316 56.2006 49.6028 58.8638Z" fill="#633072"/>
<path d="M48.6777 54.4346C48.6496 54.6308 48.6216 54.8551 48.5655 55.0793C47.8367 57.7425 45.0894 59.3124 42.4262 58.5835C41.361 58.3032 40.492 57.6864 39.8472 56.8735C39.5108 59.3404 41.0246 61.7232 43.4915 62.368C46.1547 63.0969 48.9019 61.527 49.6308 58.8638C50.0513 57.2659 49.6308 55.64 48.6777 54.4346Z" fill="#B1B8CC"/>
<path d="M46.5471 53.9859C46.6312 54.5746 45.594 55.2194 44.2204 55.4156C42.8467 55.6118 41.6693 55.2754 41.5852 54.6867C41.5011 54.098 42.5384 53.4533 43.912 53.257C45.2856 53.0608 46.463 53.3972 46.5471 53.9859Z" fill="#8B777E"/>
<path d="M57.0877 60.9103C56.3588 63.5734 53.6115 65.1433 50.9484 64.4144C48.2852 63.6856 46.7153 60.9383 47.4442 58.2751C48.1731 55.612 50.9203 54.0421 53.5835 54.771C56.2467 55.4999 57.8165 58.2471 57.0877 60.9103Z" fill="#633072"/>
<path d="M56.1626 56.4811C56.1345 56.6773 56.1065 56.9016 56.0504 57.1258C55.3216 59.789 52.5743 61.3589 49.9111 60.63C48.8459 60.3497 47.9768 59.7329 47.3321 58.948C46.9957 61.3869 48.5095 63.7978 50.9764 64.4425C53.6396 65.1714 56.3868 63.6015 57.1157 60.9384C57.5362 59.3124 57.1437 57.6585 56.1626 56.4811Z" fill="#B1B8CC"/>
<path d="M54.032 56.0325C54.1161 56.6212 53.0789 57.266 51.7053 57.4622C50.3316 57.6585 49.1542 57.3221 49.0701 56.7334C48.986 56.1447 50.0233 55.4999 51.3969 55.3037C52.7705 55.1074 53.9479 55.4438 54.032 56.0325Z" fill="#8B777E"/>
<path d="M64.8809 63.0127C64.1521 65.6759 61.4048 67.2457 58.7416 66.5169C56.0785 65.788 54.5086 63.0407 55.2375 60.3776C55.9663 57.7144 58.7136 56.1445 61.3768 56.8734C64.0399 57.6023 65.6098 60.3495 64.8809 63.0127Z" fill="#633072"/>
<g style="mix-blend-mode:multiply">
<path d="M63.9558 58.5835C63.9278 58.8078 63.8998 59.004 63.8437 59.2283C63.1148 61.8914 60.3676 63.4613 57.7044 62.7324C56.6392 62.4521 55.7701 61.8354 55.1254 61.0224C54.789 63.4893 56.3028 65.8722 58.7697 66.5169C61.4328 67.2458 64.1801 65.6759 64.909 63.0128C65.3015 61.4149 64.909 59.7889 63.9558 58.5835Z" fill="#B1B8CC"/>
</g>
<path d="M61.8253 58.163C61.9094 58.7517 60.8722 59.3965 59.4985 59.5927C58.1249 59.7889 56.9475 59.4525 56.8634 58.8638C56.7793 58.2751 57.8165 57.6304 59.1902 57.4341C60.5638 57.2379 61.7132 57.5463 61.8253 58.163Z" fill="#8B777E"/>
<path d="M72.1135 65.0031C71.3846 67.6662 68.6374 69.2361 65.9742 68.5072C63.311 67.7784 61.7412 65.0311 62.47 62.3679C63.1989 59.7048 65.9462 58.1349 68.6093 58.8638C71.2725 59.5926 72.8424 62.3399 72.1135 65.0031Z" fill="#633072"/>
<g style="mix-blend-mode:multiply">
<path d="M71.1884 60.5458C71.1604 60.742 71.1323 60.9663 71.0763 61.1625C70.3474 63.8257 67.6001 65.3955 64.937 64.6667C63.8717 64.3863 63.0027 63.7696 62.3579 62.9566C62.0215 65.4236 63.5353 67.8064 66.0023 68.4512C68.6654 69.18 71.4127 67.6102 72.1415 64.947C72.534 63.4052 72.1415 61.7512 71.1884 60.5458Z" fill="#B1B8CC"/>
</g>
<path d="M69.0298 60.1252C69.1139 60.7139 68.0767 61.3587 66.7031 61.5549C65.3294 61.7511 64.152 61.4147 64.0679 60.826C63.9838 60.2373 65.0211 59.5926 66.3947 59.3963C67.7964 59.2001 68.9457 59.5365 69.0298 60.1252Z" fill="#8B777E"/>
<path d="M50.3036 66.3207C49.5747 68.9838 46.8275 70.5537 44.1643 69.8248C41.5012 69.096 39.9313 66.3487 40.6602 63.6856C41.389 61.0224 44.1363 59.4525 46.7995 60.1814C49.4626 60.9103 51.0325 63.6575 50.3036 66.3207Z" fill="#633072"/>
<path d="M49.3785 61.8914C49.3505 62.0876 49.3224 62.3119 49.2664 62.5081C48.5375 65.1713 45.7902 66.7411 43.1271 66.0123C42.0618 65.7319 41.1928 65.1152 40.548 64.3022C40.2116 66.7411 41.7254 69.152 44.1923 69.7967C46.8555 70.5256 49.6028 68.9557 50.3316 66.2926C50.7521 64.7227 50.3316 63.0968 49.3785 61.8914Z" fill="#B1B8CC"/>
<path d="M47.248 61.4428C47.3321 62.0315 46.2948 62.6763 44.9212 62.8725C43.5476 63.0688 42.3702 62.7323 42.2861 62.1436C42.202 61.555 43.2392 60.9102 44.6128 60.714C45.9865 60.5177 47.1639 60.8541 47.248 61.4428Z" fill="#8B777E"/>
<path d="M57.7885 68.3671C57.0596 71.0302 54.3124 72.6001 51.6492 71.8712C48.986 71.1424 47.4162 68.3951 48.145 65.7319C48.8739 63.0688 51.6212 61.4989 54.2843 62.2278C56.9475 62.9566 58.5174 65.7039 57.7885 68.3671Z" fill="#633072"/>
<g style="mix-blend-mode:multiply">
<path d="M56.8634 63.9098C56.8354 64.106 56.8074 64.3303 56.7513 64.5265C56.0224 67.1897 53.2752 68.7596 50.612 68.0307C49.5467 67.7504 48.6777 67.1336 48.0329 66.3207C47.6965 68.7596 49.2103 71.1704 51.6773 71.8152C54.3404 72.544 57.0877 70.9742 57.8166 68.311C58.2371 66.7692 57.8446 65.1152 56.8634 63.9098Z" fill="#B1B8CC"/>
</g>
<path d="M54.7329 63.4892C54.817 64.0779 53.7798 64.7227 52.4061 64.9189C51.0325 65.1151 49.8551 64.7787 49.771 64.19C49.6869 63.6013 50.7241 62.9566 52.0978 62.7603C53.4714 62.5641 54.6488 62.9005 54.7329 63.4892Z" fill="#8B777E"/>
<path d="M65.5817 70.4696C64.8529 73.1328 62.1056 74.7026 59.4424 73.9738C56.7793 73.2449 55.2094 70.4976 55.9383 67.8345C56.6671 65.1713 59.4144 63.6014 62.0776 64.3303C64.7407 65.0592 66.3106 67.8064 65.5817 70.4696Z" fill="#633072"/>
<g style="mix-blend-mode:multiply">
<path d="M64.6566 66.0404C64.6286 66.2366 64.6006 66.4609 64.5445 66.6852C63.8156 69.3483 61.0684 70.9182 58.4052 70.1893C57.34 69.909 56.4709 69.2923 55.8262 68.4793C55.4898 70.9462 57.0036 73.3291 59.4705 73.9738C62.1336 74.7027 64.8809 73.1328 65.6098 70.4697C66.0023 68.8718 65.6098 67.2458 64.6566 66.0404Z" fill="#B1B8CC"/>
</g>
<path d="M62.4981 65.5918C62.5822 66.1805 61.545 66.8253 60.1713 67.0215C58.7977 67.2177 57.6203 66.8813 57.5362 66.2926C57.4521 65.7039 58.4894 65.0592 59.863 64.8629C61.2647 64.6947 62.414 65.0031 62.4981 65.5918Z" fill="#8B777E"/>
<path d="M49.799 73.5253C49.0702 76.1884 46.3229 77.7583 43.6597 77.0294C40.9966 76.3006 39.4267 73.5533 40.1556 70.8901C40.8844 68.227 43.6317 66.6571 46.2949 67.386C48.958 68.1148 50.5279 70.8621 49.799 73.5253Z" fill="#633072"/>
<g style="mix-blend-mode:multiply">
<path d="M48.8739 69.068C48.8459 69.2923 48.8178 69.4885 48.7618 69.7128C48.0329 72.3759 45.2856 73.9458 42.6225 73.2169C41.5572 72.9366 40.6882 72.3199 40.0434 71.5069C39.707 73.9738 41.2208 76.3567 43.6878 77.0014C46.3509 77.7303 49.0982 76.1604 49.827 73.4973C50.2475 71.9274 49.8551 70.2734 48.8739 69.068Z" fill="#B1B8CC"/>
</g>
<path d="M46.7434 68.6475C46.8275 69.2362 45.7902 69.881 44.4166 70.0772C43.043 70.2735 41.8656 69.9371 41.7815 69.3484C41.6974 68.7597 42.7346 68.1149 44.1082 67.9187C45.4819 67.7224 46.6593 68.0588 46.7434 68.6475Z" fill="#8B777E"/>
<path d="M56.9755 75.4595C56.2467 78.1226 53.4994 79.6925 50.8362 78.9636C48.1731 78.2348 46.6032 75.4875 47.3321 72.8243C48.0609 70.1612 50.8082 68.5913 53.4714 69.3202C56.1345 70.049 57.7044 72.7963 56.9755 75.4595Z" fill="#633072"/>
<g style="mix-blend-mode:multiply">
<path d="M56.0504 71.0303C56.0224 71.2545 55.9944 71.4508 55.9383 71.675C55.2094 74.3382 52.4622 75.9081 49.799 75.1792C48.7337 74.8989 47.8647 74.2821 47.2199 73.4692C46.8835 75.9361 48.3973 78.3189 50.8643 78.9637C53.5274 79.6926 56.2747 78.1227 57.0036 75.4595C57.4241 73.8616 57.0036 72.2357 56.0504 71.0303Z" fill="#B1B8CC"/>
</g>
<path d="M53.9199 70.6098C54.004 71.1985 52.9667 71.8432 51.5931 72.0395C50.2195 72.2357 49.0421 71.8993 48.958 71.3106C48.8739 70.7219 49.9111 70.0771 51.2847 69.8809C52.6584 69.6847 53.8358 69.993 53.9199 70.6098Z" fill="#8B777E"/>
<path d="M63.0307 77.1135C62.3018 79.7767 59.5546 81.3466 56.8914 80.6177C54.2283 79.8888 52.6584 77.1416 53.3873 74.4784C54.1161 71.8152 56.8634 70.2454 59.5265 70.9742C62.1897 71.7031 63.7596 74.4504 63.0307 77.1135Z" fill="#633072"/>
<g style="mix-blend-mode:multiply">
<path d="M62.1056 72.6842C62.0776 72.9085 62.0496 73.1047 61.9935 73.329C61.2646 75.9921 58.5174 77.562 55.8542 76.8331C54.7889 76.5528 53.9199 75.9361 53.2751 75.1511C52.9387 77.59 54.4525 80.0009 56.9195 80.6457C59.5826 81.3745 62.3299 79.8047 63.0588 77.1415C63.4793 75.5156 63.0588 73.8896 62.1056 72.6842Z" fill="#B1B8CC"/>
</g>
<path d="M59.9751 72.2357C60.0592 72.8244 59.022 73.4692 57.6483 73.6654C56.2747 73.8616 55.0973 73.5252 55.0132 72.9365C54.9291 72.3478 55.9663 71.7031 57.34 71.5068C58.7136 71.3386 59.891 71.647 59.9751 72.2357Z" fill="#8B777E"/>
<path d="M50.6698 81.795C49.9409 84.4582 47.1937 86.0281 44.5305 85.2992C41.8673 84.5703 40.2975 81.8231 41.0263 79.1599C41.7552 76.4968 44.5025 74.9269 47.1656 75.6558C49.8008 76.3846 51.3706 79.1319 50.6698 81.795Z" fill="#633072"/>
<g style="mix-blend-mode:multiply">
<path d="M49.7149 77.3378C49.6869 77.534 49.6589 77.7583 49.6028 77.9545C48.8739 80.6177 46.1267 82.1875 43.4635 81.4587C42.3982 81.1783 41.5292 80.5616 40.8844 79.7486C40.548 82.2156 42.0618 84.5984 44.5288 85.2432C47.1919 85.972 49.9392 84.4022 50.6681 81.739C51.0886 80.1691 50.6961 78.5432 49.7149 77.3378Z" fill="#B1B8CC"/>
</g>
<path d="M47.5844 76.9173C47.6685 77.506 46.6313 78.1508 45.2576 78.347C43.884 78.5432 42.7066 78.2068 42.6225 77.6181C42.5384 77.0294 43.5756 76.3847 44.9493 76.1884C46.3229 75.9922 47.5003 76.3286 47.5844 76.9173Z" fill="#8B777E"/>
<path d="M57.8165 83.7294C57.0877 86.3925 54.3404 87.9624 51.6772 87.2335C49.0141 86.5047 47.4442 83.7574 48.1731 81.0942C48.9019 78.4311 51.6492 76.8612 54.3124 77.5901C56.9755 78.3189 58.5454 81.0662 57.8165 83.7294Z" fill="#633072"/>
<g style="mix-blend-mode:multiply">
<path d="M56.8915 79.3C56.8634 79.4963 56.8354 79.7206 56.7793 79.9168C56.0505 82.5799 53.3032 84.1498 50.64 83.4209C49.5748 83.1406 48.7057 82.5239 48.061 81.7109C47.7246 84.1498 49.2384 86.5607 51.7053 87.2054C54.3685 87.9343 57.1157 86.3644 57.8446 83.7013C58.2651 82.1314 57.8726 80.5055 56.8915 79.3Z" fill="#B1B8CC"/>
</g>
<path d="M54.7609 78.8516C54.845 79.4403 53.8078 80.085 52.4341 80.2813C51.0605 80.4775 49.8831 80.1411 49.799 79.5524C49.7149 78.9637 50.7521 78.3189 52.1258 78.1227C53.4994 77.9545 54.6768 78.2629 54.7609 78.8516Z" fill="#8B777E"/>
<path d="M52.1818 90.5695C51.453 93.2326 48.7057 94.8025 46.0425 94.0736C43.3794 93.3448 41.8095 90.5975 42.5384 87.9343C43.2672 85.2712 46.0145 83.7013 48.6777 84.4302C51.3408 85.159 52.9107 87.9063 52.1818 90.5695Z" fill="#633072"/>
<g style="mix-blend-mode:multiply">
<path d="M51.2568 86.1401C51.2287 86.3644 51.2007 86.5606 51.1446 86.7849C50.4158 89.4481 47.6685 91.0179 45.0053 90.2891C43.9401 90.0087 43.071 89.392 42.4263 88.579C42.0899 91.046 43.6037 93.4288 46.0706 94.0736C48.7338 94.8024 51.481 93.2326 52.2099 90.5694C52.6304 88.9715 52.2379 87.3456 51.2568 86.1401Z" fill="#B1B8CC"/>
</g>
<path d="M49.1262 85.6917C49.2103 86.2804 48.1731 86.9252 46.7994 87.1214C45.4258 87.3177 44.2484 86.9813 44.1643 86.3926C44.0802 85.8039 45.1174 85.1591 46.4911 84.9629C47.8647 84.7666 49.0421 85.103 49.1262 85.6917Z" fill="#8B777E"/>
<path d="M44.753 68.4245C54.1441 65.9015 61.0684 57.3233 61.0684 47.1472C61.0684 47.1472 57.3119 43.8673 39.5948 43.8673C18.3176 43.8673 17 47.1472 17 47.1472C17 57.3513 23.9242 65.9015 33.3154 68.4245C33.7359 69.9944 34.7731 71.3119 36.1748 72.0688C36.1748 72.0688 36.4832 74.4517 36.7074 77.3951C35.9785 78.0399 35.502 78.993 35.502 80.0303C35.502 81.2077 36.0626 82.2169 36.9317 82.8897C36.9317 85.2164 36.7354 87.2068 36.1748 87.8796C34.4367 89.898 24.4849 90.8511 24.4849 93.0658C24.4849 93.0658 25.0456 94.8319 37.9128 94.8319C50.7521 94.8319 54.2002 93.0658 54.2002 93.0658C54.2002 90.8231 43.94 91.1315 41.9216 87.8796C41.3049 86.8984 41.0806 85.0482 41.0245 82.9738C41.9777 82.329 42.5944 81.2637 42.5944 80.0303C42.5944 78.9089 42.0898 77.9278 41.2768 77.283C41.5291 74.3675 41.9216 72.0408 41.9216 72.0408C43.2952 71.3119 44.3325 69.9944 44.753 68.4245Z" fill="#DAAB2A"/>
<g style="mix-blend-mode:multiply">
<path d="M30.2598 92.0834C30.2037 90.2332 39.3426 90.4295 38.5296 88.7475C35.9786 83.5052 39.2304 82.9165 39.2304 82.9165C39.2304 82.9165 35.2497 80.6458 38.1652 78.0387C36.9037 73.4413 39.1463 71.6752 39.1463 71.6752C39.1463 71.6752 36.9317 71.3388 36.315 70.6099C35.5581 69.7128 35.9225 67.5262 37.9689 66.8534C36.4551 66.6292 34.5489 65.3116 33.848 64.779C32.5305 63.7978 31.4372 62.5363 30.6242 61.1347C28.9422 58.1912 27.933 55.6401 28.6058 52.2481C36.6794 53.3975 47.0797 52.7527 54.06 51.3791C28.9142 53.3975 17 47.09 17 47.09C17 57.2941 23.9242 65.8442 33.3154 68.3672C33.7359 69.9371 34.7731 71.2547 36.1748 72.0116C36.1748 72.0116 36.4832 74.3944 36.7074 77.3379C35.9786 77.9827 35.502 78.9358 35.502 79.973C35.502 81.1504 36.0627 82.1596 36.9317 82.8324C36.9317 85.1592 36.7355 87.1496 36.1748 87.8224C34.4367 89.8408 24.4849 90.7939 24.4849 93.0085C24.4849 93.0085 25.0175 94.6905 36.7915 94.7746C32.4464 94.4663 30.3158 93.9056 30.2598 92.0834Z" fill="#E8CBC9"/>
</g>
<path d="M61.0684 47.1179C61.0684 47.1179 57.5362 43.838 39.0342 43.838C17.7569 43.838 17 47.1179 17 47.1179C23.8682 51.9957 55.1533 50.9024 61.0684 47.1179Z" fill="#AC7121"/>
<path d="M44.1923 67.8906C44.1643 67.6663 49.1542 66.1525 48.958 66.1245C48.8178 66.1245 46.2948 66.6011 43.8279 66.7693C41.6132 66.9375 39.4266 66.7693 39.4266 66.9375C39.4266 67.0776 42.7906 67.2458 42.9028 68.1149C42.9588 68.6475 42.5103 69.7128 42.0898 70.1333C41.5572 70.6659 40.8844 70.722 40.1835 70.9743C40.0153 71.0303 39.9593 71.2546 40.1275 71.3667C40.9124 71.8153 42.0337 71.5069 42.6785 70.9462C43.4634 70.2734 44.3325 68.9278 44.1923 67.8906Z" fill="#FDC52F"/>
<path d="M40.9405 77.4219C40.9405 77.4219 40.9405 74.3663 41.4451 72.3479C41.5292 72.0115 40.6601 72.7684 40.3798 73.4973C39.9032 74.6747 39.8752 77.5901 39.8752 77.5901C39.8752 77.5901 42.3141 80.814 39.5388 81.9353C39.3986 81.9914 39.3426 82.1596 39.5108 82.2437C40.8564 82.9725 41.8375 81.5148 42.0057 80.3374C42.1739 78.9918 40.9405 77.4219 40.9405 77.4219Z" fill="#FDC52F"/>
<path d="M53.3312 92.7842C51.7893 91.0742 48.5935 91.2985 46.491 90.6817C45.1735 90.2893 43.3513 89.7006 42.286 88.8035C41.0806 87.7943 40.8844 84.5424 40.4919 83.1127C40.4078 82.8604 40.1275 84.15 40.0434 84.4303C39.2304 87.2897 41.1086 89.9529 43.5475 90.9901C44.8651 91.5508 46.6312 91.8872 48.0048 92.2516C49.5747 92.6721 51.7333 92.6441 50.3596 93.8215C49.855 94.242 53.7517 93.2608 53.3312 92.7842Z" fill="#FDC52F"/>
<path d="M43.2392 51.1267C43.2392 51.1267 48.0048 51.6033 58.4052 50.3698C57.9567 52.8087 56.9194 55.4438 55.7701 57.6024C54.5366 59.9011 52.8266 61.7233 51.3408 63.8258C51.2287 63.966 51.4249 64.1061 51.5651 64.0501C54.032 62.9568 55.7701 60.0413 57.0316 57.7986C58.4052 55.3037 59.7788 51.7154 60.1152 48.884C52.4902 50.3698 43.2392 51.1267 43.2392 51.1267Z" fill="#FDC52F"/>
<path d="M51.7893 35.8204C51.7893 43.1091 45.8743 48.9961 38.6137 48.9961C31.325 48.9961 25.438 43.0811 25.438 35.8204C25.438 28.5318 31.353 22.6448 38.6137 22.6448C45.9023 22.6448 51.7893 28.5318 51.7893 35.8204Z" fill="#BB85A6"/>
<path d="M53.3872 35.1757C53.3872 42.4643 47.4722 48.3513 40.2116 48.3513C32.9229 48.3513 27.0359 42.4363 27.0359 35.1757C27.0359 27.887 32.9509 22 40.2116 22C47.4722 22 53.3872 27.915 53.3872 35.1757Z" fill="#E3B3D4"/>
<path d="M44.9772 31.5033H42.2019V27.9711C42.2019 27.6066 41.9216 27.3263 41.5571 27.3263H38.8379C38.4735 27.3263 38.1931 27.6066 38.1931 27.9711V31.5313H35.4179C35.0534 31.5313 34.7731 31.8116 34.7731 32.1761V34.8953C34.7731 35.2597 35.0534 35.5401 35.4179 35.5401H38.1931V42.4082C38.1931 42.7727 38.4735 43.053 38.8379 43.053H41.5571C41.9216 43.053 42.2019 42.7727 42.2019 42.4082V35.512H44.9772C45.3416 35.512 45.622 35.2317 45.622 34.8673V32.148C45.622 31.8116 45.3416 31.5033 44.9772 31.5033Z" fill="#9E4794"/>
</g>
<defs>
<filter id="filter0_d" x="0" y="0" width="93" height="93" filterUnits="userSpaceOnUse" color-interpolation-filters="sRGB">
<feFlood flood-opacity="0" result="BackgroundImageFix"/>
<feColorMatrix in="SourceAlpha" type="matrix" values="0 0 0 0 0 0 0 0 0 0 0 0 0 0 0 0 0 0 127 0"/>
<feOffset dy="4"/>
<feGaussianBlur stdDeviation="2"/>
<feColorMatrix type="matrix" values="0 0 0 0 0 0 0 0 0 0 0 0 0 0 0 0 0 0 0.25 0"/>
<feBlend mode="normal" in2="BackgroundImageFix" result="effect1_dropShadow"/>
<feBlend mode="normal" in="SourceGraphic" in2="effect1_dropShadow" result="shape"/>
</filter>
<filter id="filter1_d" x="15" y="22" width="66.29" height="76.8319" filterUnits="userSpaceOnUse" color-interpolation-filters="sRGB">
<feFlood flood-opacity="0" result="BackgroundImageFix"/>
<feColorMatrix in="SourceAlpha" type="matrix" values="0 0 0 0 0 0 0 0 0 0 0 0 0 0 0 0 0 0 127 0"/>
<feOffset dy="2"/>
<feGaussianBlur stdDeviation="1"/>
<feColorMatrix type="matrix" values="0 0 0 0 0 0 0 0 0 0 0 0 0 0 0 0 0 0 0.3 0"/>
<feBlend mode="normal" in2="BackgroundImageFix" result="effect1_dropShadow"/>
<feBlend mode="normal" in="SourceGraphic" in2="effect1_dropShadow" result="shape"/>
</filter>
</defs>
</svg>
