<svg width="93" height="98" viewBox="0 0 93 98" fill="none" xmlns="http://www.w3.org/2000/svg">
<g opacity="0.9" filter="url(#filter0_d)">
<path fill-rule="evenodd" clip-rule="evenodd" d="M9.7129 21.2629C21.43 0.914297 47.4446 -6.02371 67.7487 5.69475C88.0527 17.4132 95.0322 43.4307 83.3151 63.7371C71.598 84.0857 45.5834 91.0237 25.2793 79.3053C4.93299 67.5445 -2.04653 41.5693 9.7129 21.2629Z" fill="#FFFFED"/>
</g>
<g filter="url(#filter1_d)">
<path d="M67.3638 53.7169H48.7623V92.895H67.3638V53.7169Z" fill="#E0AB24"/>
<path d="M44.7404 42.6666H24.6307V92.8949H44.7404V42.6666Z" fill="#FEEECC"/>
<path d="M44.7404 83.8539H24.6307V93.3973H44.7404V83.8539Z" fill="#E0AB24"/>
<path d="M67.3638 83.8539H48.7623V93.3973H67.3638V83.8539Z" fill="#FEEECC"/>
<path d="M19.6033 94C37.5512 94 55.4488 94 73.3967 94C74.2011 94 74.2011 92.7443 73.3967 92.7443C55.4488 92.7443 37.5512 92.7443 19.6033 92.7443C18.7989 92.7945 18.7989 94 19.6033 94Z" fill="#F2CA00"/>
<path d="M33.9314 33.6255C33.9314 35.936 33.9314 38.2465 33.9314 40.5571C33.9314 41.5114 35.4397 41.5114 35.4397 40.5571C35.4397 38.2465 35.4397 35.936 35.4397 33.6255C35.4397 32.6712 33.9314 32.6712 33.9314 33.6255Z" fill="#EA371F"/>
<path d="M57.5603 48.1918C57.5603 50.5023 57.5603 52.8128 57.5603 55.1233C57.5603 56.0777 59.0686 56.0777 59.0686 55.1233C59.0686 52.8128 59.0686 50.5023 59.0686 48.1918C59.0686 47.2375 57.5603 47.2375 57.5603 48.1918Z" fill="#EA371F"/>
<path d="M24.128 41.0593V46.7853C24.128 47.0365 24.128 46.9863 24.128 46.6849V47.0867C24.128 47.8401 25.0329 48.4429 25.8373 48.4429C26.2395 48.4429 27.1444 47.8401 27.1444 47.0867V45.9315C27.1444 45.178 27.9488 44.6757 28.6527 44.6757H28.904C29.6581 44.6757 30.1106 45.1278 30.1106 45.8812V51.105V54.0684C30.1106 54.8219 30.8647 55.726 31.6188 55.726H31.8702C32.6243 55.726 33.1271 54.8721 33.1271 54.1187V52.6118V51.105V44.4748C33.1271 43.7214 33.8309 43.1689 34.585 43.1689H34.8364C35.5905 43.1689 36.1435 43.7214 36.1435 44.4748V47.0867C36.1435 47.8401 36.8976 48.4931 37.6517 48.4931C38.4059 48.4931 39.16 47.7899 39.16 47.0867V45.9817C39.16 45.2283 39.5622 44.1735 40.3163 44.1735H40.9196C41.6737 44.1735 42.1764 45.2283 42.1764 45.9817V51.1552C42.1764 51.9086 42.7294 52.7123 43.4836 52.7123H43.7349C44.489 52.7123 45.1929 51.9086 45.1929 51.1552V44.2739V42.968V41.0593C45.1929 39.9543 44.1874 39.1506 43.0814 39.1506H26.2395C25.1335 39.1506 24.128 39.9041 24.128 41.0593ZM33.2779 42.968C33.2779 42.9178 33.2779 42.8675 33.2779 42.8173H33.3282C33.2779 42.8675 33.2779 42.9178 33.2779 42.968ZM30.3117 42.968C30.3117 42.8675 30.3117 42.8173 30.3117 42.7168H30.362C30.3117 42.8173 30.3117 42.8675 30.3117 42.968ZM27.2953 42.8675C27.2953 42.7671 27.2953 42.7168 27.245 42.6666H27.3455C27.2953 42.7671 27.2953 42.8675 27.2953 43.0182V42.8675Z" fill="#E0AB24"/>
<path d="M57.6106 66.6255C57.6106 70.895 57.6106 75.1644 57.6106 79.4338C57.6106 80.3881 59.1188 80.3881 59.1188 79.4338C59.1188 75.1644 59.1188 70.895 59.1188 66.6255C59.1188 65.6712 57.6106 65.6712 57.6106 66.6255Z" fill="white"/>
<path d="M54.5942 71.2466C57.1581 71.2466 59.7724 71.2466 62.3364 71.2466C63.2916 71.2466 63.2916 69.7397 62.3364 69.7397C59.7724 69.7397 57.1581 69.7397 54.5942 69.7397C53.6389 69.7397 53.6389 71.2466 54.5942 71.2466Z" fill="white"/>
<path d="M62.4872 56.7808C62.4872 56.831 62.4872 56.9314 62.4872 57.0319C62.5375 56.9314 62.5375 56.831 62.4872 56.7808Z" fill="#FEEECC"/>
<path d="M65.3528 56.6803C65.4031 56.7808 65.4031 56.8812 65.4031 57.0319V56.9314C65.4031 56.8812 65.4031 56.7808 65.4534 56.7305L65.3528 56.6803Z" fill="#FEEECC"/>
<path d="M66.4086 53.2146H50.2203C49.1645 53.2146 48.2596 54.0685 48.2596 55.1735V57.032V58.2877V64.9178C48.2596 65.621 48.8629 66.3242 49.5667 66.3242H49.8181C50.5219 66.3242 51.276 65.6712 51.276 64.9178V59.9452C51.276 59.1918 51.5274 58.2877 52.2815 58.2877H52.8848C53.6389 58.2877 53.7898 59.1918 53.7898 59.9452V61C53.7898 61.7032 54.5439 62.3562 55.298 62.3562C56.0521 62.3562 56.8062 61.7032 56.8062 61V58.4886C56.8062 57.7854 57.4095 57.2831 58.1133 57.2831H58.3647C59.0686 57.2831 59.8227 57.7854 59.8227 58.4886V61.1507V62.5571V63.9635C59.8227 64.6667 60.2751 65.2694 60.979 65.2694H61.2304C61.9342 65.2694 62.3364 64.6667 62.3364 63.9635V61.1004V59.8447C62.3364 59.1415 63.0905 58.7397 63.8446 58.7397H64.096C64.7998 58.7397 65.3528 59.1415 65.3528 59.8447V60.9498C65.3528 61.653 66.3081 62.2557 66.66 62.2557C67.4141 62.2557 68.3693 61.653 68.3693 60.9498V60.5479C68.3693 60.7991 68.3693 60.8995 68.3693 60.6484V55.1735C68.3693 54.0685 67.4644 53.2146 66.4086 53.2146ZM59.6718 56.8813C59.6718 56.9315 59.6718 56.9817 59.6718 56.9817C59.6718 56.9817 59.6718 56.9315 59.6718 56.8813ZM62.4872 56.7808C62.5375 56.831 62.4872 56.9315 62.4872 57.032C62.5375 56.9315 62.5375 56.831 62.4872 56.7808ZM65.4031 56.9817C65.4031 56.8813 65.4031 56.7808 65.3528 56.6301H65.4031C65.4031 56.6804 65.3528 56.7808 65.3528 56.831V56.9817H65.4031Z" fill="#FEEECC"/>
<path d="M36.6463 32.7215C36.6463 33.9269 35.691 34.8813 34.4845 34.8813C33.2779 34.8813 32.3227 33.9269 32.3227 32.7215C32.3227 31.516 34.4845 28 34.4845 28C34.4845 28 36.6463 31.516 36.6463 32.7215Z" fill="#F2CA00"/>
<path d="M60.2751 47.7899C60.2751 48.9954 59.3199 49.9498 58.1133 49.9498C56.9068 49.9498 55.9516 48.9954 55.9516 47.7899C55.9516 46.5845 58.1133 43.0685 58.1133 43.0685C58.1133 43.0685 60.2751 46.5845 60.2751 47.7899Z" fill="#F2CA00"/>
<path d="M33.9817 66.6255C33.9817 70.895 33.9817 75.1644 33.9817 79.4338C33.9817 80.3881 35.4899 80.3881 35.4899 79.4338C35.4899 75.1644 35.4899 70.895 35.4899 66.6255C35.4899 65.6712 33.9817 65.6712 33.9817 66.6255Z" fill="white"/>
<path d="M30.9653 71.2466C33.5292 71.2466 36.1435 71.2466 38.7075 71.2466C39.6627 71.2466 39.6627 69.7397 38.7075 69.7397C36.1435 69.7397 33.5292 69.7397 30.9653 69.7397C30.0101 69.7397 30.0101 71.2466 30.9653 71.2466Z" fill="white"/>
</g>
<defs>
<filter id="filter0_d" x="0" y="0" width="93" height="93" filterUnits="userSpaceOnUse" color-interpolation-filters="sRGB">
<feFlood flood-opacity="0" result="BackgroundImageFix"/>
<feColorMatrix in="SourceAlpha" type="matrix" values="0 0 0 0 0 0 0 0 0 0 0 0 0 0 0 0 0 0 127 0"/>
<feOffset dy="4"/>
<feGaussianBlur stdDeviation="2"/>
<feColorMatrix type="matrix" values="0 0 0 0 0 0 0 0 0 0 0 0 0 0 0 0 0 0 0.25 0"/>
<feBlend mode="normal" in2="BackgroundImageFix" result="effect1_dropShadow"/>
<feBlend mode="normal" in="SourceGraphic" in2="effect1_dropShadow" result="shape"/>
</filter>
<filter id="filter1_d" x="17" y="28" width="59" height="70" filterUnits="userSpaceOnUse" color-interpolation-filters="sRGB">
<feFlood flood-opacity="0" result="BackgroundImageFix"/>
<feColorMatrix in="SourceAlpha" type="matrix" values="0 0 0 0 0 0 0 0 0 0 0 0 0 0 0 0 0 0 127 0"/>
<feOffset dy="2"/>
<feGaussianBlur stdDeviation="1"/>
<feColorMatrix type="matrix" values="0 0 0 0 0 0 0 0 0 0 0 0 0 0 0 0 0 0 0.3 0"/>
<feBlend mode="normal" in2="BackgroundImageFix" result="effect1_dropShadow"/>
<feBlend mode="normal" in="SourceGraphic" in2="effect1_dropShadow" result="shape"/>
</filter>
</defs>
</svg>
