<svg width="20" height="35" viewBox="0 0 20 35" fill="none" xmlns="http://www.w3.org/2000/svg">
<path d="M5.59775 9.71998C7.35062 9.71998 8.78739 8.28577 8.78739 6.53604C8.78739 4.92973 6.2874 1.57368 6.02878 1.20079C5.94258 1.08605 5.77016 1 5.62649 1C5.45407 1 5.3104 1.08605 5.22419 1.20079C4.93683 1.57368 2.46558 4.92973 2.46558 6.53604C2.43685 8.28577 3.84489 9.71998 5.59775 9.71998Z" stroke="white" stroke-miterlimit="10"/>
<path d="M8.06899 34.4148H3.12649C1.94833 34.4148 1.00006 33.4682 1.00006 32.2921V13.3606C1.00006 12.1846 1.94833 11.238 3.12649 11.238H8.09773C9.27588 11.238 10.2242 12.1846 10.2242 13.3606V32.2921C10.1954 33.4682 9.24715 34.4148 8.06899 34.4148Z" stroke="white" stroke-miterlimit="10"/>
<path d="M15.7137 17.2638C16.9206 17.2638 17.8976 16.2886 17.8976 15.0839C17.8976 13.9939 16.1735 11.6704 16.0011 11.4123C15.9436 11.3262 15.8287 11.2689 15.7137 11.2689C15.5988 11.2689 15.5126 11.3262 15.4264 11.4123C15.2252 11.6704 13.5298 13.9652 13.5298 15.0839C13.5298 16.2599 14.5068 17.2638 15.7137 17.2638Z" stroke="white" stroke-miterlimit="10"/>
<path d="M17.3508 34.4147H14.075C13.2416 34.4147 12.552 33.7263 12.552 32.8944V19.9866C12.552 19.1547 13.2416 18.4663 14.075 18.4663H17.3795C18.2129 18.4663 18.9025 19.1547 18.9025 19.9866V32.8944C18.8738 33.755 18.1841 34.4147 17.3508 34.4147Z" stroke="white" stroke-miterlimit="10"/>
<path d="M5.54044 16.315V24.6334" stroke="white" stroke-miterlimit="10"/>
<path d="M3.35629 18.6097H7.83903" stroke="white" stroke-miterlimit="10"/>
</svg>
