<svg width="94" height="102" viewBox="0 0 94 102" fill="none" xmlns="http://www.w3.org/2000/svg">
<g opacity="0.9" filter="url(#filter0_d)">
<path fill-rule="evenodd" clip-rule="evenodd" d="M9.7129 21.2629C21.43 0.914297 47.4446 -6.02371 67.7487 5.69475C88.0527 17.4132 95.0322 43.4307 83.3151 63.7371C71.598 84.0857 45.5834 91.0237 25.2793 79.3053C4.93299 67.5445 -2.04653 41.5693 9.7129 21.2629Z" fill="#FFFFED"/>
</g>
<g filter="url(#filter1_d)">
<path d="M54.2302 76.8924C47.7396 77.9433 42.2999 73.369 40.5073 67.0639C38.7765 60.8206 36.4893 42.6471 59.979 39C59.979 39 62.7606 56.9881 63.8115 63.4168C64.8005 69.9074 60.7207 75.9034 54.2302 76.8924Z" fill="#EAEAEA"/>
<path d="M81.7996 58.9043C81.7996 58.9043 59.1754 43.5743 49.7177 65.4567L12.3198 60.017C12.3198 60.017 8.05455 86.041 30.6788 94.7569C52.623 103.287 67.9531 87.7718 71.1674 83.5684C80.8105 71.02 81.7996 58.9043 81.7996 58.9043Z" fill="white"/>
<path d="M85.8175 65.8894C84.5812 60.697 83.4067 55.4427 82.3559 50.3739L85.8175 65.8894Z" fill="#86A36B"/>
<path d="M86.7448 65.6421C85.5703 60.4497 84.334 55.3191 83.2831 50.1266C83.0359 48.8903 81.1196 49.3849 81.3669 50.6212C82.4795 55.8136 83.654 61.006 84.8285 66.1367C85.1376 67.4348 87.0538 66.8784 86.7448 65.6421Z" fill="#86A36B"/>
<path d="M82.4795 55.6282C80.5633 56.7409 76.298 56.37 75.0618 51.6721C80.2542 50.4358 81.9232 53.2174 82.974 55.3191" fill="#86A36B"/>
<path d="M82.2323 55.1955C79.2652 56.8026 76.3599 54.3301 75.5563 51.5484C75.4327 51.7338 75.309 51.9811 75.1854 52.1665C76.978 51.7956 78.9561 51.672 80.5015 52.8465C81.4287 53.5883 81.985 54.5773 82.5413 55.6282C82.8504 56.1845 83.7158 55.69 83.4068 55.1336C82.7268 53.8355 81.9232 52.5992 80.6869 51.7956C78.9561 50.683 76.8544 50.8066 74.9381 51.2393C74.6909 51.3011 74.5054 51.6102 74.5672 51.8575C75.5563 55.3191 79.1415 57.9771 82.665 56.1227C83.2831 55.7518 82.7886 54.8864 82.2323 55.1955Z" fill="#86A36B"/>
<path d="M84.4576 54.5154C84.2103 52.2901 86.2502 48.5812 91.01 49.2612C90.0827 54.5154 86.8684 54.9481 84.5194 55.0718" fill="#86A36B"/>
<path d="M84.9521 54.5155C84.643 51.1157 88.0429 49.3849 91.01 49.7558C90.8245 49.5703 90.7009 49.3231 90.5154 49.1376C90.2064 50.9302 89.5264 52.7229 87.9192 53.7119C86.8684 54.33 85.6939 54.5155 84.5194 54.5773C83.9013 54.6391 83.9013 55.6282 84.5194 55.5663C85.9412 55.4427 87.4247 55.2573 88.661 54.4537C90.3918 53.2792 91.1336 51.3629 91.5045 49.3849C91.5663 49.014 91.3809 48.8285 91.01 48.7667C87.5483 48.334 83.5922 50.5593 83.9631 54.5155C84.0249 55.1336 85.0139 55.1336 84.9521 54.5155Z" fill="#86A36B"/>
<path d="M82.1705 50.8066C76.9162 46.7886 79.8833 40.4835 80.1306 40.6071C82.0468 42.0907 85.0758 46.4177 82.3559 51.0538" fill="#86A36B"/>
<path d="M82.5413 50.4357C79.636 48.0249 79.2652 45.1196 80.1306 41.7198C80.1924 41.5344 80.2542 41.3489 80.316 41.2253C80.5633 40.7926 80.1924 41.2871 80.0688 41.2253C80.6869 41.7198 81.305 42.4616 81.6759 43.1416C83.2213 45.6142 83.2831 48.2722 81.9232 50.8684C81.6141 51.4247 82.4795 51.9193 82.7886 51.3629C84.2103 48.7049 84.334 45.7996 82.8504 43.1416C82.4177 42.338 80.8723 39.5563 79.6979 40.4217C78.7706 41.1635 78.647 43.6361 78.5852 44.6251C78.5852 47.2832 79.8215 49.5085 81.7996 51.1775C82.3559 51.5484 83.0359 50.8684 82.5413 50.4357Z" fill="#86A36B"/>
<path d="M46.1943 77.3252C41.1873 81.5904 34.1404 80.5395 29.3188 76.0889C24.5591 71.7 13.1234 57.4208 31.2351 42.0289C31.2351 42.0289 42.9799 55.8754 47.2451 60.8824C51.5103 65.8276 51.2013 73.0599 46.1943 77.3252Z" fill="#F4F4F4"/>
<path d="M77.2871 56.4318C77.2871 56.4318 73.64 62.0569 80.5014 65.0858L86.312 57.2972L77.2871 56.4318Z" fill="#E0AB24"/>
<path d="M70.0548 61.3151C69.5602 62.4277 68.3239 62.9223 67.2113 62.4277C66.0986 61.9332 65.6041 60.6969 66.0986 59.5843C66.5931 58.4716 67.8294 57.9771 68.9421 58.4716C70.0548 58.9043 70.5493 60.2024 70.0548 61.3151Z" fill="#AD803D"/>
</g>
<defs>
<filter id="filter0_d" x="0" y="0" width="93" height="93" filterUnits="userSpaceOnUse" color-interpolation-filters="sRGB">
<feFlood flood-opacity="0" result="BackgroundImageFix"/>
<feColorMatrix in="SourceAlpha" type="matrix" values="0 0 0 0 0 0 0 0 0 0 0 0 0 0 0 0 0 0 127 0"/>
<feOffset dy="4"/>
<feGaussianBlur stdDeviation="2"/>
<feColorMatrix type="matrix" values="0 0 0 0 0 0 0 0 0 0 0 0 0 0 0 0 0 0 0.25 0"/>
<feBlend mode="normal" in2="BackgroundImageFix" result="effect1_dropShadow"/>
<feBlend mode="normal" in="SourceGraphic" in2="effect1_dropShadow" result="shape"/>
</filter>
<filter id="filter1_d" x="10" y="39" width="83.5162" height="62.2772" filterUnits="userSpaceOnUse" color-interpolation-filters="sRGB">
<feFlood flood-opacity="0" result="BackgroundImageFix"/>
<feColorMatrix in="SourceAlpha" type="matrix" values="0 0 0 0 0 0 0 0 0 0 0 0 0 0 0 0 0 0 127 0"/>
<feOffset dy="2"/>
<feGaussianBlur stdDeviation="1"/>
<feColorMatrix type="matrix" values="0 0 0 0 0 0 0 0 0 0 0 0 0 0 0 0 0 0 0.3 0"/>
<feBlend mode="normal" in2="BackgroundImageFix" result="effect1_dropShadow"/>
<feBlend mode="normal" in="SourceGraphic" in2="effect1_dropShadow" result="shape"/>
</filter>
</defs>
</svg>
