<svg width="30" height="34" viewBox="0 0 30 34" fill="none" xmlns="http://www.w3.org/2000/svg">
<path d="M7.2659 26.3163C5.16526 26.3163 4.00629 25.0124 3.86142 24.2881V24.2518V19.3262C3.86142 19.1813 3.97008 19.0727 4.11495 19.0727C4.25982 19.0727 4.36847 19.1813 4.36847 19.3262V24.2156C4.47712 24.6502 5.38257 25.8454 7.33834 25.8092C7.48321 25.8092 7.59186 25.9179 7.59186 26.0627C7.59186 26.2076 7.48321 26.3163 7.33834 26.3163C7.33834 26.3163 7.30211 26.3163 7.2659 26.3163Z" fill="white" stroke="white" stroke-width="0.5" stroke-miterlimit="10"/>
<path d="M6.3243 22.9118C6.17943 22.9118 6.07077 22.8031 6.07077 22.6583V16.5737C6.07077 16.4288 6.17943 16.3201 6.3243 16.3201C6.46917 16.3201 6.57782 16.4288 6.57782 16.5737V22.6583C6.57782 22.8031 6.46917 22.9118 6.3243 22.9118Z" fill="white" stroke="white" stroke-width="0.5" stroke-miterlimit="10"/>
<path d="M8.53364 21.9339C8.38877 21.9339 8.28012 21.8252 8.28012 21.6803V15.5957C8.28012 15.4509 8.38877 15.3422 8.53364 15.3422C8.67851 15.3422 8.78717 15.4509 8.78717 15.5957V21.6803C8.78717 21.8252 8.67851 21.9339 8.53364 21.9339Z" fill="white" stroke="white" stroke-width="0.5" stroke-miterlimit="10"/>
<path d="M8.53364 22.4771C8.38877 22.4771 8.28012 22.3685 8.28012 22.2236V16.139C8.28012 15.9942 8.38877 15.8855 8.53364 15.8855C8.67851 15.8855 8.78717 15.9942 8.78717 16.139V22.2236C8.78717 22.3685 8.67851 22.4771 8.53364 22.4771Z" fill="white" stroke="white" stroke-width="0.5" stroke-miterlimit="10"/>
<path d="M10.743 24.3244C10.5981 24.3244 10.4895 24.2157 10.4895 24.0709V17.9863C10.4895 17.8414 10.5981 17.7327 10.743 17.7327C10.8879 17.7327 10.9965 17.8414 10.9965 17.9863V24.0709C10.9965 24.2157 10.8879 24.3244 10.743 24.3244Z" fill="white" stroke="white" stroke-width="0.5" stroke-miterlimit="10"/>
<path d="M11.9743 31.3143H2.88364C2.73877 31.3143 2.63011 31.2057 2.63011 31.0608V29.3224C2.19549 28.9964 1.86954 28.5618 1.76088 28.1272C1.76088 28.091 1.76088 28.091 1.76088 28.0547L1.65222 19.3262C1.65222 19.0727 1.76088 18.8192 1.94197 18.6381C2.1955 18.3846 2.59389 18.2397 3.02851 18.2397C3.35447 18.2397 3.64421 18.3121 3.86151 18.457V16.6099C3.86151 15.9942 4.47722 15.5234 5.2378 15.5234C5.56376 15.5234 5.8535 15.5958 6.07081 15.7407V15.632C6.07081 15.0163 6.6865 14.5455 7.44708 14.5455C8.06278 14.5455 8.60605 14.8714 8.75092 15.3423C9.00445 15.1612 9.29419 15.0887 9.65637 15.0887C10.4169 15.0887 11.0327 15.5958 11.0327 16.2115V17.1894C11.25 17.0445 11.5397 16.9721 11.8657 16.9721C12.6262 16.9721 13.2419 17.4791 13.2419 18.0948V27.6926C13.2419 28.3445 12.8798 28.9964 12.2641 29.4672V31.2057C12.2278 31.2057 12.1192 31.3143 11.9743 31.3143ZM3.13716 30.8073H11.7208V29.2137C11.7208 29.1413 11.757 29.0326 11.8294 28.9964C12.3727 28.6342 12.6625 28.1272 12.6625 27.5839V17.9862C12.6625 17.6602 12.2641 17.4067 11.8294 17.4067C11.3586 17.4067 10.9964 17.6602 10.9964 17.9862C10.9964 18.131 10.8878 18.2397 10.7429 18.2397C10.598 18.2397 10.4894 18.131 10.4894 17.9862V16.1391C10.4894 15.8131 10.091 15.5596 9.65637 15.5596C9.18554 15.5596 8.82336 15.8131 8.82336 16.1391C8.82336 16.2839 8.71471 16.3926 8.56984 16.3926C8.42496 16.3926 8.31632 16.2839 8.31632 16.1391V15.5958C8.31632 15.2698 7.91791 15.0163 7.4833 15.0163C7.01247 15.0163 6.65029 15.2698 6.65029 15.5958V16.5737C6.65029 16.7185 6.54164 16.8272 6.39676 16.8272C6.25189 16.8272 6.14325 16.7185 6.14325 16.5737C6.14325 16.2477 5.74484 15.9942 5.31023 15.9942C4.8394 15.9942 4.47722 16.2477 4.47722 16.5737V19.3262C4.47722 19.4711 4.36856 19.5798 4.22369 19.5798C4.07882 19.5798 3.97017 19.4711 3.97017 19.3262C3.97017 19.0003 3.57177 18.7467 3.13716 18.7467C2.84741 18.7467 2.59389 18.8554 2.44902 19.0003C2.37658 19.0727 2.30415 19.1814 2.30415 19.3262L2.37658 28.0185C2.48523 28.3807 2.77498 28.7429 3.13716 28.9964C3.20959 29.0326 3.24582 29.1413 3.24582 29.2137V30.8073H3.13716Z" fill="white" stroke="white" stroke-width="0.5" stroke-miterlimit="10"/>
<path d="M13.6401 33.1976H1.25359C1.10872 33.1976 1.00006 33.089 1.00006 32.9441V31.0608C1.00006 30.9159 1.10872 30.8073 1.25359 30.8073H13.6401C13.785 30.8073 13.8936 30.9159 13.8936 31.0608V32.9441C13.8936 33.089 13.785 33.1976 13.6401 33.1976ZM1.50711 32.6906H13.3866V31.3143H1.50711V32.6906Z" fill="white" stroke="white" stroke-width="0.5" stroke-miterlimit="10"/>
<path d="M22.5865 26.3163C22.5503 26.3163 22.514 26.3163 22.4778 26.3163C22.333 26.3163 22.2243 26.2076 22.2243 26.0627C22.2243 25.9179 22.333 25.8092 22.4778 25.8092C24.4336 25.8454 25.339 24.6502 25.4477 24.2156V19.3262C25.4477 19.1813 25.5563 19.0727 25.7012 19.0727C25.8461 19.0727 25.9547 19.1813 25.9547 19.3262V24.2156V24.2518C25.8461 24.9762 24.6871 26.3163 22.5865 26.3163Z" fill="white" stroke="white" stroke-width="0.5" stroke-miterlimit="10"/>
<path d="M23.5282 22.9118C23.3833 22.9118 23.2746 22.8031 23.2746 22.6583V16.5737C23.2746 16.4288 23.3833 16.3201 23.5282 16.3201C23.673 16.3201 23.7817 16.4288 23.7817 16.5737V22.6583C23.7817 22.8031 23.673 22.9118 23.5282 22.9118Z" fill="white" stroke="white" stroke-width="0.5" stroke-miterlimit="10"/>
<path d="M21.319 21.9339C21.1741 21.9339 21.0654 21.8252 21.0654 21.6803V15.5957C21.0654 15.4509 21.1741 15.3422 21.319 15.3422C21.4638 15.3422 21.5725 15.4509 21.5725 15.5957V21.6803C21.5725 21.8252 21.4638 21.9339 21.319 21.9339Z" fill="white" stroke="white" stroke-width="0.5" stroke-miterlimit="10"/>
<path d="M21.319 22.4771C21.1741 22.4771 21.0654 22.3685 21.0654 22.2236V16.139C21.0654 15.9942 21.1741 15.8855 21.319 15.8855C21.4638 15.8855 21.5725 15.9942 21.5725 16.139V22.2236C21.5725 22.3685 21.4638 22.4771 21.319 22.4771Z" fill="white" stroke="white" stroke-width="0.5" stroke-miterlimit="10"/>
<path d="M19.1096 24.3244C18.9647 24.3244 18.8561 24.2157 18.8561 24.0709V17.9863C18.8561 17.8414 18.9647 17.7327 19.1096 17.7327C19.2545 17.7327 19.3631 17.8414 19.3631 17.9863V24.0709C19.3631 24.2157 19.2545 24.3244 19.1096 24.3244Z" fill="white" stroke="white" stroke-width="0.5" stroke-miterlimit="10"/>
<path d="M26.9688 31.3144H17.8781C17.7333 31.3144 17.6246 31.2058 17.6246 31.0609V29.3224C17.0089 28.8516 16.6467 28.2359 16.6467 27.5478V17.9862C16.6467 17.3705 17.2624 16.8635 18.023 16.8635C18.349 16.8635 18.6387 16.9359 18.856 17.0808V16.1029C18.856 15.4872 19.4717 14.9802 20.2323 14.9802C20.5583 14.9802 20.8842 15.0888 21.1377 15.2337C21.2826 14.7629 21.8259 14.4369 22.4416 14.4369C23.2022 14.4369 23.8179 14.9439 23.8179 15.5234V15.7045C24.0352 15.5596 24.3249 15.4872 24.6509 15.4872C25.4114 15.4872 26.0271 15.9943 26.0271 16.5737V18.4209C26.2445 18.276 26.5342 18.2035 26.8602 18.2035C27.2948 18.2035 27.6569 18.3484 27.9105 18.6019C28.0916 18.783 28.2002 19.0366 28.2002 19.2901L28.1278 28.0186C28.1278 28.0548 28.1278 28.0548 28.1278 28.091C27.9829 28.5619 27.6932 28.9602 27.2586 29.2862V31.0247C27.2223 31.2058 27.1137 31.3144 26.9688 31.3144ZM18.1317 30.8074H26.7153V29.2138C26.7153 29.1413 26.7515 29.0327 26.8239 28.9965C27.2223 28.7429 27.4759 28.3808 27.5845 28.0186L27.657 19.3263C27.657 19.1814 27.5845 19.0728 27.5121 19.0003C27.3672 18.8555 27.0775 18.7468 26.8239 18.7468C26.3531 18.7468 25.9909 19.0003 25.9909 19.3263C25.9909 19.4712 25.8823 19.5798 25.7374 19.5798C25.5925 19.5798 25.4839 19.4712 25.4839 19.3263V16.61C25.4839 16.284 25.0855 16.0305 24.6509 16.0305C24.18 16.0305 23.8179 16.284 23.8179 16.61C23.8179 16.7548 23.7092 16.8635 23.5643 16.8635C23.4195 16.8635 23.3108 16.7548 23.3108 16.61V15.6321C23.3108 15.3061 22.9124 15.0526 22.4778 15.0526C22.007 15.0526 21.6448 15.3061 21.6448 15.6321V16.1753C21.6448 16.3202 21.5361 16.4289 21.3913 16.4289C21.2464 16.4289 21.1377 16.3202 21.1377 16.1753C21.1377 15.8494 20.7393 15.5959 20.3047 15.5959C19.8339 15.5959 19.4717 15.8494 19.4717 16.1753V18.0225C19.4717 18.1673 19.3631 18.276 19.2182 18.276C19.0733 18.276 18.9647 18.1673 18.9647 18.0225C18.9647 17.6965 18.5663 17.443 18.1317 17.443C17.6608 17.443 17.2986 17.6965 17.2986 18.0225V27.6202C17.2986 28.1635 17.6246 28.6705 18.1317 29.0327C18.2041 29.0689 18.2403 29.1776 18.2403 29.25V30.8074H18.1317Z" fill="white" stroke="white" stroke-width="0.5" stroke-miterlimit="10"/>
<path d="M28.5984 33.1976H16.2119C16.067 33.1976 15.9583 33.089 15.9583 32.9441V31.0608C15.9583 30.9159 16.067 30.8073 16.2119 30.8073H28.5984C28.7433 30.8073 28.8519 30.9159 28.8519 31.0608V32.9441C28.8881 33.089 28.7433 33.1976 28.5984 33.1976ZM16.4654 32.6906H28.3449V31.3143H16.4654V32.6906Z" fill="white" stroke="white" stroke-width="0.5" stroke-miterlimit="10"/>
<path d="M16.5014 15.0525H13.3504C13.2055 15.0525 13.0969 14.9439 13.0969 14.799V7.37434H10.0546C9.90971 7.37434 9.80106 7.26569 9.80106 7.12082V3.93365C9.80106 3.78878 9.90971 3.68012 10.0546 3.68012H13.0969V1.25353C13.0969 1.10865 13.2055 1 13.3504 1H16.5014C16.6462 1 16.7549 1.10865 16.7549 1.25353V3.68012H19.7972C19.9421 3.68012 20.0507 3.78878 20.0507 3.93365V7.0846C20.0507 7.22947 19.9421 7.33813 19.7972 7.33813H16.7549V14.7628C16.7549 14.9439 16.6462 15.0525 16.5014 15.0525ZM13.6039 14.5093H16.2478V7.0846C16.2478 6.93973 16.3565 6.83108 16.5014 6.83108H19.5437V4.18717H16.5014C16.3565 4.18717 16.2478 4.07852 16.2478 3.93365V1.50705H13.6039V3.93365C13.6039 4.07852 13.4953 4.18717 13.3504 4.18717H10.3081V6.83108H13.3504C13.4953 6.83108 13.6039 6.93973 13.6039 7.0846V14.5093Z" fill="white" stroke="white" stroke-width="0.5" stroke-miterlimit="10"/>
</svg>
