<svg width="26" height="26" viewBox="0 0 26 26" fill="none" xmlns="http://www.w3.org/2000/svg">
<path d="M23.4031 24.8572H2.53483C1.7001 24.8572 1 24.1571 1 23.3224V5.01218C1 4.17745 1.7001 3.47736 2.53483 3.47736H23.4031C24.2378 3.47736 24.9379 4.17745 24.9379 5.01218V23.3224C24.9379 24.184 24.2378 24.8572 23.4031 24.8572ZM2.53483 3.88126C1.91551 3.88126 1.4039 4.39286 1.4039 5.01218V23.3224C1.4039 23.9417 1.91551 24.4533 2.53483 24.4533H23.4031C24.0224 24.4533 24.534 23.9417 24.534 23.3224V5.01218C24.534 4.39286 24.0224 3.88126 23.4031 3.88126H2.53483Z" fill="white" stroke="white" stroke-width="0.5" stroke-miterlimit="10"/>
<path d="M24.749 8.88975H1.21498C1.10727 8.88975 1.02649 8.80897 1.02649 8.70126V5.03922C1.02649 4.20449 1.72659 3.50439 2.56132 3.50439H23.4296C24.2643 3.50439 24.9644 4.20449 24.9644 5.03922V8.70126C24.9375 8.78204 24.8567 8.88975 24.749 8.88975ZM1.40346 8.48585H24.5605V5.01229C24.5605 4.39297 24.0489 3.88137 23.4296 3.88137H2.56132C1.942 3.88137 1.43039 4.39297 1.43039 5.01229V8.48585H1.40346Z" fill="white" stroke="white" stroke-width="0.5" stroke-miterlimit="10"/>
<path d="M3.66567 5.95453C3.55796 5.95453 3.47718 5.87375 3.47718 5.76605C3.47718 5.65834 3.55796 5.57755 3.66567 5.57755C4.01571 5.57755 4.44654 4.68897 4.44654 3.47727C4.44654 2.29249 4.04264 1.37697 3.66567 1.37697C3.31562 1.37697 2.88479 2.26556 2.88479 3.47727C2.88479 3.58498 2.80401 3.66575 2.6963 3.66575C2.58859 3.66575 2.50781 3.58498 2.50781 3.47727C2.50781 2.05015 3.01942 1 3.66567 1C4.33883 1 4.82352 2.07708 4.82352 3.47727C4.82352 4.90439 4.33883 5.95453 3.66567 5.95453Z" fill="white" stroke="white" stroke-width="0.5" stroke-miterlimit="10"/>
<path d="M8.32369 5.95453C8.21598 5.95453 8.1352 5.87375 8.1352 5.76605C8.1352 5.65834 8.21598 5.57755 8.32369 5.57755C8.67373 5.57755 9.10456 4.68897 9.10456 3.47727C9.10456 2.29249 8.70066 1.37697 8.32369 1.37697C7.94671 1.37697 7.54281 2.26556 7.54281 3.47727C7.54281 3.58498 7.46203 3.66575 7.35432 3.66575C7.24661 3.66575 7.16583 3.58498 7.16583 3.47727C7.16583 2.05015 7.67744 1 8.32369 1C8.99685 1 9.48154 2.07708 9.48154 3.47727C9.48154 4.90439 8.96993 5.95453 8.32369 5.95453Z" fill="white" stroke="white" stroke-width="0.5" stroke-miterlimit="10"/>
<path d="M12.955 5.95453C12.8473 5.95453 12.7665 5.87375 12.7665 5.76605C12.7665 5.65834 12.8473 5.57755 12.955 5.57755C13.305 5.57755 13.7358 4.68897 13.7358 3.47727C13.7358 2.29249 13.3319 1.37697 12.955 1.37697C12.6049 1.37697 12.1741 2.26556 12.1741 3.47727C12.1741 3.58498 12.0933 3.66575 11.9856 3.66575C11.8779 3.66575 11.7971 3.58498 11.7971 3.47727C11.7971 2.05015 12.3087 1 12.955 1C13.6281 1 14.1128 2.07708 14.1128 3.47727C14.1398 4.90439 13.6281 5.95453 12.955 5.95453Z" fill="white" stroke="white" stroke-width="0.5" stroke-miterlimit="10"/>
<path d="M17.6135 5.95453C17.5058 5.95453 17.425 5.87375 17.425 5.76605C17.425 5.65834 17.5058 5.57755 17.6135 5.57755C17.9635 5.57755 18.3944 4.68897 18.3944 3.47727C18.3944 2.29249 17.9905 1.37697 17.6135 1.37697C17.2634 1.37697 16.8326 2.26556 16.8326 3.47727C16.8326 3.58498 16.7518 3.66575 16.6441 3.66575C16.5364 3.66575 16.4556 3.58498 16.4556 3.47727C16.4556 2.05015 16.9672 1 17.6135 1C18.2866 1 18.7713 2.07708 18.7713 3.47727C18.7713 4.90439 18.2866 5.95453 17.6135 5.95453Z" fill="white" stroke="white" stroke-width="0.5" stroke-miterlimit="10"/>
<path d="M22.272 5.95453C22.1643 5.95453 22.0836 5.87375 22.0836 5.76605C22.0836 5.65834 22.1643 5.57755 22.272 5.57755C22.6221 5.57755 23.0529 4.68897 23.0529 3.47727C23.0529 2.29249 22.649 1.37697 22.272 1.37697C21.922 1.37697 21.4912 2.26556 21.4912 3.47727C21.4912 3.58498 21.4104 3.66575 21.3027 3.66575C21.195 3.66575 21.1142 3.58498 21.1142 3.47727C21.1142 2.05015 21.6258 1 22.272 1C22.9452 1 23.4299 2.07708 23.4299 3.47727C23.4299 4.90439 22.9183 5.95453 22.272 5.95453Z" fill="white" stroke="white" stroke-width="0.5" stroke-miterlimit="10"/>
<path d="M14.0318 20.7645H11.9315C11.8238 20.7645 11.7431 20.6837 11.7431 20.576V16.0792H8.86189C8.75418 16.0792 8.6734 15.9984 8.6734 15.8907V13.7904C8.6734 13.6827 8.75418 13.6019 8.86189 13.6019H11.7431V12.3095C11.7431 12.2017 11.8238 12.121 11.9315 12.121H14.0318C14.1395 12.121 14.2203 12.2017 14.2203 12.3095V13.6019H17.1015C17.2092 13.6019 17.29 13.6827 17.29 13.7904V15.8907C17.29 15.9984 17.2092 16.0792 17.1015 16.0792H14.2203V20.576C14.2203 20.6568 14.1395 20.7645 14.0318 20.7645ZM12.12 20.3606H13.8433V15.8638C13.8433 15.7561 13.9241 15.6753 14.0318 15.6753H16.913V13.952H14.0318C13.9241 13.952 13.8433 13.8712 13.8433 13.7635V12.471H12.12V13.7635C12.12 13.8712 12.0392 13.952 11.9315 13.952H9.05037V15.6753H11.9315C12.0392 15.6753 12.12 15.7561 12.12 15.8638V20.3606Z" fill="white" stroke="white" stroke-width="0.5" stroke-miterlimit="10"/>
</svg>
