<svg width="22" height="30" viewBox="0 0 22 30" fill="none" xmlns="http://www.w3.org/2000/svg">
<path d="M1.24486 26.4499C1.12008 26.4499 1.02649 26.3544 1.02649 26.2269V2.33779C1.02649 1.60519 1.61922 1 2.33673 1H20.2122C20.9297 1 21.5224 1.60519 21.5224 2.33779V24.0291C21.5224 24.1566 21.4288 24.2521 21.304 24.2521H3.70936H3.67817H3.64697H3.45979L3.30381 24.284H3.24142H3.17903H3.14783C3.14783 24.284 3.14783 24.284 3.11664 24.284H3.08544C3.08544 24.284 3.08544 24.284 3.05424 24.284H3.02305L2.96065 24.3158L2.77348 24.4432L2.71108 24.4751L2.6175 24.5069C2.5863 24.5069 2.5863 24.5388 2.5551 24.5388L2.52391 24.5706L2.49271 24.6025L2.43032 24.6343L2.39912 24.6662L2.27434 24.7617L2.14955 24.8573L2.11836 24.8892C2.05596 24.9529 2.02477 24.9847 1.96238 25.0484L1.93118 25.0803L1.89998 25.1121L1.83759 25.1758L1.80639 25.2714V25.3032C1.80639 25.3032 1.80639 25.3032 1.80639 25.3351L1.7752 25.3669C1.71281 25.4625 1.68161 25.5262 1.65041 25.6218L1.61922 25.6536C1.61922 25.6536 1.61922 25.6536 1.61922 25.6855L1.55682 25.8129V25.8447V25.9084C1.49443 26.0358 1.46324 26.1314 1.46324 26.2588C1.46324 26.3544 1.33845 26.4499 1.24486 26.4499ZM2.30553 1.44593C1.83759 1.44593 1.46324 1.82816 1.46324 2.30594V24.9529L1.49443 24.921L1.55682 24.8255C1.55682 24.8255 1.55682 24.8255 1.55682 24.7936L1.58802 24.7617C1.58802 24.7617 1.58802 24.7617 1.58802 24.7299C1.65041 24.6662 1.71281 24.5706 1.7752 24.5069L1.80639 24.4751L1.93118 24.3477L1.96238 24.3158L1.99357 24.284H2.11836L2.18075 24.2521L2.24314 24.2203C2.27434 24.2203 2.30553 24.1884 2.30553 24.1884L2.36793 24.1566L2.43032 24.1247L2.46151 24.0929L2.52391 24.061H2.5551L2.64869 24.0291H2.67989H2.71108H2.74228C2.74228 24.0291 2.74228 24.0291 2.77348 24.0291H2.80467H2.86707H2.92946H2.99185L3.27262 23.9973H3.3974H3.4286H3.45979H20.7737V2.33779C20.7737 1.86001 20.3993 1.47778 19.9314 1.47778H2.30553V1.44593Z" fill="white" stroke="white" stroke-width="0.5" stroke-miterlimit="10"/>
<path d="M1.24486 26.4499C1.24486 26.4499 1.21367 26.4499 1.24486 26.4499C1.12008 26.4499 1.02649 26.3544 1.02649 26.2269V2.33779C1.02649 1.60519 1.61922 1 2.33673 1H6.04908C6.17386 1 6.26745 1.09556 6.26745 1.22297V23.9973C6.26745 24.1247 6.17386 24.2203 6.04908 24.2203H3.70936C2.5863 24.2203 1.61922 25.0803 1.46324 26.2269C1.43204 26.3544 1.33845 26.4499 1.24486 26.4499ZM2.30553 1.44593C1.83759 1.44593 1.46324 1.82816 1.46324 2.30594V24.9529C1.96238 24.2203 2.77348 23.7425 3.70936 23.7425H5.79951V1.44593H2.30553Z" fill="white" stroke="white" stroke-width="0.5" stroke-miterlimit="10"/>
<path d="M19.8425 29.3168H3.71407C2.21665 29.3168 1 28.0745 1 26.5456C1 25.0167 2.21665 23.7745 3.71407 23.7745H19.8425C19.9673 23.7745 20.0609 23.87 20.0609 23.9974V29.0938C20.0609 29.2212 19.9673 29.3168 19.8425 29.3168ZM3.71407 24.2523C2.46622 24.2523 1.46794 25.3034 1.46794 26.5775C1.46794 27.8516 2.49742 28.9027 3.71407 28.9027H19.5929V24.2523H3.71407Z" fill="white" stroke="white" stroke-width="0.5" stroke-miterlimit="10"/>
<path d="M19.8421 26.8005H4.15038C4.0256 26.8005 3.93201 26.7049 3.93201 26.5775C3.93201 26.4501 4.0256 26.3546 4.15038 26.3546H19.8109C19.9357 26.3546 20.0293 26.4501 20.0293 26.5775C20.0605 26.6731 19.9669 26.8005 19.8421 26.8005Z" fill="white" stroke="white" stroke-width="0.5" stroke-miterlimit="10"/>
<path d="M15.3501 20.653H11.6378C11.513 20.653 11.4194 20.5575 11.4194 20.43V12.1485H8.67412C8.54934 12.1485 8.45575 12.0529 8.45575 11.9255V8.13509C8.45575 8.00769 8.54934 7.91213 8.67412 7.91213H11.4194V6.54248C11.4194 6.41508 11.513 6.31952 11.6378 6.31952H15.3189C15.4437 6.31952 15.5373 6.41508 15.5373 6.54248V7.91213H18.2826C18.4073 7.91213 18.5009 8.00769 18.5009 8.13509V11.8937C18.5009 12.0211 18.4073 12.1166 18.2826 12.1166H15.5373V20.3663C15.5685 20.5575 15.4749 20.653 15.3501 20.653ZM11.8873 20.1752H15.1317V11.9255C15.1317 11.7981 15.2253 11.7025 15.3501 11.7025H18.0954V8.38991H15.3501C15.2253 8.38991 15.1317 8.29436 15.1317 8.16695V6.7973H11.8873V8.16695C11.8873 8.29436 11.7937 8.38991 11.669 8.38991H8.92369V11.7025H11.669C11.7937 11.7025 11.8873 11.7981 11.8873 11.9255V20.1752Z" fill="white" stroke="white" stroke-width="0.5" stroke-miterlimit="10"/>
</svg>
