<svg width="93" height="97" viewBox="0 0 93 97" fill="none" xmlns="http://www.w3.org/2000/svg">
<g opacity="0.9" filter="url(#filter0_d)">
<path fill-rule="evenodd" clip-rule="evenodd" d="M9.7129 21.2629C21.43 0.914297 47.4446 -6.02371 67.7487 5.69475C88.0527 17.4132 95.0322 43.4307 83.3151 63.7371C71.598 84.0857 45.5834 91.0237 25.2793 79.3053C4.93299 67.5445 -2.04653 41.5693 9.7129 21.2629Z" fill="#FFFFED"/>
</g>
<g filter="url(#filter1_d)">
<path fill-rule="evenodd" clip-rule="evenodd" d="M25.0642 22H73.4538V76.7305V80.4558V86.6779V92.9C57.3239 92.9 41.1941 92.9 25.0642 92.9C20.7841 92.8604 19.0403 90.8788 19.0403 86.6779V87.0742C19.0403 67.5757 19.0403 48.1169 19.0403 28.6184C19.0403 23.9816 22.0523 22.0793 25.0642 22Z" fill="#A3320A"/>
<path d="M73.4538 22H25.0642V80.4558H73.4538V22Z" fill="#C3522A"/>
<path fill-rule="evenodd" clip-rule="evenodd" d="M25.0642 22C22.0523 22.0793 19.0799 23.9816 19.0403 28.658C19.0403 48.1565 19.0403 67.6154 19.0403 87.1139C19.0403 81.2881 21.8145 80.5747 25.0642 80.4558C25.0642 60.9573 25.0642 41.4985 25.0642 22Z" fill="#A3320A"/>
<path fill-rule="evenodd" clip-rule="evenodd" d="M73.4141 86.6779V80.4558C57.2843 80.4558 41.1544 80.4558 25.0246 80.4558C20.7048 80.4558 18.961 82.477 19.0007 86.6779C19.0007 90.8788 20.7444 92.8603 25.0246 92.9C41.1544 92.9 57.2843 92.9 73.4141 92.9V86.6779Z" fill="#932210"/>
<path fill-rule="evenodd" clip-rule="evenodd" d="M22.4089 80.8125C23.2808 80.5351 24.1527 80.4558 25.0246 80.4558H71.5515V89.2935H22.4089C22.4089 86.4797 22.4089 83.6263 22.4089 80.8125Z" fill="#E0E0E0"/>
<path fill-rule="evenodd" clip-rule="evenodd" d="M22.4089 80.8125C23.2412 80.5351 24.1527 80.4558 25.1038 80.4558H71.5118V83.2696C56.0557 83.2696 40.5996 83.2696 25.1435 83.2696C24.232 83.2696 23.3205 83.3489 22.4089 83.6263C22.4089 82.5166 22.4089 81.9222 22.4089 80.8125Z" fill="#C0C0C0"/>
<path fill-rule="evenodd" clip-rule="evenodd" d="M38.0632 30.9962H60.4548C60.8511 34.246 62.7534 35.9897 66.0031 36.3464V66.0301C62.7534 66.3868 60.8511 68.1305 60.4548 71.3803H38.0632C37.6669 68.1305 35.7646 66.3868 32.5149 66.0301V36.386C35.7646 35.9897 37.6669 34.246 38.0632 30.9962Z" fill="white"/>
<path fill-rule="evenodd" clip-rule="evenodd" d="M40.6393 48.6321H47.0199L49.2392 46.4127L47.0199 48.6321V64.0089H51.4585V48.6321H57.8391V44.233H51.4585V38.4469H47.0199V44.233L49.2392 46.3731L47.0199 44.233H40.6393V48.6321Z" fill="#A3320A"/>
<path fill-rule="evenodd" clip-rule="evenodd" d="M40.6393 48.6321H47.0199L49.2392 46.4127H42.819L40.6393 48.6321Z" fill="#C3522A"/>
<path fill-rule="evenodd" clip-rule="evenodd" d="M42.819 46.4127H49.2392V46.3731L47.0199 44.233H40.6393L42.8586 46.4127H42.819Z" fill="#A3320A"/>
<path fill-rule="evenodd" clip-rule="evenodd" d="M40.6393 44.233V48.6321L42.8586 46.4127L40.6393 44.233Z" fill="#932210"/>
<path fill-rule="evenodd" clip-rule="evenodd" d="M51.4585 64.0089V48.6321H51.4189L49.2392 46.4127V61.7896L51.4585 64.0089ZM51.4585 44.233V38.4469L49.2392 40.6662V46.3731L51.4585 44.233Z" fill="#C3522A"/>
<path fill-rule="evenodd" clip-rule="evenodd" d="M49.2392 61.7896V40.6662L47.0198 38.4469V44.233L49.2392 46.3731V46.4127L47.0198 48.6321V64.0089L49.2392 61.7896Z" fill="#A3320A"/>
<path fill-rule="evenodd" clip-rule="evenodd" d="M47.0198 64.0089H51.4585L49.2392 61.7896L47.0198 64.0089Z" fill="#932210"/>
<path fill-rule="evenodd" clip-rule="evenodd" d="M47.0198 38.4469H51.4585L49.2392 40.6662L47.0198 38.4469Z" fill="#932210"/>
<path fill-rule="evenodd" clip-rule="evenodd" d="M57.8391 48.6321H51.4585L49.2392 46.4127H55.6594L57.8391 48.6321Z" fill="#A3320A"/>
<path fill-rule="evenodd" clip-rule="evenodd" d="M55.6594 46.4127H49.2392V46.3731L51.4585 44.233H57.8391L55.6198 46.4127H55.6594Z" fill="#C3522A"/>
<path fill-rule="evenodd" clip-rule="evenodd" d="M57.8391 44.233V48.6321L55.6198 46.4127L57.8391 44.233Z" fill="#932210"/>
</g>
<defs>
<filter id="filter0_d" x="0" y="0" width="93" height="93" filterUnits="userSpaceOnUse" color-interpolation-filters="sRGB">
<feFlood flood-opacity="0" result="BackgroundImageFix"/>
<feColorMatrix in="SourceAlpha" type="matrix" values="0 0 0 0 0 0 0 0 0 0 0 0 0 0 0 0 0 0 127 0"/>
<feOffset dy="4"/>
<feGaussianBlur stdDeviation="2"/>
<feColorMatrix type="matrix" values="0 0 0 0 0 0 0 0 0 0 0 0 0 0 0 0 0 0 0.25 0"/>
<feBlend mode="normal" in2="BackgroundImageFix" result="effect1_dropShadow"/>
<feBlend mode="normal" in="SourceGraphic" in2="effect1_dropShadow" result="shape"/>
</filter>
<filter id="filter1_d" x="17" y="22" width="58.4538" height="74.9" filterUnits="userSpaceOnUse" color-interpolation-filters="sRGB">
<feFlood flood-opacity="0" result="BackgroundImageFix"/>
<feColorMatrix in="SourceAlpha" type="matrix" values="0 0 0 0 0 0 0 0 0 0 0 0 0 0 0 0 0 0 127 0"/>
<feOffset dy="2"/>
<feGaussianBlur stdDeviation="1"/>
<feColorMatrix type="matrix" values="0 0 0 0 0 0 0 0 0 0 0 0 0 0 0 0 0 0 0.3 0"/>
<feBlend mode="normal" in2="BackgroundImageFix" result="effect1_dropShadow"/>
<feBlend mode="normal" in="SourceGraphic" in2="effect1_dropShadow" result="shape"/>
</filter>
</defs>
</svg>
