<svg width="34" height="44" viewBox="0 0 34 44" fill="none" xmlns="http://www.w3.org/2000/svg">
<path d="M10.6 17.9954V17.3954C10.6 15.9114 11.6 14.6954 13.024 14.3364L30.4829 9.66838C30.7788 9.5892 31.0889 9.57904 31.3894 9.63868C31.6898 9.69832 31.9725 9.82617 32.2157 10.0124C32.4589 10.1986 32.6561 10.4381 32.7921 10.7126C32.9281 10.9871 32.9992 11.2891 32.9999 11.5954V13.7954" stroke="white" stroke-width="2" stroke-linecap="round" stroke-linejoin="round"/>
<path d="M33 25.7894V33.7893C33 35.1803 32.107 36.3483 30.8 36.7893L28.6 37.5893C26.01 38.4613 23.4 36.5473 23.4 33.7893C23.394 33.0809 23.6136 32.3889 24.0272 31.8136C24.4407 31.2383 25.0265 30.8095 25.7 30.5893L30.8 28.7744C32.107 28.3344 33 27.1804 33 25.7894ZM33 25.7894V1.99539C32.9992 1.84229 32.9634 1.6914 32.8952 1.55434C32.8269 1.41728 32.7281 1.29772 32.6064 1.20487C32.4847 1.11202 32.3432 1.04837 32.193 1.01881C32.0428 0.989255 31.8878 0.994586 31.74 1.03439L11.8 6.39539C11.4522 6.49361 11.1464 6.70343 10.9295 6.99254C10.7127 7.28165 10.5969 7.63401 10.6 7.99538V30.5953C10.6 31.9863 9.70699 33.1553 8.39999 33.5953L3.2 35.3953C1.812 35.8633 1 37.1173 1 38.5953C1 41.3533 3.652 43.2503 6.19999 42.3953L8.39999 41.5953C9.70699 41.1553 10.6 39.9873 10.6 38.5953V30.5953" stroke="white" stroke-width="2" stroke-linecap="round" stroke-linejoin="round"/>
</svg>
