<svg width="23" height="30" viewBox="0 0 23 30" fill="none" xmlns="http://www.w3.org/2000/svg">
<path d="M7.39612 12.3225V11.9228C7.39612 10.9341 8.06233 10.124 9.01101 9.88483L20.6424 6.77496C20.8395 6.72221 21.0461 6.71545 21.2463 6.75518C21.4464 6.79491 21.6348 6.88009 21.7968 7.00413C21.9588 7.12818 22.0902 7.28778 22.1808 7.47063C22.2713 7.65348 22.3187 7.85469 22.3192 8.05875V9.52441" stroke="white" stroke-linecap="round" stroke-linejoin="round"/>
<path d="M22.3187 17.515V22.8446C22.3187 23.7713 21.7238 24.5495 20.8531 24.8433L19.3874 25.3762C17.6619 25.9572 15.9231 24.682 15.9231 22.8446C15.9191 22.3726 16.0655 21.9116 16.3409 21.5284C16.6164 21.1451 17.0068 20.8594 17.4554 20.7128L20.8531 19.5036C21.7238 19.2105 22.3187 18.4417 22.3187 17.515ZM22.3187 17.515V1.66314C22.3183 1.56114 22.2944 1.46062 22.2489 1.36931C22.2035 1.278 22.1376 1.19834 22.0565 1.13649C21.9754 1.07463 21.8812 1.03222 21.7811 1.01253C21.6811 0.992841 21.5778 0.996393 21.4793 1.02291L8.19507 4.59447C7.96338 4.65991 7.75962 4.79969 7.61516 4.9923C7.47071 5.18491 7.39357 5.41965 7.39562 5.6604V20.7168C7.39562 21.6435 6.80069 22.4223 5.92996 22.7154L2.46566 23.9146C1.54096 24.2264 1 25.0618 1 26.0464C1 27.8839 2.76679 29.1477 4.46429 28.578L5.92996 28.0451C6.80069 27.7519 7.39562 26.9738 7.39562 26.0464V20.7168" stroke="white" stroke-linecap="round" stroke-linejoin="round"/>
</svg>
