<svg width="29" height="34" viewBox="0 0 29 34" fill="none" xmlns="http://www.w3.org/2000/svg">
<path d="M25.9526 30.5422H3.2022C3.05375 30.5422 2.94241 30.4309 2.94241 30.2824V24.233C2.94241 24.1588 2.97953 24.0845 3.05375 24.0103L6.31971 21.5237V15.6227C6.31971 15.5485 6.35682 15.4743 6.39394 15.4372L14.4104 6.7527C14.4475 6.71558 14.5217 6.67847 14.5959 6.67847C14.6702 6.67847 14.7444 6.71558 14.7815 6.7527L22.7979 15.4372C22.8351 15.4743 22.8722 15.5485 22.8722 15.6227V21.5237L26.1381 24.0103C26.2124 24.0474 26.2495 24.1588 26.2495 24.233V30.2824C26.2124 30.4309 26.101 30.5422 25.9526 30.5422ZM3.462 30.0226H25.6928V24.3814L22.4268 21.8949C22.3526 21.8206 22.3155 21.7464 22.3155 21.6351V15.7341L14.5588 7.3465L6.80218 15.7341V21.6351C6.80218 21.7464 6.76507 21.8206 6.69084 21.8949L3.42489 24.3814V30.0226H3.462Z" fill="white" stroke="white" stroke-width="0.5" stroke-miterlimit="10"/>
<path d="M14.5584 7.235C14.4099 7.235 14.2986 7.12366 14.2986 6.97521V1.2598C14.2986 1.11134 14.4099 1 14.5584 1C14.7068 1 14.8182 1.11134 14.8182 1.2598V6.97521C14.8553 7.12366 14.7068 7.235 14.5584 7.235Z" fill="white" stroke="white" stroke-width="0.5" stroke-miterlimit="10"/>
<path d="M17.0451 3.37516H12.1462C11.9977 3.37516 11.8864 3.26384 11.8864 3.11539C11.8864 2.96693 11.9977 2.85559 12.1462 2.85559H17.0451C17.1936 2.85559 17.3049 2.96693 17.3049 3.11539C17.3049 3.26384 17.1936 3.37516 17.0451 3.37516Z" fill="white" stroke="white" stroke-width="0.5" stroke-miterlimit="10"/>
<path d="M19.0494 30.5421H10.1423C9.99382 30.5421 9.88248 30.4307 9.88248 30.2823V22.4143C9.88248 19.8164 11.9979 17.6638 14.5959 17.6638C17.1938 17.6638 19.3092 19.7793 19.3092 22.4143V30.2823C19.3092 30.4307 19.1979 30.5421 19.0494 30.5421ZM10.4021 30.0225H18.7896V22.4143C18.7896 20.1133 16.8969 18.2205 14.5959 18.2205C12.2948 18.2205 10.4021 20.1133 10.4021 22.4143V30.0225Z" fill="white" stroke="white" stroke-width="0.5" stroke-miterlimit="10"/>
<path d="M19.049 30.542H14.5954C14.4469 30.542 14.3356 30.4307 14.3356 30.2822V17.9607C14.3356 17.8122 14.4469 17.7009 14.5954 17.7009C17.1933 17.7009 19.3088 20.039 19.3088 22.8967V30.2822C19.3088 30.4307 19.1974 30.542 19.049 30.542ZM14.8552 30.0224H18.7521V22.8967C18.7521 20.4101 17.0078 18.406 14.8552 18.2576V30.0224Z" fill="white" stroke="white" stroke-width="0.5" stroke-miterlimit="10"/>
<path d="M14.558 14.769C13.7044 14.769 12.9993 14.0639 12.9993 13.2103C12.9993 12.3567 13.7044 11.6516 14.558 11.6516C15.4117 11.6516 16.1168 12.3567 16.1168 13.2103C16.1168 14.0639 15.4488 14.769 14.558 14.769ZM14.558 12.2082C14.0014 12.2082 13.556 12.6536 13.556 13.2103C13.556 13.767 14.0014 14.2123 14.558 14.2123C15.1147 14.2123 15.5601 13.767 15.5601 13.2103C15.5972 12.6536 15.1147 12.2082 14.558 12.2082Z" fill="white" stroke="white" stroke-width="0.5" stroke-miterlimit="10"/>
<path d="M4.05547 18.7031C3.98125 18.7031 3.94414 18.666 3.86991 18.6289C3.75857 18.5176 3.75857 18.3691 3.8328 18.2578L6.31938 15.4372C6.43072 15.3258 6.57917 15.3258 6.69051 15.4001C6.80185 15.5114 6.80185 15.6599 6.72762 15.7712L4.24104 18.5918C4.20393 18.7031 4.1297 18.7031 4.05547 18.7031Z" fill="white" stroke="white" stroke-width="0.5" stroke-miterlimit="10"/>
<path d="M25.0987 18.7031C25.0245 18.7031 24.9503 18.666 24.9132 18.6288L22.4266 15.8082C22.3153 15.6969 22.3524 15.5113 22.4637 15.4371C22.5751 15.3258 22.7606 15.3629 22.8348 15.4742L25.3214 18.2948C25.4328 18.4062 25.3957 18.5917 25.2843 18.6659C25.2101 18.7031 25.173 18.7031 25.0987 18.7031Z" fill="white" stroke="white" stroke-width="0.5" stroke-miterlimit="10"/>
<path d="M1.27149 25.866C1.19727 25.866 1.08593 25.8289 1.04882 25.7546C0.974591 25.6433 0.97459 25.4577 1.12304 25.3835L3.05292 24.0474C3.16426 23.9732 3.34983 23.9732 3.42406 24.1216C3.49828 24.233 3.49828 24.4185 3.34983 24.4928L1.41995 25.8288C1.38284 25.8288 1.34572 25.866 1.27149 25.866Z" fill="white" stroke="white" stroke-width="0.5" stroke-miterlimit="10"/>
<path d="M27.8824 25.8658C27.8453 25.8658 27.7711 25.8658 27.734 25.8286L25.8041 24.4926C25.6928 24.4184 25.6556 24.2328 25.7299 24.1215C25.8041 24.0101 25.9897 23.973 26.101 24.0472L28.0309 25.3833C28.1422 25.4575 28.1793 25.6431 28.1051 25.7544C28.0309 25.8287 27.9567 25.8658 27.8824 25.8658Z" fill="white" stroke="white" stroke-width="0.5" stroke-miterlimit="10"/>
</svg>
