<svg width="24" height="33" viewBox="0 0 24 33" fill="none" xmlns="http://www.w3.org/2000/svg">
<path d="M14.5129 28.6104H9.49278C9.35137 28.6104 9.24531 28.5044 9.24531 28.363V17.0855H1.39701C1.25559 17.0855 1.14954 16.9794 1.14954 16.838V11.8179C1.14954 11.6765 1.25559 11.5704 1.39701 11.5704H9.24531V7.15132C9.24531 7.00991 9.35137 6.90387 9.49278 6.90387H14.5129C14.6543 6.90387 14.7603 7.00991 14.7603 7.15132V11.5351H22.6087C22.7501 11.5351 22.8561 11.6411 22.8561 11.7825V16.8026C22.8561 16.944 22.7501 17.0501 22.6087 17.0501H14.7957V28.3276C14.7957 28.5044 14.6543 28.6104 14.5129 28.6104ZM9.74025 28.0801H14.2654V16.8026C14.2654 16.6612 14.3715 16.5552 14.5129 16.5552H22.3612V12.03H14.5129C14.3715 12.03 14.2654 11.924 14.2654 11.7825V7.36345H9.74025V11.7825C9.74025 11.924 9.63419 12.03 9.49278 12.03H1.64447V16.5552H9.49278C9.63419 16.5552 9.74025 16.6612 9.74025 16.8026V28.0801Z" fill="white" stroke="white" stroke-width="0.5" stroke-miterlimit="10"/>
<path d="M7.79628 5.41903C7.69022 5.41903 7.58416 5.34833 7.54881 5.24227L6.73569 2.23729C6.70034 2.09588 6.77105 1.95446 6.91246 1.9191C7.05387 1.88375 7.19528 1.95446 7.23063 2.09587L8.04374 5.10085C8.0791 5.24226 8.00839 5.38368 7.86698 5.41903C7.83163 5.38368 7.79628 5.41903 7.79628 5.41903Z" fill="white" stroke="white" stroke-width="0.5" stroke-miterlimit="10"/>
<path d="M10.4831 4.60598C10.3417 4.60598 10.2357 4.49992 10.2357 4.35851V1.24747C10.2357 1.10606 10.3417 1 10.4831 1C10.6245 1 10.7306 1.10606 10.7306 1.24747V4.35851C10.7306 4.49992 10.6245 4.60598 10.4831 4.60598Z" fill="white" stroke="white" stroke-width="0.5" stroke-miterlimit="10"/>
<path d="M13.276 4.53518C13.2407 4.53518 13.2407 4.53518 13.2053 4.53518C13.0639 4.49983 12.9932 4.35841 13.0285 4.217L13.8417 1.21202C13.877 1.07061 14.0184 0.999901 14.1598 1.03525C14.3012 1.07061 14.3719 1.21203 14.3366 1.35344L13.5235 4.35842C13.4881 4.46448 13.3821 4.53518 13.276 4.53518Z" fill="white" stroke="white" stroke-width="0.5" stroke-miterlimit="10"/>
<path d="M15.9984 5.20691C15.963 5.20691 15.9277 5.20692 15.857 5.17156C15.7156 5.10086 15.6802 4.95945 15.7509 4.81804L17.3064 2.13124C17.3772 2.02518 17.5186 1.95446 17.66 2.02516C17.766 2.09587 17.8367 2.23728 17.766 2.37869L16.2105 5.06551C16.1752 5.17157 16.0691 5.20691 15.9984 5.20691Z" fill="white" stroke="white" stroke-width="0.5" stroke-miterlimit="10"/>
<path d="M18.4377 6.55033C18.367 6.55033 18.2963 6.51497 18.2609 6.47962C18.1549 6.37356 18.1549 6.23215 18.2609 6.12609L20.4528 3.93422C20.5589 3.82816 20.7003 3.82816 20.8063 3.93422C20.9124 4.04028 20.9124 4.18169 20.8063 4.28775L18.6145 6.47962C18.5791 6.51497 18.5084 6.55033 18.4377 6.55033Z" fill="white" stroke="white" stroke-width="0.5" stroke-miterlimit="10"/>
<path d="M20.4878 8.49476C20.3818 8.49476 20.3111 8.4594 20.2757 8.35334C20.205 8.24728 20.2404 8.07052 20.3818 7.99981L23.0686 6.44428C23.1746 6.37358 23.3514 6.40895 23.4221 6.55036C23.4928 6.65642 23.4575 6.83318 23.316 6.90389L20.6292 8.45939C20.5585 8.45939 20.5232 8.49476 20.4878 8.49476Z" fill="white" stroke="white" stroke-width="0.5" stroke-miterlimit="10"/>
<path d="M3.44818 8.88364C3.37747 8.88364 3.30677 8.84829 3.27141 8.81293L1.07954 6.62106C0.973485 6.515 0.973485 6.37359 1.07954 6.26753C1.1856 6.16147 1.32701 6.16147 1.43307 6.26753L3.62494 8.45941C3.731 8.56546 3.731 8.70688 3.62494 8.81293C3.58959 8.88364 3.51888 8.88364 3.44818 8.88364Z" fill="white" stroke="white" stroke-width="0.5" stroke-miterlimit="10"/>
<path d="M5.39247 6.86853C5.28641 6.86853 5.2157 6.83319 5.18035 6.72713L3.62483 4.04031C3.55412 3.93425 3.58948 3.75749 3.73089 3.68678C3.83695 3.61608 4.01371 3.65143 4.08442 3.79284L5.63994 6.47966C5.71064 6.58572 5.67529 6.76248 5.53388 6.83318C5.46317 6.86854 5.42782 6.86853 5.39247 6.86853Z" fill="white" stroke="white" stroke-width="0.5" stroke-miterlimit="10"/>
<path d="M20.2403 32.4285H3.7659C3.62449 32.4285 3.51843 32.3224 3.51843 32.181V30.272C3.51843 29.07 4.50831 28.0801 5.67495 28.0801H18.3312C19.5332 28.0801 20.4878 29.07 20.4878 30.272V32.181C20.5231 32.3224 20.3817 32.4285 20.2403 32.4285ZM4.01337 31.9335H19.9928V30.272C19.9928 29.3528 19.2504 28.6104 18.3312 28.6104H5.67495C4.75578 28.6104 4.01337 29.3528 4.01337 30.272V31.9335Z" fill="white" stroke="white" stroke-width="0.5" stroke-miterlimit="10"/>
<path d="M9.49286 12.0301H6.38182C6.27576 12.0301 6.20506 11.9947 6.1697 11.8887C6.13435 11.818 6.13435 11.7119 6.1697 11.6412C6.91211 10.3685 8.0434 9.34327 9.42216 8.74227C9.49286 8.70692 9.59892 8.70693 9.66962 8.77764C9.74033 8.81299 9.77568 8.91904 9.77568 8.98975V11.7826C9.74033 11.924 9.63427 12.0301 9.49286 12.0301ZM6.84141 11.5351H9.24539V9.41398C8.25552 9.90892 7.4424 10.616 6.84141 11.5351Z" fill="white" stroke="white" stroke-width="0.5" stroke-miterlimit="10"/>
<path d="M9.49307 21.2217C9.45772 21.2217 9.42237 21.2217 9.38701 21.1864C7.51332 20.4086 6.09921 18.8177 5.53356 16.8733C5.49821 16.8026 5.53356 16.6966 5.56892 16.6612C5.60427 16.5905 5.71033 16.5552 5.78103 16.5552H9.49307C9.63448 16.5552 9.74054 16.6612 9.74054 16.8026V20.9743C9.74054 21.045 9.70519 21.151 9.63448 21.1864C9.59913 21.2217 9.52842 21.2217 9.49307 21.2217ZM6.13456 17.0855C6.66485 18.6056 7.79614 19.8783 9.2456 20.5854V17.0855H6.13456Z" fill="white" stroke="white" stroke-width="0.5" stroke-miterlimit="10"/>
<path d="M14.513 21.2217C14.4776 21.2217 14.4069 21.2217 14.3716 21.1864C14.3009 21.151 14.2655 21.045 14.2655 20.9743V16.8026C14.2655 16.6612 14.3716 16.5552 14.513 16.5552H18.225C18.2957 16.5552 18.3664 16.5905 18.4371 16.6612C18.4725 16.7319 18.5078 16.8026 18.4725 16.8733C17.9068 18.8177 16.4927 20.4086 14.619 21.1864C14.5837 21.2217 14.5483 21.2217 14.513 21.2217ZM14.7958 17.0855V20.5854C16.2453 19.8783 17.3412 18.6056 17.9068 17.0855H14.7958Z" fill="white" stroke="white" stroke-width="0.5" stroke-miterlimit="10"/>
<path d="M17.6598 12.03H14.5487C14.4073 12.03 14.3013 11.9239 14.3013 11.7825V8.98965C14.3013 8.91895 14.3366 8.8129 14.4073 8.77755C14.478 8.74219 14.5841 8.70683 14.6548 8.74218C15.9982 9.30782 17.1648 10.3331 17.8719 11.6058C17.9072 11.6411 17.9072 11.7118 17.9072 11.7472C17.9072 11.9239 17.8012 12.03 17.6598 12.03ZM14.7962 11.5351H17.2002C16.5992 10.6512 15.7507 9.90883 14.7962 9.41389V11.5351Z" fill="white" stroke="white" stroke-width="0.5" stroke-miterlimit="10"/>
</svg>
