<svg width="9" height="13" viewBox="0 0 9 13" fill="none" xmlns="http://www.w3.org/2000/svg">
<path d="M7.66479 3.25586C7.22113 4.50797 6.41268 5.25727 5.26901 5.47417V7.21924C5.26901 7.47558 5.14085 7.71219 4.94366 7.85022C5.14085 7.98825 5.26901 8.21501 5.26901 8.48121C5.26901 8.73755 5.14085 8.97417 4.94366 9.11219C5.14085 9.25022 5.26901 9.47698 5.26901 9.74318V10.5911C6.35352 10.7981 7.15211 11.439 7.15211 12.1882C7.15211 12.2671 7.09296 12.3263 7.01408 12.3263H1.99577C1.9169 12.3263 1.85775 12.2671 1.85775 12.1882C1.85775 11.439 2.64648 10.7981 3.74084 10.5911V9.74318C3.74084 9.48684 3.86901 9.25022 4.0662 9.11219C3.86901 8.97417 3.74084 8.74741 3.74084 8.48121C3.74084 8.22487 3.86901 7.98825 4.0662 7.85022C3.86901 7.71219 3.74084 7.48543 3.74084 7.21924V5.47417C2.59718 5.25727 1.79859 4.50797 1.34507 3.25586C1.16761 2.7629 1.06901 1.64882 1 1.12628H8C7.94085 1.64882 7.83239 2.7629 7.66479 3.25586Z" stroke="white" stroke-width="0.5" stroke-miterlimit="10"/>
</svg>
