<svg width="16" height="35" viewBox="0 0 16 35" fill="none" xmlns="http://www.w3.org/2000/svg">
<path d="M14.547 15.8896C13.6452 18.4347 12.0019 19.9577 9.67731 20.3986V23.9456C9.67731 24.4667 9.41679 24.9476 9.01599 25.2282C9.41679 25.5087 9.67731 25.9697 9.67731 26.5107C9.67731 27.0318 9.41679 27.5127 9.01599 27.7933C9.41679 28.0739 9.67731 28.5348 9.67731 29.0759V30.7993C11.8817 31.2201 13.5049 32.5227 13.5049 34.0457C13.5049 34.2061 13.3847 34.3263 13.2244 34.3263H3.02406C2.86374 34.3263 2.7435 34.2061 2.7435 34.0457C2.7435 32.5227 4.34669 31.2201 6.57112 30.7993V29.0759C6.57112 28.5548 6.83164 28.0739 7.23244 27.7933C6.83164 27.5127 6.57112 27.0518 6.57112 26.5107C6.57112 25.9897 6.83164 25.5087 7.23244 25.2282C6.83164 24.9476 6.57112 24.4867 6.57112 23.9456V20.3986C4.24649 19.9577 2.62326 18.4347 1.70143 15.8896C1.34071 14.8876 1.14031 12.6231 1.00003 11.561H15.2284C15.1081 12.6231 14.8877 14.8876 14.547 15.8896Z" stroke="white" stroke-miterlimit="10"/>
<path d="M8.11383 1C10.5387 1 12.5026 2.96391 12.5026 5.38874C12.5026 7.81357 10.5387 9.75744 8.11383 9.75744C5.689 9.75744 3.72509 7.79353 3.72509 5.3687C3.72509 2.94387 5.689 1 8.11383 1Z" stroke="white" stroke-miterlimit="10"/>
</svg>
