<svg width="309" height="303" viewBox="0 0 309 303" fill="none" xmlns="http://www.w3.org/2000/svg">
<path d="M304.454 126.301C298.366 86.3965 293.477 58.8174 271.478 43.7154C234.379 18.232 192.941 59.606 140.384 31.8433C114.5 18.1672 113.529 2.30893 91.6169 0.213225C52.8446 -3.51368 21.0885 42.7972 18.336 46.7725C1.61597 70.8948 -3.96456 100.321 2.81411 128.376C7.21809 146.6 10.1865 165.45 9.3769 184.171C7.95209 216.752 8.77243 247.172 40.3667 266.606C68.5823 283.955 104.084 299.262 137.956 301.941C160.98 303.767 186.788 300.818 208.981 294.822C322.048 264.24 312.83 181.168 304.454 126.301Z" fill="#F4F7FA"/>
<path d="M170.057 220.694L191.937 232.685C191.937 232.685 202.202 223.708 201.176 212.852C199.093 190.685 218.641 190.404 226.802 189.053C239.118 187.022 249.091 179.86 238.729 168.68C228.367 157.499 251.876 144.817 272.234 144.417C292.16 144.028 302.964 108.336 259.745 105.225C233.936 103.367 225.182 127.035 217.929 137.935C210.664 148.835 193.146 140.452 191.311 157.628C189.746 172.298 194.43 186.18 182.719 190.436C171.039 194.703 165.254 203.507 170.057 220.694Z" fill="url(#paint0_linear)"/>
<path d="M170.057 220.694L191.937 232.685C191.937 232.685 202.202 223.708 201.176 212.852C199.093 190.685 218.641 190.404 226.802 189.053C239.118 187.022 247.699 180.39 240.424 169.036C232.199 156.203 251.865 144.817 272.234 144.417C292.16 144.028 302.964 108.336 259.745 105.225C233.936 103.367 225.182 127.035 217.929 137.935C210.664 148.835 193.146 140.452 191.311 157.628C189.746 172.298 194.43 186.18 182.719 190.436C171.039 194.703 165.254 203.507 170.057 220.694Z" fill="url(#paint1_linear)"/>
<g opacity="0.5">
<path opacity="0.5" d="M178.423 227.921L178.919 228.083C179.016 227.77 189.4 196.788 208.948 169.177C226.953 143.737 256.647 116.039 295.862 128.559L296.024 128.062C278.57 122.488 261.515 124.292 245.335 133.398C232.414 140.679 220.023 152.616 208.506 168.885C188.925 196.561 178.52 227.608 178.423 227.921Z" fill="#BEB8F2"/>
<path opacity="0.5" d="M238.74 137.493L239.225 137.687C245.68 121.375 263.361 102.881 263.544 102.697L263.167 102.33C262.994 102.525 245.238 121.094 238.74 137.493Z" fill="#BEB8F2"/>
<path opacity="0.5" d="M249.685 131.724C270.539 130.557 282.52 143.164 282.639 143.294L283.028 142.937C282.909 142.808 270.766 130.017 249.663 131.195L249.685 131.724Z" fill="#BEB8F2"/>
<path opacity="0.5" d="M197.15 187.93C214.248 168.972 246.781 179.861 247.094 179.99L247.332 179.526C247.04 179.364 214.011 168.453 196.762 187.574L197.15 187.93Z" fill="#BEB8F2"/>
<path opacity="0.5" d="M202.062 178.618L202.569 178.769C207.318 163.181 197.42 145.238 197.323 145.065L196.859 145.324C196.967 145.497 206.746 163.246 202.062 178.618Z" fill="#BEB8F2"/>
<path opacity="0.5" d="M180.657 223.244C185.968 215.131 201.738 215.044 201.9 215.044V214.515C201.241 214.515 185.676 214.591 180.214 222.952L180.657 223.244Z" fill="#BEB8F2"/>
<path opacity="0.5" d="M183.021 215.876L183.517 216.049C186.011 208.801 180.042 195.924 178.077 191.689C177.797 191.095 177.559 190.577 177.537 190.479L177.019 190.598C177.052 190.739 177.214 191.084 177.591 191.916C179.545 196.097 185.45 208.822 183.021 215.876Z" fill="#BEB8F2"/>
</g>
<path d="M220.26 137.104C224.006 142.721 221.977 148.944 219.796 153.221C219.149 153.297 218.803 153.502 218.166 153.718C212.467 155.663 209.617 155.274 203.691 156.3C202.418 156.516 198.478 156.03 196.88 155.728L193.912 155.112C193.912 155.112 186.95 141.23 194.355 136.412C201.77 131.595 196.826 117.573 195.121 109.816C194.074 105.052 195.121 102.546 195.013 100.731C193.912 81.5568 187.522 76.5876 190.987 70.1276C194.819 62.9979 203.702 67.0165 208.279 59.487C213.449 50.9854 205.58 40.1504 212.273 33.1935C213.417 32.0052 214.626 30.8061 216.655 29.9419C221.664 27.8138 226.24 30.3524 229.435 25.6424C235.879 16.1901 247.785 11.7935 256.313 19.9279C264.732 27.965 258.245 46.3943 238.222 62.7602C225.312 76.0258 225.549 79.5691 227.827 88.0059C229.424 93.9258 237.66 108.898 229.716 116.06C221.793 123.233 215.986 130.676 220.26 137.104Z" fill="url(#paint2_linear)"/>
<g opacity="0.5">
<path opacity="0.5" d="M206.843 156.192H206.401C206.401 153.74 206.444 151.277 206.509 148.857C207.016 130.936 209.304 113.727 213.32 97.7069C216.72 84.128 221.404 71.2081 227.233 59.3144C231.929 49.7432 237.38 40.7771 243.457 32.6751C247.731 26.9713 252.254 21.7537 256.917 17.1517C257.726 16.3523 258.612 15.5746 259.453 14.8184C260.587 13.8137 261.753 12.7767 262.778 11.6748L263.113 11.9449C262.076 13.0575 260.9 14.1054 259.756 15.11C258.914 15.8554 258.039 16.6332 257.23 17.4218C252.588 22.0129 248.077 27.2198 243.813 32.902C237.757 40.9931 232.306 49.9377 227.633 59.4872C221.815 71.3593 217.141 84.2468 213.741 97.8041C209.736 113.803 207.448 130.99 206.94 148.879C206.876 151.277 206.843 153.74 206.843 156.192Z" fill="#FCFDFE"/>
<path opacity="0.5" d="M221.189 74.2222L220.768 74.0926C226.683 57.3918 215.748 28.8188 215.641 28.5272L216.061 28.3867C216.169 28.6784 227.147 57.3809 221.189 74.2222Z" fill="#FCFDFE"/>
<path opacity="0.5" d="M209.078 122.337L208.646 122.25C211.226 110.443 232.997 99.2623 233.213 99.1543L233.429 99.5108C233.213 99.6296 211.625 110.724 209.078 122.337Z" fill="#FCFDFE"/>
<path opacity="0.5" d="M208.247 129.164L207.804 129.153C207.987 121.278 203.702 110.411 195.736 98.5388C195.337 97.9446 195.337 97.9446 195.337 97.869L195.779 97.8798H195.553L195.758 97.8042C195.779 97.8474 195.931 98.0743 196.103 98.3335C204.123 110.26 208.43 121.203 208.247 129.164Z" fill="#FCFDFE"/>
<path opacity="0.5" d="M206.919 151.72L206.498 151.59C209.369 143.359 222.322 138.876 222.452 138.833L222.603 139.221C222.484 139.265 209.725 143.683 206.919 151.72Z" fill="#FCFDFE"/>
<path opacity="0.5" d="M206.185 156.29C203.627 149.689 198.953 143.521 191.883 137.461L192.185 137.158C199.309 143.273 204.026 149.484 206.606 156.16L206.185 156.29Z" fill="#FCFDFE"/>
<path opacity="0.5" d="M240.327 37.7196L239.916 37.5683C243.759 28.4509 245.518 18.0372 246.091 14.6128C246.231 13.781 246.285 13.4893 246.317 13.3921L246.738 13.5325C246.717 13.6081 246.63 14.0835 246.533 14.6776C245.95 18.1128 244.191 28.5698 240.327 37.7196Z" fill="#FCFDFE"/>
<path opacity="0.5" d="M231.702 51.6554L231.357 51.3961C237.531 44.2448 257.262 42.3759 258.104 42.3003L258.148 42.7108C257.942 42.7324 237.758 44.6337 231.702 51.6554Z" fill="#FCFDFE"/>
</g>
<path d="M207.016 186.634C205.483 186.58 200.583 200.71 195.283 191.095C193.955 188.697 191.926 180.163 180.679 180.768C178.498 180.887 176.307 181.006 174.127 181.124C171.817 176.404 170.511 171.521 176.944 169.047C186.939 165.212 185.406 148.079 181.952 142.278C177.678 135.095 168.082 118.188 183.442 112.031C196.222 106.9 205.591 106.057 204.846 89.9288C204.102 73.8005 212.327 62.9546 227.827 62.5225C244.148 62.0688 255.309 40.4852 269.309 46.1133C293.692 55.9113 276.411 93.1588 249.329 105.938C222.257 118.718 239.398 126.841 241.525 139.912C241.654 141.133 241.762 143.045 241.46 145.314C239.592 159.325 225.495 162.976 216.267 175.14C203.659 191.733 209.596 186.72 207.016 186.634Z" fill="url(#paint3_linear)"/>
<g opacity="0.5">
<path opacity="0.5" d="M193.934 178.078L193.167 178.003C199.007 125.2 231.972 75.421 279.174 48.0796L279.574 48.6953C232.566 75.9179 199.752 125.491 193.934 178.078Z" fill="#FCFDFE"/>
<path opacity="0.5" d="M199.73 149.559L198.964 149.624C196.87 128.84 176.415 114.267 176.21 114.127L176.663 113.543C176.868 113.684 197.604 128.44 199.73 149.559Z" fill="#FCFDFE"/>
<path opacity="0.5" d="M195.283 168.388L194.57 168.107C203.292 148.641 243.554 142.505 243.964 142.451L244.083 143.164C243.694 143.229 203.853 149.3 195.283 168.388Z" fill="#FCFDFE"/>
<path opacity="0.5" d="M222.398 102.179L221.664 101.952C227.169 86.0075 214.194 63.3328 214.065 63.1059L214.734 62.7603C214.874 62.9871 228 85.9427 222.398 102.179Z" fill="#FCFDFE"/>
<path opacity="0.5" d="M244.374 75.6583L243.91 75.075C260.08 63.6134 287.237 66.8218 287.518 66.8542L287.421 67.578C287.14 67.5348 260.296 64.3696 244.374 75.6583Z" fill="#FCFDFE"/>
</g>
<path d="M83.6616 65.3203L61.3071 59.2925V231.486C61.3071 231.486 75.8035 239.869 83.6616 240.474V65.3203Z" fill="url(#paint4_linear)"/>
<path d="M205.505 53.8481L82.7765 65.4177V239.416C82.7765 240.064 83.327 240.539 83.9639 240.442L205.505 221.958V53.8481Z" fill="url(#paint5_linear)"/>
<path opacity="0.64" d="M199.611 216.654L89.1558 233.215V71.2725L199.622 60.6211V216.654H199.611ZM90.5591 231.573L198.295 215.466V62.1227L90.5591 72.5688V231.573Z" fill="white"/>
<path d="M184.208 103.735L155.28 106.651V76.3608L140.05 77.6463V108.185L109.74 111.232V125.815L140.05 122.531V217.94L155.28 215.542V120.889L184.208 117.756V103.735Z" fill="#EFEFEF"/>
<g opacity="0.3">
<path opacity="0.3" d="M168.892 205.301C162.448 189.561 170.856 182.864 165.621 164.11C155.021 126.118 112.331 125.329 103.922 91.4628C102.325 85.0352 101.58 75.7882 105.455 63.2896L82.7765 65.4285V239.426C82.7765 240.074 83.327 240.55 83.9639 240.452L185.083 225.08C178.067 220.057 172.303 213.597 168.892 205.301Z" fill="white"/>
</g>
<path d="M205.419 53.5024C205.645 53.578 205.613 53.9345 205.365 53.9561L85.3779 65.677C81.2869 66.0767 77.1528 65.5905 73.2453 64.2402L62.3002 60.4593C60.789 59.9408 61.0696 57.7046 62.6672 57.5642L184.77 46.74C184.996 46.7184 185.223 46.7508 185.45 46.8264L186.594 47.2261C187.004 47.3665 187.285 47.777 187.285 48.2415V50.4129L198.921 52.5734L201.965 52.3141C201.997 52.3141 202.029 52.3141 202.051 52.3249L205.419 53.5024Z" fill="url(#paint6_linear)"/>
<path d="M187.295 48.3818L198.726 52.5192L80.6932 63.2894C80.3047 63.3218 79.9161 63.2786 79.5491 63.1706L68.9385 59.8758C68.701 59.8002 68.7334 59.4437 68.9925 59.4221L187.295 48.3818Z" fill="white"/>
<path d="M95.017 124.53C95.017 124.53 96.4958 122.758 99.2698 122.671C102.044 122.585 105.822 120.943 107.452 120.792C107.84 120.759 108.035 120.641 108.067 120.5C108.132 120.208 106.329 119.776 104.732 119.722C101.893 119.625 100.241 120.716 99.8635 120.154C99.4318 119.528 101.267 117.821 100.932 117.443C100.673 117.151 99.4318 118.102 98.0933 118.675C97.1434 119.085 93.4518 123.514 93.4518 123.514L95.017 124.53Z" fill="url(#paint7_linear)"/>
<path d="M52.7583 121.581C52.6179 119.571 52.1862 113.446 55.4136 111.61C58.7382 109.719 64.0489 113.479 66.2077 115.002C75.361 121.483 75.5877 129.337 80.6393 130.201C82.9061 130.59 86.5221 129.618 91.9515 122.499C92.9769 123.179 93.9916 123.86 95.017 124.541C94.8443 132.524 90.721 139.697 84.1798 142.862C73.0943 148.22 62.052 138.724 60.7243 137.547C60.0011 136.877 53.4059 130.849 52.7583 121.581Z" fill="url(#paint8_linear)"/>
<path d="M57.1298 261.734C57.1298 261.734 56.6657 264.553 56.7304 265.558C56.7844 266.563 67.9239 267.07 68.0318 266.325C68.1398 265.58 66.1968 264.381 64.8152 263.959C63.4443 263.538 59.4182 262.414 59.4182 262.414L57.1298 261.734Z" fill="url(#paint9_linear)"/>
<path d="M59.8284 258.925L59.4722 262.436C59.4722 262.436 58.1769 263.29 57.0435 262.631L56.4714 258.817L59.8284 258.925Z" fill="url(#paint10_linear)"/>
<path d="M37.2688 266.314C37.2688 266.314 36.8047 269.133 36.8694 270.138C36.9234 271.143 48.0629 271.651 48.1708 270.905C48.2787 270.149 46.3358 268.961 44.9542 268.539C43.5833 268.118 39.5571 266.995 39.5571 266.995L37.2688 266.314Z" fill="url(#paint11_linear)"/>
<path d="M39.9673 263.495L39.6111 267.006C39.6111 267.006 38.3158 267.859 37.1824 267.2L36.6103 263.387L39.9673 263.495Z" fill="url(#paint12_linear)"/>
<path d="M57.8099 167.352C59.0943 169.966 60.3788 172.569 61.6741 175.183C62.7104 190.08 63.2285 206.284 62.8939 223.612C62.6456 236.499 61.9548 248.717 60.9725 260.178C59.2239 260.103 57.486 260.016 55.7374 259.941C53.2116 254.928 50.2324 247.334 49.9626 237.968C49.6819 228.192 52.6395 226.896 52.4452 217.54C52.1969 205.409 47.1237 202.168 44.4144 187.585C43.3782 182 42.6766 174.719 43.5077 165.872C48.2679 166.358 53.0389 166.855 57.8099 167.352Z" fill="url(#paint13_linear)"/>
<path opacity="0.3" d="M43.5077 165.86C46.0875 166.13 48.6565 166.4 51.2363 166.671C55.8669 174.74 57.1622 183.145 56.3527 186.861C55.1977 192.122 52.1538 193.807 52.3265 199.078C52.4884 204.307 55.5647 205.657 57.5184 211.815C58.8677 216.082 58.5115 219.992 57.7451 227.662C56.2016 243.099 52.4776 247.82 55.5971 252.886C56.4822 254.323 58.0797 256.041 61.21 257.348C61.1344 258.298 61.0589 259.249 60.9725 260.178C59.2239 260.102 57.4861 260.016 55.7374 259.94C53.2116 254.928 50.2324 247.334 49.9626 237.968C49.6819 228.191 52.6395 226.895 52.4452 217.529C52.197 205.398 47.1237 202.157 44.4144 187.574C43.3782 181.989 42.6766 174.697 43.5077 165.86Z" fill="url(#paint14_linear)"/>
<path d="M50.8909 172.05C48.473 185.229 46.3466 199.338 44.6735 214.299C42.6658 232.361 41.5864 249.397 41.1654 265.212C39.2549 265.266 37.3335 265.32 35.423 265.374C27.8779 250.434 27.4138 240.301 28.504 233.712C28.925 231.173 30.0583 226.182 30.3174 218.739C30.5009 213.543 30.1663 209.6 29.7561 204.847C28.8494 194.433 27.7484 192.165 27.5973 184.192C27.4462 176.717 27.4138 172.936 29.551 170.732C35.1639 164.921 49.7791 171.532 50.8909 172.05Z" fill="url(#paint15_linear)"/>
<path d="M63.1314 177.862C64.9664 174.816 62.6564 171.878 62.1383 166.109C61.5446 159.563 64.0596 158.483 66.5531 147.637C68.2046 140.421 69.8021 133.507 67.9023 125.405C66.9956 121.516 65.4521 114.937 60.0011 111.75C57.1946 110.108 53.3519 110.27 45.7961 110.67C36.4484 111.156 31.7746 111.405 28.2881 113.241C27.7808 113.511 17.1702 119.28 16.4362 128.7C15.6915 138.282 26.1185 139.567 27.511 152.336C28.137 158.072 27.0252 166.887 26.302 172.612C25.6112 178.1 25.1363 179.515 26.2157 181.179C28.8278 185.187 36.8154 184.042 52.8014 181.762C59.0728 180.844 61.7713 180.131 63.1314 177.862Z" fill="url(#paint16_linear)"/>
<path opacity="0.4" d="M38.8123 150.272C38.1323 152.757 35.7036 154.626 34.009 160.675C33.642 161.982 31.0406 171.294 34.4191 173.584C36.3729 174.913 38.1215 172.396 42.8493 172.072C51.0528 171.499 54.9495 178.402 60.3141 176.523C61.2424 176.199 62.4729 175.496 63.6926 173.898C63.9409 175.345 63.8977 176.598 63.1314 177.862C61.7605 180.131 59.062 180.854 52.7906 181.751C36.8046 184.03 28.817 185.176 26.2049 181.168C25.1255 179.504 25.6004 178.1 26.2912 172.601C27.0144 166.876 28.1262 158.061 27.5002 152.325C26.1077 139.545 15.6807 138.26 16.4254 128.689C16.6197 126.128 17.5696 123.849 18.8217 121.861C32.0552 127.209 40.9388 142.44 38.8123 150.272Z" fill="url(#paint17_linear)"/>
<path d="M45.3104 101.218C45.3104 101.218 45.1484 104.707 44.069 107.321C43.0868 109.676 37.9488 111.167 36.9126 111.696C35.8655 112.226 38.8663 113.76 41.867 114.062C44.8786 114.365 53.4599 113.684 55.0142 112.539C56.5578 111.394 53.7729 111.48 51.6249 110.692C49.4769 109.903 48.2355 105.701 48.6133 103.8C48.9911 101.888 45.3104 101.218 45.3104 101.218Z" fill="url(#paint18_linear)"/>
<path d="M50.0597 99.9537C51.6248 98.4197 51.8407 98.2361 52.0026 97.7067C52.6827 95.5786 51.0312 92.6619 48.8724 91.9489C48.7644 91.9165 47.3072 91.452 46.7567 92.0786C46.2818 92.6187 46.9834 93.3533 46.6488 94.3795C46.3358 95.341 45.5046 95.4166 43.9503 96.6805C42.6766 97.7283 41.8778 98.3765 41.6943 99.2839C41.3165 101.164 43.5941 103.886 45.6018 103.81C46.3358 103.789 46.5408 103.421 50.0597 99.9537Z" fill="url(#paint19_linear)"/>
<path d="M45.8069 104.113C45.8069 104.113 47.4692 105.993 49.995 105.366C52.2617 104.815 51.6788 99.6082 50.0274 98.7872C49.4769 98.5063 48.473 98.5279 47.7174 98.8952C47.2749 99.1113 47.1453 99.3381 46.4114 99.673C45.7313 99.9863 45.5154 99.9431 45.3319 100.159C45.1053 100.429 45.0081 101.023 45.7205 102.449C45.2024 102.082 44.6519 102.006 44.3065 102.244C44.2525 102.287 44.1122 102.417 44.0583 102.601C43.8424 103.238 44.5116 103.886 45.8069 104.113Z" fill="url(#paint20_linear)"/>
<path d="M46.7999 165.601L56.7521 140.939C57.4213 139.275 56.5362 137.385 54.8307 136.834L35.1424 130.536C33.9982 130.277 32.8432 130.893 32.4222 131.984L22.2327 157.975C21.7253 159.271 22.4377 160.719 23.7762 161.107L43.9611 166.973C45.1161 167.308 46.3358 166.714 46.7999 165.601Z" fill="#26264F"/>
<path d="M41.2479 138.661L34.9848 158.635L38.579 159.764L44.8421 139.789L41.2479 138.661Z" fill="white"/>
<path d="M34.9039 141.709L33.8763 144.986L47.6146 149.301L48.6423 146.023L34.9039 141.709Z" fill="white"/>
<path d="M45.537 151.406C45.537 151.406 47.5339 150.078 47.5339 148.749C47.5339 147.42 48.8616 145.422 49.5308 145.422C50.2 145.422 50.2 146.092 49.5308 147.42C48.8616 148.749 52.1861 148.09 53.5138 146.751C54.8415 145.422 56.1691 145.422 55.5107 146.081C54.4637 147.129 54.183 148.079 54.183 148.079C54.183 148.079 52.8554 153.394 47.0374 153.07L45.537 151.406Z" fill="url(#paint21_linear)"/>
<path d="M31.5803 113.522C27.3274 111.62 20.225 119.442 18.962 120.835C12.2697 128.202 2.77096 144.903 10.3268 154.734C16.6305 162.944 33.5664 164.748 47.5231 154.064C46.8539 152.735 46.1955 151.407 45.5262 150.078C44.0798 150.607 34.5487 153.902 27.5973 148.749C26.1185 147.658 25.4601 145.778 25.2226 143.229C24.78 138.487 30.3606 137.233 33.5772 130.136C36.4268 123.849 35.2503 115.153 31.5803 113.522Z" fill="url(#paint22_linear)"/>
<path d="M181.607 265.525C181.445 265.525 181.316 265.417 181.294 265.266L175.638 209.125C175.627 208.963 175.746 208.822 175.919 208.801C176.091 208.779 176.242 208.887 176.253 209.038L181.294 259V207.526C181.294 207.364 181.434 207.234 181.607 207.223C181.78 207.213 181.92 207.331 181.92 207.493V265.233C181.92 265.385 181.79 265.514 181.618 265.525H181.607Z" fill="#B7C0CE"/>
<path opacity="0.81" d="M248.12 210.151L182.632 207.353L72.4897 218.328L127.82 221.958L248.12 210.151Z" fill="#F4F7FA"/>
<path d="M127.82 221.958L248.12 210.151V213.003L127.82 224.572L72.4897 220.824V218.328L127.82 221.958Z" fill="#B7C0CE"/>
<path d="M128.209 285.229H128.198C128.047 285.218 127.917 285.1 127.917 284.948V223.935C127.917 223.784 128.047 223.654 128.209 223.643C128.371 223.633 128.5 223.752 128.5 223.903V277.851L132.926 223.665C132.937 223.514 133.077 223.395 133.239 223.395C133.401 223.395 133.519 223.525 133.509 223.676L128.5 284.959C128.489 285.121 128.36 285.229 128.209 285.229Z" fill="#B7C0CE"/>
<path d="M73.0618 274.848C72.9107 274.848 72.792 274.729 72.792 274.589V220.673C72.792 220.522 72.9107 220.403 73.0618 220.392C73.213 220.381 73.3317 220.5 73.3317 220.64V267.815L77.0449 220.424C77.0556 220.273 77.1852 220.165 77.3363 220.165C77.4874 220.165 77.5954 220.295 77.5846 220.435L73.3317 274.599C73.3209 274.74 73.2022 274.848 73.0618 274.848Z" fill="#B7C0CE"/>
<path d="M247.472 273.389C247.289 273.389 247.149 273.27 247.127 273.119L241.298 211.901C241.287 211.739 241.428 211.587 241.611 211.555C241.805 211.533 241.967 211.641 241.978 211.814L247.116 265.827V213.067C247.116 212.905 247.267 212.754 247.462 212.743C247.656 212.732 247.807 212.862 247.807 213.024V273.087C247.807 273.249 247.656 273.378 247.472 273.389C247.483 273.389 247.472 273.389 247.472 273.389Z" fill="#B7C0CE"/>
<path d="M236.829 194.358C236.829 194.217 236.754 194.077 236.657 193.98C236.549 193.893 236.408 193.861 236.29 193.893L226.748 196.626L213.568 194.876C213.363 194.844 213.158 194.919 213.039 195.071C212.91 195.222 212.877 195.416 212.942 195.622L218.145 211.674C218.22 211.901 218.447 212.063 218.695 212.063H231.076L237.045 208.801C237.207 208.714 237.315 208.52 237.304 208.325L236.829 194.358Z" fill="#26264F"/>
<path d="M236.549 207.958C236.516 208.001 236.473 208.034 236.419 208.066L230.234 211.404L219.699 211.361C219.451 211.361 219.235 211.21 219.159 210.983L214.281 196.723C214.216 196.529 214.248 196.324 214.378 196.172C214.496 196.021 214.702 195.945 214.907 195.978L226.802 197.555L235.566 195.416C235.685 195.384 235.826 195.416 235.923 195.503C236.031 195.589 236.085 195.719 236.095 195.87L236.689 207.58C236.689 207.72 236.635 207.861 236.549 207.958Z" fill="white"/>
<path opacity="0.2" d="M236.549 207.958L230.234 211.393L226.791 197.544L235.556 195.405C235.674 195.373 235.815 195.405 235.912 195.492C236.02 195.578 236.074 195.708 236.085 195.859L236.678 207.569C236.689 207.72 236.635 207.861 236.549 207.958Z" fill="#B7C0CE"/>
<path d="M220.865 260.686C220.865 260.686 215.846 261.032 215.77 261.366C215.695 261.691 219.181 262.965 220.401 263.008C221.621 263.052 222.614 262.695 222.506 262.177C222.398 261.658 221.966 260.362 221.966 260.362L220.865 260.686Z" fill="url(#paint23_linear)"/>
<path d="M220.627 258.46L220.541 260.837C220.541 260.837 221.307 261.269 221.912 261.021L222.581 258.514L220.627 258.46Z" fill="url(#paint24_linear)"/>
<path d="M206.822 259.735C206.822 259.735 201.803 260.081 201.727 260.416C201.651 260.74 205.138 262.015 206.358 262.058C207.577 262.101 208.57 261.745 208.463 261.226C208.355 260.707 207.923 259.411 207.923 259.411L206.822 259.735Z" fill="url(#paint25_linear)"/>
<path d="M206.584 257.499L206.498 259.876C206.498 259.876 207.264 260.308 207.869 260.059L208.538 257.553L206.584 257.499Z" fill="url(#paint26_linear)"/>
<path d="M220.088 258.796C221.027 258.904 221.966 259.001 222.905 259.109C224.168 257.705 226.068 255.253 227.072 251.806C229.025 245.163 226.197 240.366 228.011 239.178C230.58 237.493 236.139 247.205 245.054 246.956C248.714 246.859 253.495 245.055 255.33 241.155C255.611 240.561 256.971 237.471 255.643 234.576C254.273 231.584 247.483 230.288 233.947 227.803C228.14 226.734 225.204 226.204 224.028 226.766C215.684 230.752 219.17 253.319 220.088 258.796Z" fill="url(#paint27_linear)"/>
<path d="M205.764 258.828C206.735 259.001 207.707 259.163 208.678 259.335C209.855 257.596 211.647 254.874 213.633 251.417C217.789 244.212 217.713 242.753 219.634 241.824C223.704 239.858 226.78 245.162 236.84 246.621C240.132 247.096 247.44 248.166 250.397 244.223C251.596 242.624 252.286 239.934 251.337 237.644C249.631 233.55 244.04 234.036 225.582 230.438C218.382 229.034 217.4 228.786 215.662 229.401C205.926 232.891 205.742 254.096 205.764 258.828Z" fill="url(#paint28_linear)"/>
<path d="M215.554 209.017C215.382 208.866 214.486 204.501 216.677 203.68C218.868 202.87 218.166 204.815 217.907 206.143C217.638 207.483 217.044 210.389 215.554 209.017Z" fill="url(#paint29_linear)"/>
<path d="M239.15 204.328C239.15 204.328 238.103 201.131 236.311 201.455C234.519 201.79 236.613 203.334 237.186 204.62C237.768 205.905 239.56 205.3 239.15 204.328Z" fill="url(#paint30_linear)"/>
<path d="M238.664 194.379L236.441 199.457C236.441 199.457 239.733 201.109 242.744 199.457V194.379H238.664Z" fill="url(#paint31_linear)"/>
<path d="M233.051 212.528C233.051 212.528 227.913 221.548 218.231 221.116C208.549 220.684 215.403 208.541 215.403 208.541H217.216C217.216 208.541 216.547 213.133 218.706 212.992C221.221 212.819 226.165 201.066 230.979 200.191C235.782 199.305 233.051 212.528 233.051 212.528Z" fill="url(#paint32_linear)"/>
<path d="M253.927 226.139C252.837 222.866 251.779 220.522 251.779 220.338V220.327C251.401 218.242 251.131 215.779 250.862 212.744C250.203 205.376 251.25 199.975 248.314 198.365C247.613 197.976 246.76 197.771 245.756 197.804C241.773 197.922 238.772 197.804 238.351 197.868C233.213 198.733 229.317 199.672 227.611 202.6C225.819 205.69 228.809 208.142 229.738 215.012C230.396 219.884 229.587 223.352 228.712 226.744C228.712 226.744 224.082 223.622 224.643 229.174C225.204 234.716 222.851 237.687 222.581 242.127C222.452 244.255 225.258 245.821 229.835 246.848C234.8 247.971 241.827 248.479 249.437 248.436C259.756 248.381 256.658 234.36 253.927 226.139Z" fill="url(#paint33_linear)"/>
<path d="M236.775 183.771C236.775 183.771 234.12 188.762 233.958 192.262C233.785 195.762 237.736 195.503 237.736 195.503L242.636 195.33C242.626 195.33 244.396 184.419 236.775 183.771Z" fill="url(#paint34_linear)"/>
<path d="M238.081 192.532C237.25 195.341 238.589 198.063 239.733 200.386C241.957 204.912 247.764 210.54 253.571 209.892C260.058 209.168 260.803 201.282 266.794 201.001C271.813 200.774 272.849 206.251 279.401 207.623C287.691 209.352 295.236 202.47 296.132 201.628C301.853 196.259 305.566 186.99 302.533 178.888C302.22 178.057 299.187 170.203 293.444 169.382C288.598 168.68 286.795 173.703 279.185 174.34C274.209 174.762 273.335 172.752 269.892 173.93C264.408 175.799 265.013 181.427 260.598 182.615C256.021 183.847 253.992 178.165 245.519 177.441C244.353 177.344 237.52 176.76 235.599 180.336C234.832 181.773 234.735 184.106 235.696 185.802C236.689 187.552 238.297 187.714 238.697 189.443C238.977 190.631 238.405 191.43 238.081 192.532Z" fill="url(#paint35_linear)"/>
<path d="M241.104 283.231C250.392 283.231 257.921 280.155 257.921 276.36C257.921 272.566 250.392 269.49 241.104 269.49C231.816 269.49 224.287 272.566 224.287 276.36C224.287 280.155 231.816 283.231 241.104 283.231Z" fill="#B7C0CE"/>
<path d="M257.91 275.55C257.91 279.126 250.387 282.032 241.093 282.032C231.81 282.032 224.276 279.126 224.276 275.55C224.276 271.975 231.799 266.109 241.093 266.109C250.387 266.109 257.91 271.975 257.91 275.55Z" fill="url(#paint36_linear)"/>
<path opacity="0.3" d="M257.91 275.55C257.91 271.975 250.387 266.109 241.093 266.109C236.808 266.109 232.889 267.362 229.921 269.058C229.716 269.49 229.619 269.922 229.651 270.344C229.846 272.353 233.127 273.595 235.016 274.006C239.765 275.032 242.075 272.191 245.993 272.299C248.411 272.364 251.768 273.584 255.74 278.737C257.122 277.797 257.91 276.706 257.91 275.55Z" fill="url(#paint37_linear)"/>
<path d="M242.021 269.36C241.352 269.522 240.726 269.522 240.132 269.371C239.593 269.231 239.226 268.745 239.226 268.183V249.203H242.96V268.15C242.971 268.734 242.572 269.231 242.021 269.36Z" fill="white"/>
<path opacity="0.65" d="M242.021 269.36C241.352 269.522 240.726 269.522 240.132 269.371C239.593 269.231 239.226 268.745 239.226 268.183V249.203H242.96V268.15C242.971 268.734 242.572 269.231 242.021 269.36Z" fill="url(#paint38_linear)"/>
<path d="M221.34 241.23L227.05 237.611C227.287 236.261 229.975 222.142 240.909 217.702C245.357 215.898 250.138 216.114 252.761 216.233C258.007 216.471 261.742 216.633 263.534 219.139C265.844 222.347 261.969 225.264 262.767 234.457C263.091 238.206 263.922 239.869 262.886 242.354C261.645 245.324 258.774 246.977 256.528 247.906C253.852 249.462 249.199 251.676 243.047 252.217C232.684 253.124 224.956 248.673 222.3 246.977C221.113 246.599 220.228 245.616 219.98 244.406C219.742 243.164 220.282 241.9 221.34 241.23Z" fill="url(#paint39_linear)"/>
<path opacity="0.26" d="M223.974 243.801C224.189 242.527 227.719 243.585 231.076 241.101C236.085 237.385 233.483 231.076 237.833 225.037C241.827 219.485 249.869 216.665 252.362 218.783C255.687 221.591 247.548 232.113 252.362 238.908C254.693 242.203 258.256 242.051 258.277 243.985C258.309 247.042 249.448 250.564 241.039 250.413C232.004 250.229 223.639 245.822 223.974 243.801Z" fill="white"/>
<path d="M168.535 201.671C168.524 201.509 168.427 201.358 168.298 201.271C168.157 201.185 167.996 201.163 167.834 201.228L156.835 205.333L143.418 204.879C143.223 204.869 143.04 204.966 142.921 205.117C142.802 205.268 142.77 205.474 142.824 205.657L147.994 221.818C148.07 222.066 148.307 222.239 148.566 222.239H162.361L169.636 218.318C169.841 218.21 169.971 217.972 169.949 217.734L168.535 201.671Z" fill="#26264F"/>
<path d="M168.945 217.346C168.902 217.4 168.848 217.443 168.784 217.475L161.314 221.483H149.592C149.333 221.483 149.106 221.321 149.02 221.083L144.087 206.63C144.022 206.446 144.054 206.241 144.173 206.079C144.292 205.917 144.475 205.83 144.67 205.841L156.91 206.316L167.024 203.011C167.175 202.957 167.337 202.989 167.467 203.065C167.596 203.151 167.683 203.292 167.704 203.454L169.107 216.892C169.118 217.054 169.064 217.227 168.945 217.346Z" fill="white"/>
<path opacity="0.2" d="M168.945 217.345L161.314 221.483L156.899 206.305L167.013 202.999C167.164 202.945 167.326 202.978 167.456 203.053C167.585 203.14 167.672 203.28 167.693 203.442L169.097 216.881C169.118 217.054 169.064 217.227 168.945 217.345Z" fill="#B7C0CE"/>
<path d="M177.689 205.344C176.545 203.756 173.814 202.449 173.641 201.077C174.224 200.667 174.548 200.299 174.548 200.299C176.393 199.986 177.332 199.057 177.03 198.139C176.944 197.89 176.75 197.696 176.674 197.642C176.188 197.296 175.4 197.404 174.677 197.934C175.692 195.913 175.551 195.071 175.228 194.693C174.969 194.379 174.666 194.444 173.695 194.001C172.648 193.526 172.475 193.202 171.838 192.899C170.77 192.381 169.345 192.349 168.557 192.748C166.204 193.926 165.394 201.315 168.611 202.093C169.334 202.265 170.014 202.298 170.629 202.233C170.554 203.043 170.241 204.123 169.118 204.177C167.326 204.253 164.93 204.912 166.01 207.235C167.089 209.546 167.585 210.627 169.939 209.903C172.292 209.168 178.887 207.008 177.689 205.344Z" fill="url(#paint40_linear)"/>
<path d="M150.714 275.01C150.811 274.502 152.452 274.038 153.273 274.718C153.683 275.053 153.953 275.744 153.726 276.058C153.639 276.166 153.985 276.371 153.65 276.371C152.549 276.393 150.628 275.518 150.714 275.01Z" fill="url(#paint41_linear)"/>
<path d="M152.517 275.01L154.222 275.097C153.629 274.016 154.341 271.089 154.341 271.089L152.495 271.143C152.495 271.143 152.538 271.996 152.657 273.26C152.7 273.692 152.636 274.34 152.517 275.01Z" fill="url(#paint42_linear)"/>
<path d="M152.301 274.988C152.301 274.988 154.341 274.513 154.568 274.923C154.784 275.334 154.956 276.414 153.661 276.382C152.366 276.338 152.182 275.334 152.301 274.988Z" fill="url(#paint43_linear)"/>
<path d="M140.309 277.095C140.471 276.598 142.165 276.371 142.878 277.171C143.234 277.559 143.407 278.283 143.137 278.564C143.04 278.661 143.353 278.91 143.018 278.867C141.917 278.715 140.147 277.581 140.309 277.095Z" fill="url(#paint44_linear)"/>
<path d="M142.306 277.57L143.99 277.905C143.558 276.749 144.68 273.951 144.68 273.951L142.845 273.735C142.845 273.735 142.77 274.589 142.694 275.853C142.673 276.285 142.511 276.922 142.306 277.57Z" fill="url(#paint45_linear)"/>
<path d="M141.874 277.289C141.874 277.289 143.957 277.106 144.119 277.538C144.281 277.97 144.303 279.072 143.018 278.856C141.744 278.64 141.712 277.613 141.874 277.289Z" fill="url(#paint46_linear)"/>
<path d="M151.405 271.326C152.463 271.445 153.51 271.564 154.568 271.683C155.993 270.106 158.119 267.351 159.252 263.473C161.433 256.051 158.022 251.18 160.31 249.278C162.944 247.085 168.158 253.005 179.653 254.68C183.356 255.22 191.57 256.408 194.894 251.979C196.244 250.186 197.021 247.161 195.952 244.59C194.042 239.988 187.738 240.539 167.003 236.499C159.015 234.943 157.752 234.435 155.852 235.343C146.451 239.804 150.369 265.169 151.405 271.326Z" fill="url(#paint47_linear)"/>
<path d="M141.982 274.308C143.04 274.427 144.087 274.546 145.145 274.664C146.569 273.087 148.696 270.332 149.829 266.454C152.01 259.033 148.599 254.161 150.887 252.26C153.521 250.067 158.734 255.987 170.23 257.661C173.932 258.201 182.147 259.389 185.471 254.96C186.82 253.167 187.598 250.142 186.529 247.571C184.618 242.969 178.315 243.52 157.579 239.48C149.592 237.925 148.329 237.417 146.429 238.324C137.038 242.786 140.956 268.15 141.982 274.308Z" fill="url(#paint48_linear)"/>
<path d="M147.606 223.503L147.368 221.364L146.138 219.009C145.965 218.685 145.879 218.329 145.879 217.972V215.639L147.368 219.085C147.368 219.085 148.35 218.199 148.717 218.015C149.084 217.832 149.041 218.577 148.761 218.858C148.48 219.139 148.901 221.418 148.62 221.656L148.717 223.049L147.606 223.503Z" fill="url(#paint49_linear)"/>
<path d="M147.055 222.639C147.66 222.38 148.275 222.12 148.879 221.861C149.905 222.909 151.222 223.924 152.333 223.589C153.985 223.103 153.575 220.1 155.572 214.818C157.849 208.844 160.429 207.31 161.724 206.748C162.448 206.435 162.955 206.23 163.549 206.381C166.323 207.051 167.24 214.202 166.463 219.549C166.02 222.563 165.168 228.472 160.267 231.281C159.576 231.681 155.744 233.874 151.956 232.145C148.728 230.676 146.731 226.884 147.055 222.639Z" fill="url(#paint50_linear)"/>
<path d="M193.61 245.433C189.94 250.661 180.625 249.872 177.613 249.613C173.112 249.224 168.73 248.857 166.981 245.854C164.855 242.213 165.556 239.21 165.124 233.193C164.952 230.709 164.531 228.548 163.98 226.647C161.411 217.789 155.939 214.472 158.292 209.816C160.915 204.599 170.813 202.676 176.588 203.054C176.728 203.065 176.922 203.075 177.171 203.097C179.459 203.313 186.324 204.285 190.544 209.514C193.265 212.895 192.315 214.861 194.096 233.798C194.344 236.488 194.56 238.465 194.646 239.999C194.797 242.71 194.592 244.028 193.61 245.433Z" fill="url(#paint51_linear)"/>
<path d="M182.514 191.333C182.265 189.324 180.322 188.243 179.351 187.703C178.131 187.012 177.019 186.85 176.426 186.763C174.148 186.439 173.716 187.206 170.921 187.228C168.319 187.249 167.78 186.601 166.592 187.228C165.373 187.876 164.39 189.378 164.606 190.631C164.693 191.106 164.962 191.365 165.243 191.722C165.761 192.381 166.031 193.223 166.7 193.763C167.434 194.379 168.373 194.595 169.312 194.401C170.5 194.163 170.834 194.228 170.824 194.476C170.802 194.757 170.37 195.276 170.37 195.838V195.848C170.37 196.01 170.349 196.162 170.381 196.259C170.446 196.486 170.597 196.572 170.813 196.572C171.104 196.572 171.46 196.291 171.784 196.162C172.464 195.902 173.123 197.166 172.41 198.041C171.871 198.7 171.547 198.344 171.385 198.333C171.331 198.322 171.299 198.365 171.288 198.484C171.212 198.938 171.029 201.098 172.464 201.098C174.299 201.855 175.206 201.628 175.703 201.282C175.94 201.109 176.275 200.742 176.544 200.439C176.814 200.137 177.019 199.878 177.019 199.878C179.955 199.91 180.527 199.413 180.527 199.413C181.067 198.938 181.38 197.858 180.646 195.308C180.83 195.168 182.783 193.526 182.514 191.333Z" fill="url(#paint52_linear)"/>
<path opacity="0.2" d="M193.61 245.432C189.94 250.661 180.625 249.872 177.613 249.613C173.112 249.224 168.73 248.857 166.981 245.854C164.855 242.213 165.556 239.21 165.124 233.193C164.952 230.708 164.531 228.548 163.98 226.646L164.013 226.409C164.013 226.409 172 221.105 174.515 229.153C177.03 237.201 175.012 241.219 180.171 241.349C184.111 241.446 191.451 237.795 194.646 239.998C194.797 242.71 194.592 244.028 193.61 245.432Z" fill="url(#paint53_linear)"/>
<path d="M176.674 296.41C187.065 296.41 195.488 292.966 195.488 288.718C195.488 284.47 187.065 281.027 176.674 281.027C166.283 281.027 157.86 284.47 157.86 288.718C157.86 292.966 166.283 296.41 176.674 296.41Z" fill="#B7C0CE"/>
<path d="M195.499 287.822C195.499 291.83 187.069 295.081 176.685 295.081C166.29 295.081 157.871 291.83 157.871 287.822C157.871 283.814 166.301 277.257 176.685 277.257C187.069 277.257 195.499 283.814 195.499 287.822Z" fill="url(#paint54_linear)"/>
<path opacity="0.3" d="M195.499 287.822C195.499 283.814 187.069 277.257 176.685 277.257C171.881 277.257 167.51 278.661 164.185 280.552C163.948 281.038 163.84 281.524 163.883 281.988C164.099 284.246 167.769 285.629 169.885 286.083C175.195 287.238 177.786 284.052 182.168 284.181C184.877 284.257 188.623 285.618 193.081 291.387C194.614 290.328 195.499 289.118 195.499 287.822Z" fill="url(#paint55_linear)"/>
<path d="M177.71 280.897C176.955 281.081 176.253 281.081 175.595 280.908C175.001 280.757 174.58 280.206 174.58 279.579V258.341H178.768V279.558C178.768 280.195 178.325 280.746 177.71 280.897Z" fill="white"/>
<path opacity="0.65" d="M177.71 280.897C176.955 281.081 176.253 281.081 175.595 280.908C175.001 280.757 174.58 280.206 174.58 279.579V258.341H178.768V279.558C178.768 280.195 178.325 280.746 177.71 280.897Z" fill="url(#paint56_linear)"/>
<path d="M154.568 249.408L160.958 245.368C161.228 243.855 164.239 228.051 176.469 223.093C181.445 221.073 186.799 221.31 189.735 221.451C195.596 221.71 199.784 221.904 201.792 224.702C204.372 228.299 200.043 231.562 200.939 241.846C201.306 246.037 202.234 247.906 201.079 250.682C199.687 254.01 196.47 255.857 193.966 256.894C190.976 258.633 185.763 261.107 178.876 261.712C167.283 262.727 158.626 257.747 155.647 255.846C154.32 255.425 153.326 254.323 153.046 252.973C152.776 251.579 153.38 250.164 154.568 249.408Z" fill="url(#paint57_linear)"/>
<path opacity="0.26" d="M157.504 252.292C157.741 250.866 161.703 252.043 165.448 249.267C171.05 245.108 168.147 238.054 173.015 231.292C177.484 225.08 186.486 221.926 189.281 224.291C193.005 227.435 183.895 239.221 189.281 246.815C191.894 250.509 195.877 250.326 195.898 252.497C195.931 255.922 186.011 259.864 176.609 259.692C166.495 259.486 157.126 254.55 157.504 252.292Z" fill="white"/>
<defs>
<linearGradient id="paint0_linear" x1="160.015" y1="187.887" x2="296.528" y2="146.086" gradientUnits="userSpaceOnUse">
<stop stop-color="#FF9085"/>
<stop offset="1" stop-color="#FB6FBB"/>
</linearGradient>
<linearGradient id="paint1_linear" x1="278.533" y1="114.501" x2="167.089" y2="214.406" gradientUnits="userSpaceOnUse">
<stop offset="0.00359712" stop-color="#E38DDD"/>
<stop offset="1" stop-color="#9571F6"/>
</linearGradient>
<linearGradient id="paint2_linear" x1="238.255" y1="11.204" x2="184.332" y2="178.642" gradientUnits="userSpaceOnUse">
<stop stop-color="#FF9085"/>
<stop offset="1" stop-color="#FB6FBB"/>
</linearGradient>
<linearGradient id="paint3_linear" x1="248.279" y1="54.2874" x2="182.405" y2="188.095" gradientUnits="userSpaceOnUse">
<stop stop-color="#AA80F9"/>
<stop offset="0.9964" stop-color="#6165D7"/>
</linearGradient>
<linearGradient id="paint4_linear" x1="33.8097" y1="143.535" x2="159.792" y2="164.277" gradientUnits="userSpaceOnUse">
<stop stop-color="#FFC444"/>
<stop offset="0.9964" stop-color="#F36F56"/>
</linearGradient>
<linearGradient id="paint5_linear" x1="114.452" y1="153.093" x2="357.629" y2="76.2518" gradientUnits="userSpaceOnUse">
<stop stop-color="#FFC444"/>
<stop offset="0.9964" stop-color="#F36F56"/>
</linearGradient>
<linearGradient id="paint6_linear" x1="187.893" y1="-2.09397" x2="69.966" y2="123.811" gradientUnits="userSpaceOnUse">
<stop stop-color="#FFC444"/>
<stop offset="0.9964" stop-color="#F36F56"/>
</linearGradient>
<linearGradient id="paint7_linear" x1="114.361" y1="110.901" x2="98.5377" y2="123.1" gradientUnits="userSpaceOnUse">
<stop stop-color="#FFC444"/>
<stop offset="0.9964" stop-color="#F36F56"/>
</linearGradient>
<linearGradient id="paint8_linear" x1="89.3653" y1="108.107" x2="65.3999" y2="132.222" gradientUnits="userSpaceOnUse">
<stop offset="0.00359712" stop-color="#E38DDD"/>
<stop offset="1" stop-color="#9571F6"/>
</linearGradient>
<linearGradient id="paint9_linear" x1="68.8742" y1="231.33" x2="58.6944" y2="284.123" gradientUnits="userSpaceOnUse">
<stop stop-color="#311944"/>
<stop offset="1" stop-color="#893976"/>
</linearGradient>
<linearGradient id="paint10_linear" x1="59.071" y1="268.867" x2="57.4656" y2="251.46" gradientUnits="userSpaceOnUse">
<stop stop-color="#FFC444"/>
<stop offset="0.9964" stop-color="#F36F56"/>
</linearGradient>
<linearGradient id="paint11_linear" x1="50.5718" y1="227.799" x2="40.3916" y2="280.593" gradientUnits="userSpaceOnUse">
<stop stop-color="#311944"/>
<stop offset="1" stop-color="#893976"/>
</linearGradient>
<linearGradient id="paint12_linear" x1="38.9583" y1="270.722" x2="37.3529" y2="253.314" gradientUnits="userSpaceOnUse">
<stop stop-color="#FFC444"/>
<stop offset="0.9964" stop-color="#F36F56"/>
</linearGradient>
<linearGradient id="paint13_linear" x1="64.6202" y1="212.025" x2="46.0833" y2="213.51" gradientUnits="userSpaceOnUse">
<stop stop-color="#444B8C"/>
<stop offset="0.9964" stop-color="#26264F"/>
</linearGradient>
<linearGradient id="paint14_linear" x1="64.6199" y1="212.025" x2="46.0833" y2="213.509" gradientUnits="userSpaceOnUse">
<stop stop-color="#444B8C"/>
<stop offset="0.9964" stop-color="#26264F"/>
</linearGradient>
<linearGradient id="paint15_linear" x1="54.3673" y1="215.514" x2="26.2269" y2="217.768" gradientUnits="userSpaceOnUse">
<stop stop-color="#444B8C"/>
<stop offset="0.9964" stop-color="#26264F"/>
</linearGradient>
<linearGradient id="paint16_linear" x1="-1.92558" y1="223.389" x2="53.7144" y2="128.158" gradientUnits="userSpaceOnUse">
<stop offset="0.00359712" stop-color="#E38DDD"/>
<stop offset="1" stop-color="#9571F6"/>
</linearGradient>
<linearGradient id="paint17_linear" x1="-1.91944" y1="223.393" x2="53.7215" y2="128.161" gradientUnits="userSpaceOnUse">
<stop offset="0.00359712" stop-color="#E38DDD"/>
<stop offset="1" stop-color="#9571F6"/>
</linearGradient>
<linearGradient id="paint18_linear" x1="-31.7624" y1="26.2436" x2="-74.8926" y2="-20.801" gradientUnits="userSpaceOnUse">
<stop stop-color="#FFC444"/>
<stop offset="0.9964" stop-color="#F36F56"/>
</linearGradient>
<linearGradient id="paint19_linear" x1="42.487" y1="112.873" x2="48.4764" y2="93.1858" gradientUnits="userSpaceOnUse">
<stop stop-color="#444B8C"/>
<stop offset="0.9964" stop-color="#3E4177"/>
</linearGradient>
<linearGradient id="paint20_linear" x1="-26.0771" y1="21.0316" x2="-69.2072" y2="-26.0129" gradientUnits="userSpaceOnUse">
<stop stop-color="#FFC444"/>
<stop offset="0.9964" stop-color="#F36F56"/>
</linearGradient>
<linearGradient id="paint21_linear" x1="50.6976" y1="148.039" x2="47.7233" y2="165.871" gradientUnits="userSpaceOnUse">
<stop stop-color="#FFC444"/>
<stop offset="0.2327" stop-color="#FCB048"/>
<stop offset="0.9964" stop-color="#F36F56"/>
</linearGradient>
<linearGradient id="paint22_linear" x1="23.7331" y1="201.686" x2="29.7735" y2="119.073" gradientUnits="userSpaceOnUse">
<stop offset="0.00359712" stop-color="#E38DDD"/>
<stop offset="1" stop-color="#9571F6"/>
</linearGradient>
<linearGradient id="paint23_linear" x1="218.49" y1="253.571" x2="219.615" y2="267.875" gradientUnits="userSpaceOnUse">
<stop offset="0.003597" stop-color="#26264F"/>
<stop offset="1" stop-color="#444B8C"/>
</linearGradient>
<linearGradient id="paint24_linear" x1="221.127" y1="261.472" x2="223.822" y2="244.576" gradientUnits="userSpaceOnUse">
<stop stop-color="#FFC444"/>
<stop offset="0.9964" stop-color="#F36F56"/>
</linearGradient>
<linearGradient id="paint25_linear" x1="204.444" y1="252.614" x2="205.569" y2="266.918" gradientUnits="userSpaceOnUse">
<stop offset="0.003597" stop-color="#26264F"/>
<stop offset="1" stop-color="#444B8C"/>
</linearGradient>
<linearGradient id="paint26_linear" x1="207.081" y1="260.516" x2="209.776" y2="243.62" gradientUnits="userSpaceOnUse">
<stop stop-color="#FFC444"/>
<stop offset="0.9964" stop-color="#F36F56"/>
</linearGradient>
<linearGradient id="paint27_linear" x1="246.44" y1="223.197" x2="240.02" y2="232.741" gradientUnits="userSpaceOnUse">
<stop stop-color="#444B8C"/>
<stop offset="0.9964" stop-color="#26264F"/>
</linearGradient>
<linearGradient id="paint28_linear" x1="205.762" y1="244.221" x2="251.784" y2="244.221" gradientUnits="userSpaceOnUse">
<stop stop-color="#444B8C"/>
<stop offset="0.9964" stop-color="#26264F"/>
</linearGradient>
<linearGradient id="paint29_linear" x1="216.962" y1="203.809" x2="215.602" y2="212.735" gradientUnits="userSpaceOnUse">
<stop stop-color="#FFC444"/>
<stop offset="0.9964" stop-color="#F36F56"/>
</linearGradient>
<linearGradient id="paint30_linear" x1="237.632" y1="201.838" x2="236.81" y2="207.237" gradientUnits="userSpaceOnUse">
<stop stop-color="#FFC444"/>
<stop offset="0.9964" stop-color="#F36F56"/>
</linearGradient>
<linearGradient id="paint31_linear" x1="241.49" y1="195.641" x2="237.703" y2="201.762" gradientUnits="userSpaceOnUse">
<stop stop-color="#FFC444"/>
<stop offset="0.9964" stop-color="#F36F56"/>
</linearGradient>
<linearGradient id="paint32_linear" x1="213.047" y1="210.633" x2="233.826" y2="210.633" gradientUnits="userSpaceOnUse">
<stop stop-color="#FF9085"/>
<stop offset="1" stop-color="#FB6FBB"/>
</linearGradient>
<linearGradient id="paint33_linear" x1="222.577" y1="223.134" x2="256.587" y2="223.134" gradientUnits="userSpaceOnUse">
<stop stop-color="#FF9085"/>
<stop offset="1" stop-color="#FB6FBB"/>
</linearGradient>
<linearGradient id="paint34_linear" x1="236.135" y1="187.693" x2="242.879" y2="197.783" gradientUnits="userSpaceOnUse">
<stop stop-color="#FFC444"/>
<stop offset="0.9964" stop-color="#F36F56"/>
</linearGradient>
<linearGradient id="paint35_linear" x1="256.594" y1="212.811" x2="280.036" y2="162.761" gradientUnits="userSpaceOnUse">
<stop stop-color="#444B8C"/>
<stop offset="0.9964" stop-color="#26264F"/>
</linearGradient>
<linearGradient id="paint36_linear" x1="224.285" y1="274.073" x2="257.915" y2="274.073" gradientUnits="userSpaceOnUse">
<stop stop-color="#AA80F9"/>
<stop offset="0.9964" stop-color="#6165D7"/>
</linearGradient>
<linearGradient id="paint37_linear" x1="229.657" y1="272.422" x2="257.915" y2="272.422" gradientUnits="userSpaceOnUse">
<stop stop-color="#AA80F9"/>
<stop offset="0.9964" stop-color="#6165D7"/>
</linearGradient>
<linearGradient id="paint38_linear" x1="239.23" y1="259.352" x2="242.969" y2="259.352" gradientUnits="userSpaceOnUse">
<stop stop-color="#AA80F9"/>
<stop offset="0.9964" stop-color="#6165D7"/>
</linearGradient>
<linearGradient id="paint39_linear" x1="259.661" y1="255.373" x2="252.799" y2="246.438" gradientUnits="userSpaceOnUse">
<stop stop-color="#311944"/>
<stop offset="1" stop-color="#893976"/>
</linearGradient>
<linearGradient id="paint40_linear" x1="181.795" y1="176.937" x2="175.255" y2="193.274" gradientUnits="userSpaceOnUse">
<stop stop-color="#311944"/>
<stop offset="1" stop-color="#A03976"/>
</linearGradient>
<linearGradient id="paint41_linear" x1="149.803" y1="273.535" x2="153.435" y2="275.947" gradientUnits="userSpaceOnUse">
<stop stop-color="#444B8C"/>
<stop offset="0.9964" stop-color="#26264F"/>
</linearGradient>
<linearGradient id="paint42_linear" x1="153.228" y1="275.94" x2="153.511" y2="270.268" gradientUnits="userSpaceOnUse">
<stop stop-color="#311944"/>
<stop offset="1" stop-color="#A03976"/>
</linearGradient>
<linearGradient id="paint43_linear" x1="150.076" y1="273.124" x2="153.708" y2="275.536" gradientUnits="userSpaceOnUse">
<stop stop-color="#444B8C"/>
<stop offset="0.9964" stop-color="#26264F"/>
</linearGradient>
<linearGradient id="paint44_linear" x1="139.604" y1="275.503" x2="142.864" y2="278.399" gradientUnits="userSpaceOnUse">
<stop stop-color="#444B8C"/>
<stop offset="0.9964" stop-color="#26264F"/>
</linearGradient>
<linearGradient id="paint45_linear" x1="142.877" y1="278.585" x2="143.971" y2="273.013" gradientUnits="userSpaceOnUse">
<stop stop-color="#311944"/>
<stop offset="1" stop-color="#A03976"/>
</linearGradient>
<linearGradient id="paint46_linear" x1="139.932" y1="275.134" x2="143.191" y2="278.031" gradientUnits="userSpaceOnUse">
<stop stop-color="#444B8C"/>
<stop offset="0.9964" stop-color="#26264F"/>
</linearGradient>
<linearGradient id="paint47_linear" x1="180.999" y1="239.737" x2="162.116" y2="253.215" gradientUnits="userSpaceOnUse">
<stop stop-color="#444B8C"/>
<stop offset="0.9964" stop-color="#26264F"/>
</linearGradient>
<linearGradient id="paint48_linear" x1="140.294" y1="256.258" x2="187.032" y2="256.258" gradientUnits="userSpaceOnUse">
<stop stop-color="#444B8C"/>
<stop offset="0.9964" stop-color="#26264F"/>
</linearGradient>
<linearGradient id="paint49_linear" x1="147.828" y1="216.959" x2="145.684" y2="226.741" gradientUnits="userSpaceOnUse">
<stop stop-color="#311944"/>
<stop offset="1" stop-color="#A03976"/>
</linearGradient>
<linearGradient id="paint50_linear" x1="151.289" y1="192.04" x2="160.601" y2="236.676" gradientUnits="userSpaceOnUse">
<stop offset="0.00359712" stop-color="#E38DDD"/>
<stop offset="1" stop-color="#9571F6"/>
</linearGradient>
<linearGradient id="paint51_linear" x1="169.848" y1="188.169" x2="179.16" y2="232.804" gradientUnits="userSpaceOnUse">
<stop offset="0.00359712" stop-color="#E38DDD"/>
<stop offset="1" stop-color="#9571F6"/>
</linearGradient>
<linearGradient id="paint52_linear" x1="181.998" y1="212.329" x2="171.993" y2="186.94" gradientUnits="userSpaceOnUse">
<stop stop-color="#311944"/>
<stop offset="1" stop-color="#6B3976"/>
</linearGradient>
<linearGradient id="paint53_linear" x1="176.377" y1="223.062" x2="182.065" y2="250.326" gradientUnits="userSpaceOnUse">
<stop offset="0.00359712" stop-color="#E38DDD"/>
<stop offset="1" stop-color="#9571F6"/>
</linearGradient>
<linearGradient id="paint54_linear" x1="195.496" y1="286.168" x2="157.858" y2="286.168" gradientUnits="userSpaceOnUse">
<stop stop-color="#AA80F9"/>
<stop offset="0.9964" stop-color="#6165D7"/>
</linearGradient>
<linearGradient id="paint55_linear" x1="163.87" y1="284.321" x2="195.496" y2="284.321" gradientUnits="userSpaceOnUse">
<stop stop-color="#AA80F9"/>
<stop offset="0.9964" stop-color="#6165D7"/>
</linearGradient>
<linearGradient id="paint56_linear" x1="174.585" y1="269.693" x2="178.769" y2="269.693" gradientUnits="userSpaceOnUse">
<stop stop-color="#AA80F9"/>
<stop offset="0.9964" stop-color="#6165D7"/>
</linearGradient>
<linearGradient id="paint57_linear" x1="197.45" y1="265.24" x2="189.77" y2="255.241" gradientUnits="userSpaceOnUse">
<stop stop-color="#311944"/>
<stop offset="1" stop-color="#893976"/>
</linearGradient>
</defs>
</svg>
