<svg width="43" height="43" viewBox="0 0 43 43" fill="none" xmlns="http://www.w3.org/2000/svg">
<circle cx="21.5" cy="21.5" r="21.5" fill="#FBFBFB"/>
<path d="M21.9829 12.9716C21.9002 12.8925 21.7903 12.8484 21.6759 12.8484C21.5615 12.8484 21.4515 12.8925 21.3688 12.9716L11.1468 22.7366C11.1034 22.7782 11.0689 22.8281 11.0453 22.8833C11.0217 22.9386 11.0096 22.9981 11.0097 23.0581L11.008 32.223C11.008 32.6942 11.1952 33.1461 11.5284 33.4793C11.8616 33.8125 12.3135 33.9997 12.7848 33.9997H18.1206C18.3563 33.9997 18.5822 33.9061 18.7488 33.7395C18.9154 33.5729 19.009 33.347 19.009 33.1113V25.5601C19.009 25.4422 19.0558 25.3293 19.1391 25.246C19.2224 25.1627 19.3354 25.1159 19.4532 25.1159H23.8952C24.013 25.1159 24.126 25.1627 24.2093 25.246C24.2926 25.3293 24.3394 25.4422 24.3394 25.5601V33.1113C24.3394 33.347 24.433 33.5729 24.5996 33.7395C24.7662 33.9061 24.9921 33.9997 25.2277 33.9997H30.5614C31.0326 33.9997 31.4846 33.8125 31.8178 33.4793C32.151 33.1461 32.3382 32.6942 32.3382 32.223V23.0581C32.3382 22.9981 32.3261 22.9386 32.3026 22.8833C32.279 22.8281 32.2444 22.7782 32.201 22.7366L21.9829 12.9716Z" fill="#F0C24A"/>
<path d="M34.7174 20.9045L30.5641 16.9311V10.9018C30.5641 10.6662 30.4705 10.4402 30.3039 10.2736C30.1373 10.107 29.9114 10.0134 29.6758 10.0134H27.0106C26.775 10.0134 26.549 10.107 26.3824 10.2736C26.2158 10.4402 26.1222 10.6662 26.1222 10.9018V12.6785L22.9062 9.60362C22.6053 9.29935 22.1578 9.125 21.6742 9.125C21.1922 9.125 20.7458 9.29935 20.4449 9.60417L8.63485 20.9034C8.28949 21.2365 8.24618 21.7845 8.56045 22.1454C8.63937 22.2365 8.736 22.3106 8.84446 22.3632C8.95292 22.4157 9.07094 22.4457 9.19134 22.4512C9.31174 22.4567 9.432 22.4377 9.54481 22.3952C9.65761 22.3528 9.7606 22.2878 9.8475 22.2043L21.3688 11.1949C21.4514 11.1159 21.5614 11.0717 21.6758 11.0717C21.7902 11.0717 21.9002 11.1159 21.9829 11.1949L33.5053 22.2043C33.675 22.3671 33.9023 22.4559 34.1375 22.4513C34.3726 22.4467 34.5963 22.3491 34.7596 22.1799C35.1005 21.8267 35.0722 21.2437 34.7174 20.9045Z" fill="#F0C24A"/>
</svg>
