<svg width="43" height="43" viewBox="0 0 43 43" fill="none" xmlns="http://www.w3.org/2000/svg">
<circle cx="21.5" cy="21.5" r="21.5" fill="#FBFBFB"/>
<path d="M17.5786 9.96352C18.7012 8.6973 20.2693 8 22 8C23.74 8 25.3132 8.69308 26.4306 9.95146C27.5602 11.2237 28.1106 12.9528 27.9814 14.8199C27.7252 18.5034 25.042 21.4999 22 21.4999C18.958 21.4999 16.2794 18.504 16.0192 14.8211C15.8882 12.9709 16.4421 11.2454 17.5786 9.96352ZM11.8464 34.9998H32.1536C32.4194 35.0035 32.6826 34.9451 32.9241 34.8291C33.1656 34.7131 33.3793 34.5422 33.5497 34.3291C33.9247 33.8608 34.0758 33.2213 33.9639 32.5747C33.477 29.753 31.9574 27.3826 29.569 25.7186C27.4472 24.2415 24.7593 23.4285 22 23.4285C19.2407 23.4285 16.5528 24.2421 14.431 25.7186C12.0426 27.382 10.523 29.7523 10.0361 32.5741C9.92418 33.2207 10.0753 33.8602 10.4503 34.3285C10.6206 34.5417 10.8343 34.7127 11.0758 34.8288C11.3173 34.945 11.5806 35.0034 11.8464 34.9998Z" fill="#F0C24A"/>
</svg>
