<svg width="60" height="60" viewBox="0 0 60 60" fill="none" xmlns="http://www.w3.org/2000/svg">
<path d="M29.5803 0.0027873C46.4517 -0.225076 60.2251 13.5477 59.9972 30.4182C59.7722 46.5979 46.5973 59.7722 30.4168 59.9971C13.5426 60.2279 -0.227898 46.4551 0.00286102 29.5846C0.224966 13.402 13.3998 0.227766 29.5803 0.0027873ZM11.3475 47.1979C11.405 47.26 11.4754 47.3087 11.5538 47.3406C11.6322 47.3725 11.7166 47.3867 11.8011 47.3823C11.8856 47.3779 11.9681 47.355 12.0428 47.3151C12.1174 47.2753 12.1824 47.2195 12.2331 47.1517C13.5231 45.464 15.1029 44.0191 16.8987 42.8843C20.5707 40.5278 25.2233 39.2299 29.9986 39.2299C34.7739 39.2299 39.4265 40.5278 43.0985 42.8843C44.8942 44.0186 46.474 45.463 47.7641 47.1503C47.8148 47.218 47.8798 47.2738 47.9544 47.3137C48.0291 47.3535 48.1116 47.3765 48.1961 47.3809C48.2806 47.3853 48.365 47.371 48.4434 47.3391C48.5218 47.3073 48.5922 47.2585 48.6497 47.1964C52.8817 42.6281 55.2789 36.6589 55.382 30.4326C55.6171 16.3988 44.1008 4.65235 30.0606 4.61774C16.0204 4.58313 4.61515 15.9835 4.61515 30C4.61031 36.3764 7.01501 42.5192 11.3475 47.1979Z" fill="#FDFDFD"/>
</svg>
