<svg width="259" height="171" viewBox="0 0 259 171" fill="none" xmlns="http://www.w3.org/2000/svg">
<g filter="url(#filter0_d)">
<path d="M124.293 0C103.592 0 84.6315 12.8358 78.6545 30.379C70.7566 26.3662 61.7181 24.1883 52.8598 24.1883C43.7527 24.1883 35.0401 26.4434 27.6567 30.722C10.6518 40.5568 1.46752 61.5641 6.26973 79.5788C10.6003 95.7758 26.4133 107.994 43.0581 107.994C44.5331 107.994 45.9995 107.891 47.4487 107.694C47.4658 108.226 47.4916 108.766 47.5259 109.315C46.9599 111.853 46.6941 114.417 46.7455 116.937C47.1743 139.9 71.3997 157.889 101.894 157.889C102.365 157.889 102.846 157.88 103.317 157.872C120.348 157.554 136.152 151.458 146.503 141.383C151.014 149.58 160.481 154.45 172.049 154.45C178.961 154.45 186.147 152.701 192.836 149.383C208.048 141.837 217.524 127.647 216.349 114.76C220.903 113.782 225.233 112.213 229.264 110.104C232.068 109.169 234.623 107.506 236.87 105.173C247.426 96.8476 253.661 84.7406 253.987 71.9048C254.613 46.9362 233.123 26.0661 206.067 25.3802C205.613 25.3716 205.158 25.363 204.704 25.363C194.954 25.363 185.658 27.9696 177.623 32.9171C166.115 14.6879 148.467 2.58089 129.935 0.334396C128.092 0.120041 126.188 0 124.293 0Z" fill="url(#paint0_linear)"/>
<path d="M79.8041 33.2065L80.5476 31.024C86.2159 14.387 104.342 2 124.293 2C126.103 2 127.928 2.11469 129.7 2.32057C147.532 4.48436 164.687 16.1734 175.932 33.9847L176.987 35.657L178.672 34.6201C186.383 29.872 195.314 27.363 204.704 27.363C205.135 27.363 205.568 27.3711 206.024 27.3797C232.125 28.045 252.581 48.1393 251.987 71.854C251.677 84.0632 245.747 95.6251 235.632 103.603L235.525 103.688L235.43 103.786C233.382 105.911 231.097 107.385 228.631 108.206L228.479 108.257L228.336 108.332C224.467 110.357 220.307 111.864 215.93 112.804L214.197 113.176L214.358 114.941C215.434 126.751 206.68 140.284 191.947 147.591L191.947 147.591C185.512 150.783 178.629 152.45 172.049 152.45C161.013 152.45 152.329 147.821 148.255 140.419L146.989 138.118L145.108 139.95C135.18 149.613 119.891 155.562 103.281 155.872L79.8041 33.2065ZM79.8041 33.2065L77.7486 32.1621C70.1295 28.291 61.4013 26.1883 52.8598 26.1883C44.0795 26.1883 35.717 28.3627 28.6595 32.4525L28.658 32.4533C12.3783 41.8687 3.64996 61.9835 8.20187 79.0622M79.8041 33.2065L8.20187 79.0622M8.20187 79.0622C12.3011 94.394 27.3289 105.994 43.0581 105.994C44.44 105.994 45.8163 105.898 47.179 105.713L49.3762 105.414L49.4477 107.63C49.4641 108.141 49.4889 108.661 49.522 109.19L49.5397 109.473L49.4779 109.75C48.9451 112.139 48.6971 114.543 48.7451 116.897L48.7452 116.9C49.1447 138.297 71.9423 155.889 101.894 155.889C102.344 155.889 102.806 155.88 103.28 155.872L8.20187 79.0622Z" stroke="white" stroke-width="4"/>
</g>
<path d="M89.7754 74.3389H85.8555V85H83.2188V74.3389H79.3516V72.2031H89.7754V74.3389ZM93.5986 76.5273C94.2725 75.7188 95.1191 75.3145 96.1387 75.3145C98.2012 75.3145 99.2471 76.5127 99.2764 78.9092V85H96.7363V78.9795C96.7363 78.4346 96.6191 78.0332 96.3848 77.7754C96.1504 77.5117 95.7607 77.3799 95.2158 77.3799C94.4717 77.3799 93.9326 77.667 93.5986 78.2412V85H91.0586V71.5H93.5986V76.5273ZM105.569 85.1758C104.175 85.1758 103.038 84.748 102.159 83.8926C101.286 83.0371 100.85 81.8975 100.85 80.4736V80.2275C100.85 79.2725 101.034 78.4199 101.403 77.6699C101.772 76.9141 102.294 76.334 102.968 75.9297C103.647 75.5195 104.421 75.3145 105.288 75.3145C106.589 75.3145 107.611 75.7246 108.355 76.5449C109.105 77.3652 109.48 78.5283 109.48 80.0342V81.0713H103.425C103.507 81.6924 103.753 82.1904 104.163 82.5654C104.579 82.9404 105.104 83.1279 105.736 83.1279C106.715 83.1279 107.479 82.7734 108.03 82.0645L109.278 83.4619C108.897 84.001 108.382 84.4229 107.731 84.7275C107.081 85.0264 106.36 85.1758 105.569 85.1758ZM105.279 77.3711C104.775 77.3711 104.365 77.541 104.049 77.8809C103.738 78.2207 103.539 78.707 103.451 79.3398H106.984V79.1377C106.973 78.5752 106.82 78.1416 106.527 77.8369C106.234 77.5264 105.818 77.3711 105.279 77.3711ZM110.535 80.1572C110.535 79.2139 110.717 78.373 111.08 77.6348C111.443 76.8965 111.965 76.3252 112.645 75.9209C113.33 75.5166 114.124 75.3145 115.026 75.3145C116.31 75.3145 117.355 75.707 118.164 76.4922C118.979 77.2773 119.433 78.3438 119.526 79.6914L119.544 80.3418C119.544 81.8008 119.137 82.9727 118.322 83.8574C117.508 84.7363 116.415 85.1758 115.044 85.1758C113.673 85.1758 112.577 84.7363 111.757 83.8574C110.942 82.9785 110.535 81.7832 110.535 80.2715V80.1572ZM113.075 80.3418C113.075 81.2441 113.245 81.9355 113.585 82.416C113.925 82.8906 114.411 83.1279 115.044 83.1279C115.659 83.1279 116.14 82.8936 116.485 82.4248C116.831 81.9502 117.004 81.1943 117.004 80.1572C117.004 79.2725 116.831 78.5869 116.485 78.1006C116.14 77.6143 115.653 77.3711 115.026 77.3711C114.405 77.3711 113.925 77.6143 113.585 78.1006C113.245 78.5811 113.075 79.3281 113.075 80.3418ZM129.546 83.1279C130.015 83.1279 130.396 82.999 130.688 82.7412C130.981 82.4834 131.134 82.1406 131.146 81.7129H133.527C133.521 82.3574 133.346 82.9492 133 83.4883C132.654 84.0215 132.18 84.4375 131.576 84.7363C130.979 85.0293 130.316 85.1758 129.59 85.1758C128.23 85.1758 127.158 84.7451 126.373 83.8838C125.588 83.0166 125.195 81.8213 125.195 80.2979V80.1309C125.195 78.666 125.585 77.4971 126.364 76.624C127.144 75.751 128.213 75.3145 129.572 75.3145C130.762 75.3145 131.714 75.6543 132.429 76.334C133.149 77.0078 133.516 77.9072 133.527 79.0322H131.146C131.134 78.54 130.981 78.1416 130.688 77.8369C130.396 77.5264 130.009 77.3711 129.528 77.3711C128.937 77.3711 128.488 77.5879 128.184 78.0215C127.885 78.4492 127.735 79.1465 127.735 80.1133V80.377C127.735 81.3555 127.885 82.0586 128.184 82.4863C128.482 82.9141 128.937 83.1279 129.546 83.1279ZM137.456 76.5273C138.13 75.7188 138.977 75.3145 139.996 75.3145C142.059 75.3145 143.104 76.5127 143.134 78.9092V85H140.594V78.9795C140.594 78.4346 140.477 78.0332 140.242 77.7754C140.008 77.5117 139.618 77.3799 139.073 77.3799C138.329 77.3799 137.79 77.667 137.456 78.2412V85H134.916V71.5H137.456V76.5273ZM150.745 84.0332C150.118 84.7949 149.251 85.1758 148.144 85.1758C147.124 85.1758 146.345 84.8828 145.806 84.2969C145.272 83.7109 145 82.8525 144.988 81.7217V75.4902H147.528V81.6338C147.528 82.624 147.979 83.1191 148.882 83.1191C149.743 83.1191 150.335 82.8203 150.657 82.2227V75.4902H153.206V85H150.815L150.745 84.0332ZM148.144 73.873L148.012 72.6953C148.439 72.6719 148.747 72.6191 148.935 72.5371C149.128 72.4492 149.225 72.3115 149.225 72.124C149.225 71.7197 148.809 71.5176 147.977 71.5176L148.038 70.3311C149.14 70.3311 149.969 70.4834 150.525 70.7881C151.088 71.0928 151.369 71.5117 151.369 72.0449C151.369 72.3906 151.249 72.6748 151.009 72.8975C150.769 73.1143 150.449 73.252 150.051 73.3105V73.873H148.144ZM169.167 74.2949H167.778V85H165.484L165.361 83.9893C164.729 84.7803 163.914 85.1758 162.918 85.1758C161.799 85.1758 160.899 84.7363 160.22 83.8574C159.546 82.9727 159.209 81.7451 159.209 80.1748C159.209 78.6924 159.54 77.5117 160.202 76.6328C160.87 75.7539 161.781 75.3145 162.936 75.3145C163.861 75.3145 164.626 75.6602 165.229 76.3516V74.2949H163.015V72.6865H165.229V71.5H167.778V72.6865H169.167V74.2949ZM161.749 80.3594C161.749 81.25 161.904 81.9326 162.215 82.4072C162.525 82.8818 162.977 83.1191 163.568 83.1191C164.354 83.1191 164.907 82.7881 165.229 82.126V78.373C164.913 77.7109 164.365 77.3799 163.586 77.3799C162.361 77.3799 161.749 78.373 161.749 80.3594ZM175.337 85.1758C173.942 85.1758 172.806 84.748 171.927 83.8926C171.054 83.0371 170.617 81.8975 170.617 80.4736V80.2275C170.617 79.2725 170.802 78.4199 171.171 77.6699C171.54 76.9141 172.062 76.334 172.735 75.9297C173.415 75.5195 174.188 75.3145 175.056 75.3145C176.356 75.3145 177.379 75.7246 178.123 76.5449C178.873 77.3652 179.248 78.5283 179.248 80.0342V81.0713H173.192C173.274 81.6924 173.521 82.1904 173.931 82.5654C174.347 82.9404 174.871 83.1279 175.504 83.1279C176.482 83.1279 177.247 82.7734 177.798 82.0645L179.046 83.4619C178.665 84.001 178.149 84.4229 177.499 84.7275C176.849 85.0264 176.128 85.1758 175.337 85.1758ZM175.047 77.3711C174.543 77.3711 174.133 77.541 173.816 77.8809C173.506 78.2207 173.307 78.707 173.219 79.3398H176.752V79.1377C176.74 78.5752 176.588 78.1416 176.295 77.8369C176.002 77.5264 175.586 77.3711 175.047 77.3711ZM177.982 74.2334H176.093L174.766 73.1172L173.438 74.2334H171.54L174.045 72.2031H175.478L177.982 74.2334ZM172.19 73.0469H170.723L168.736 70.665H170.758L172.19 73.0469Z" fill="white"/>
<defs>
<filter id="filter0_d" x="0" y="0" width="259" height="170.889" filterUnits="userSpaceOnUse" color-interpolation-filters="sRGB">
<feFlood flood-opacity="0" result="BackgroundImageFix"/>
<feColorMatrix in="SourceAlpha" type="matrix" values="0 0 0 0 0 0 0 0 0 0 0 0 0 0 0 0 0 0 127 0"/>
<feOffset dy="8"/>
<feGaussianBlur stdDeviation="2.5"/>
<feColorMatrix type="matrix" values="0 0 0 0 0.239216 0 0 0 0 0.239216 0 0 0 0 0.239216 0 0 0 0.25 0"/>
<feBlend mode="normal" in2="BackgroundImageFix" result="effect1_dropShadow"/>
<feBlend mode="normal" in="SourceGraphic" in2="effect1_dropShadow" result="shape"/>
</filter>
<linearGradient id="paint0_linear" x1="129.5" y1="157.889" x2="129.5" y2="0" gradientUnits="userSpaceOnUse">
<stop stop-color="#76019F"/>
<stop offset="1" stop-color="#FF5372"/>
</linearGradient>
</defs>
</svg>
