<svg width="252" height="172" viewBox="0 0 252 172" fill="none" xmlns="http://www.w3.org/2000/svg">
<path d="M6.9022 70.2336C7.72599 67.6618 8.75766 65.0666 10.0085 62.4507C11.2524 59.8391 12.7719 57.2972 14.5643 54.8364C16.3498 52.3799 18.4648 50.0175 20.9162 47.7448C23.3537 45.4809 26.1988 43.3589 29.4307 41.3918C33.8134 38.7266 38.1566 36.8976 42.4699 35.8893C46.7623 34.894 50.85 34.7027 54.7305 35.3267C58.5997 35.9481 62.1755 37.3709 65.4606 39.5837C68.7457 41.7965 71.5627 44.794 73.9228 48.5788C76.2222 52.2663 77.6773 55.7941 78.2813 59.1666C78.8852 62.5392 78.998 65.7445 78.6041 68.773C78.2075 71.8128 77.5138 74.6708 76.5116 77.3442C75.5067 80.029 74.5473 82.5695 73.6333 84.9657C72.7124 87.3662 72.0222 89.5939 71.5374 91.6548C71.0596 93.7113 71.1787 95.6083 71.9154 97.3327L76.9157 109.182L64.3354 117.375L55.5329 106.128C55.3323 105.915 55.1743 105.723 55.0658 105.549C54.9574 105.376 54.8272 105.167 54.671 104.916C53.3174 102.746 52.6901 100.499 52.7978 98.19C52.8985 95.8854 53.3411 93.4933 54.1134 91.0405C54.8857 88.5877 55.8094 86.0985 56.8801 83.5659C57.9439 81.0377 58.8172 78.4833 59.4931 75.907C60.1691 73.3307 60.4433 70.715 60.3131 68.0713C60.183 65.4275 59.2945 62.7929 57.6459 60.149C56.5482 58.3888 55.2292 57.0179 53.693 56.0433C52.1524 55.0617 50.4731 54.4469 48.6463 54.1849C46.8194 53.923 44.899 54.0383 42.8894 54.5377C40.8684 55.0346 38.8843 55.8853 36.9232 57.0985C34.0524 58.8693 31.8017 60.6883 30.1876 62.5355C28.5708 64.394 27.2968 66.1354 26.3813 67.7691C25.4589 69.4073 24.7115 70.8299 24.1253 72.0457C23.5435 73.2685 22.8709 74.1131 22.1049 74.5908C20.2622 75.7302 18.4679 75.8151 16.7134 74.8316L6.9022 70.2336ZM76.0276 148.812C75.0731 147.282 74.4458 145.624 74.1588 143.861C73.8717 142.098 73.9246 140.384 74.3244 138.714C74.7286 137.051 75.4379 135.459 76.4611 133.951C77.4799 132.437 78.7828 131.16 80.3653 130.116C81.8992 129.101 83.536 128.438 85.2854 128.11C87.0278 127.787 88.6941 127.792 90.2912 128.12C91.8814 128.452 93.4024 129.107 94.8429 130.084C96.2878 131.067 97.4809 132.314 98.4267 133.83C99.4029 135.396 100.019 137.05 100.275 138.794C100.53 140.539 100.478 142.223 100.109 143.864C99.7398 145.505 99.054 147.073 98.036 148.558C97.0155 150.055 95.7475 151.309 94.2223 152.338C92.6528 153.403 90.9985 154.116 89.2638 154.483C87.5292 154.849 85.8437 154.876 84.2161 154.577C82.5841 154.271 81.0579 153.638 79.6426 152.655C78.209 151.675 77.0124 150.392 76.0276 148.812Z" fill="#F6C33E"/>
<path d="M183.86 35.2764C186.506 34.5643 189.286 34.0165 192.204 33.6443C195.114 33.2685 198.117 33.1659 201.201 33.3407C204.277 33.5119 207.454 34.0157 210.74 34.8558C214.011 35.6887 217.385 36.9473 220.839 38.6209C225.522 40.8915 229.47 43.5884 232.702 46.7111C235.911 49.8233 238.322 53.2031 239.924 56.8546C241.522 60.495 242.276 64.3261 242.196 68.3438C242.116 72.3614 241.11 76.4116 239.181 80.5053C237.302 84.4936 235.095 87.6744 232.552 90.0441C230.009 92.4139 227.338 94.2729 224.539 95.6026C221.73 96.9364 218.912 97.9167 216.081 98.5326C213.24 99.1525 210.546 99.7317 208.001 100.27C205.448 100.805 203.169 101.442 201.145 102.162C199.129 102.886 197.577 104.031 196.512 105.607L189.16 116.387L175.256 110.168L180.004 96.4775C180.075 96.1893 180.152 95.9493 180.24 95.7612C180.329 95.5731 180.435 95.3473 180.563 95.0764C181.669 92.7286 183.239 90.9581 185.267 89.78C187.287 88.5984 189.57 87.6602 192.086 86.9696C194.602 86.2791 197.232 85.6976 199.98 85.2176C202.721 84.734 205.379 84.0737 207.947 83.2331C210.515 82.3924 212.896 81.1877 215.078 79.6227C217.26 78.0578 219.018 75.8513 220.365 72.9917C221.262 71.0878 221.706 69.2093 221.692 67.3636C221.681 65.5104 221.282 63.7405 220.5 62.039C219.719 60.3375 218.565 58.7636 217.034 57.325C215.498 55.8752 213.682 54.6516 211.569 53.6469C208.481 52.1733 205.692 51.2548 203.229 50.8946C200.756 50.5383 198.57 50.4099 196.674 50.5279C194.77 50.6424 193.146 50.7877 191.787 50.9566C190.425 51.1331 189.335 51.0242 188.506 50.6338C186.522 49.6894 185.462 48.2064 185.336 46.1698L183.86 35.2764ZM154.885 137.426C155.665 135.77 156.733 134.324 158.078 133.109C159.424 131.895 160.914 130.997 162.558 130.42C164.197 129.85 165.945 129.579 167.793 129.622C169.645 129.658 171.449 130.066 173.21 130.841C174.919 131.591 176.384 132.622 177.626 133.933C178.86 135.241 179.772 136.664 180.371 138.206C180.962 139.744 181.24 141.401 181.2 143.166C181.156 144.939 180.75 146.642 179.977 148.282C179.179 149.975 178.107 151.411 176.761 152.588C175.415 153.765 173.95 154.647 172.347 155.235C170.745 155.823 169.031 156.1 167.205 156.049C165.368 156.002 163.602 155.611 161.886 154.876C160.114 154.124 158.597 153.106 157.33 151.829C156.064 150.551 155.114 149.129 154.474 147.577C153.837 146.017 153.538 144.368 153.597 142.621C153.644 140.86 154.08 139.134 154.885 137.426Z" fill="#F6C33E"/>
<path d="M85.9086 19.4085C88.1293 17.2624 90.5721 15.2053 93.247 13.2458C95.9125 11.2868 98.818 9.5472 101.955 8.03679C105.082 6.52699 108.491 5.29016 112.19 4.32568C115.87 3.36242 119.884 2.76263 124.204 2.52815C130.061 2.21233 135.427 2.71784 140.318 4.03409C145.181 5.35216 149.404 7.36972 152.976 10.0967C156.539 12.815 159.373 16.1821 161.487 20.1881C163.6 24.194 164.818 28.7376 165.15 33.8275C165.473 38.7863 165.031 43.1279 163.816 46.8527C162.601 50.5776 160.982 53.8684 158.947 56.707C156.904 59.5556 154.66 62.0602 152.204 64.2121C149.74 66.374 147.4 68.4151 145.183 70.3354C142.957 72.2563 141.057 74.1277 139.454 75.9422C137.861 77.7561 136.955 79.732 136.765 81.8678L135.396 96.5116L118.29 97.9643L115.502 81.8719C115.415 81.5487 115.359 81.2704 115.344 81.0365C115.329 80.8026 115.31 80.5219 115.288 80.1851C115.098 77.2659 115.681 74.6628 117.038 72.3945C118.386 70.1268 120.125 67.9558 122.229 65.9019C124.334 63.848 126.611 61.8392 129.059 59.8663C131.498 57.8939 133.759 55.7922 135.833 53.5618C137.907 51.3313 139.598 48.844 140.896 46.1097C142.195 43.3754 142.724 40.2402 142.492 36.6848C142.338 34.3176 141.75 32.223 140.729 30.4103C139.708 28.5882 138.348 27.0607 136.649 25.809C134.95 24.5572 132.952 23.635 130.657 23.0516C128.352 22.4595 125.893 22.2439 123.261 22.406C119.411 22.638 116.159 23.2539 113.534 24.2423C110.9 25.2408 108.675 26.3066 106.869 27.4578C105.054 28.6097 103.531 29.639 102.283 30.5472C101.036 31.4647 99.9015 31.9521 98.8713 32.0192C96.3985 32.1709 94.5446 31.2863 93.3085 29.3466L85.9086 19.4085ZM113.073 135.964C112.939 133.905 113.203 131.896 113.867 129.964C114.531 128.032 115.511 126.334 116.817 124.867C118.123 123.41 119.699 122.19 121.545 121.224C123.391 120.248 125.394 119.667 127.553 119.47C129.647 119.277 131.655 119.494 133.595 120.11C135.525 120.726 137.202 121.632 138.634 122.826C140.057 124.02 141.235 125.503 142.158 127.266C143.083 129.038 143.611 130.939 143.744 132.979C143.881 135.084 143.607 137.085 142.922 138.98C142.236 140.876 141.273 142.545 140.013 143.999C138.754 145.453 137.215 146.662 135.386 147.608C133.549 148.564 131.593 149.143 129.5 149.354C127.342 149.579 125.29 149.403 123.344 148.834C121.398 148.266 119.685 147.381 118.207 146.2C116.728 145.009 115.532 143.546 114.637 141.791C113.723 140.027 113.211 138.088 113.073 135.964Z" fill="#F6C33E"/>
</svg>
