<svg width="346" height="345" viewBox="0 0 346 345" fill="none" xmlns="http://www.w3.org/2000/svg">
<path d="M340.91 146.973C331.529 85.5889 293.077 10.168 217.113 2.27081C217.113 2.27081 159.436 -4.74757 102.578 5.89282C68.829 12.1987 39.2483 30.9856 20.5214 57.9903C1.8182 84.9832 -4.43994 117.902 3.14821 149.289C8.07635 169.679 11.4132 190.77 10.4989 211.718C9.34698 238.141 7.17385 265.917 18.8589 290.547C35.9708 326.636 77.7234 337.277 114.144 340.661C127.563 341.908 141.041 342.419 154.484 343.476C180.264 345.518 209.168 342.217 234.011 335.507C360.611 301.318 350.291 208.357 340.91 146.973Z" fill="#F4F7FA"/>
<path d="M155.909 277.069L174.684 294.039C174.684 294.039 186.915 287.602 188.459 276.653C191.594 254.304 210.95 258.614 219.322 259.208C231.957 260.099 241.968 255.562 237.455 242.666C232.349 228.083 254.425 221.48 274.624 225.862C294.384 230.149 313.408 197.503 271.489 184.286C246.456 176.401 232.278 197.681 222.552 206.719C212.838 215.768 197.508 203.394 191.665 219.889C186.678 233.985 188.043 248.77 175.503 250.23C162.963 251.679 155.197 258.994 155.909 277.069Z" fill="url(#paint0_linear)"/>
<g opacity="0.5">
<path opacity="0.5" d="M162.465 286.153L162.917 286.438C163.095 286.153 180.599 258.044 206.356 235.397C230.082 214.544 265.885 194.201 301.641 215.743L301.914 215.28C285.99 205.697 268.747 203.464 250.649 208.654C236.198 212.798 221.164 221.669 205.987 235.005C180.183 257.699 162.632 285.88 162.465 286.153Z" fill="#BEB8F2"/>
<path opacity="0.5" d="M243.18 211.148L243.619 211.457C253.808 196.897 275.599 182.801 275.812 182.659L275.527 182.208C275.314 182.362 253.44 196.506 243.18 211.148Z" fill="#BEB8F2"/>
<path opacity="0.5" d="M255.34 208.025C276.193 211.766 285.052 227.014 285.135 227.168L285.598 226.907C285.515 226.753 276.537 211.291 255.424 207.502L255.34 208.025Z" fill="#BEB8F2"/>
<path opacity="0.5" d="M190.325 251.121C211.641 236.443 241.186 254.814 241.459 255.016L241.803 254.612C241.554 254.386 211.522 235.872 190.016 250.681L190.325 251.121Z" fill="#BEB8F2"/>
<path opacity="0.5" d="M197.354 243.093L197.817 243.366C206.154 229.115 200.608 209.105 200.549 208.903L200.038 209.046C200.086 209.236 205.584 229.032 197.354 243.093Z" fill="#BEB8F2"/>
<path opacity="0.5" d="M165.767 282.069C172.904 275.311 188.496 278.933 188.65 278.969L188.769 278.447C188.116 278.292 172.75 274.718 165.399 281.677L165.767 282.069Z" fill="#BEB8F2"/>
<path opacity="0.5" d="M169.828 275.359L170.279 275.644C174.447 269.077 171.574 254.981 170.624 250.349C170.493 249.696 170.374 249.126 170.374 249.019H169.84C169.84 249.162 169.911 249.542 170.101 250.456C171.039 255.04 173.877 268.982 169.828 275.359Z" fill="#BEB8F2"/>
</g>
<path d="M208.671 288.967L191.06 304.88C191.06 304.88 179.589 298.836 178.14 288.563C175.195 267.603 157.038 271.641 149.189 272.199C137.338 273.042 127.945 268.779 132.172 256.69C136.958 243.009 116.248 236.81 97.307 240.919C78.77 244.945 60.9218 214.318 100.24 201.92C123.717 194.522 137.029 214.485 146.137 222.964C155.257 231.443 169.626 219.84 175.1 235.314C179.779 248.531 178.497 262.414 190.265 263.768C202.057 265.145 209.336 272.009 208.671 288.967Z" fill="url(#paint1_linear)"/>
<g opacity="0.5">
<path opacity="0.5" d="M202.519 297.494L202.092 297.755C201.926 297.494 185.502 271.118 161.349 249.885C139.083 230.326 105.512 211.243 71.9652 231.443L71.704 231.015C86.6309 222.025 102.817 219.923 119.798 224.792C133.359 228.676 147.455 237 161.693 249.505C185.906 270.798 202.365 297.221 202.519 297.494Z" fill="#BEB8F2"/>
<path opacity="0.5" d="M126.804 227.132L126.389 227.417C116.829 213.76 96.3922 200.543 96.1903 200.412L96.4634 199.985C96.6653 200.127 117.185 213.392 126.804 227.132Z" fill="#BEB8F2"/>
<path opacity="0.5" d="M115.404 224.199C95.8456 227.702 87.5331 242.012 87.45 242.155L87.0106 241.905C87.0937 241.763 95.5131 227.251 115.309 223.7L115.404 224.199Z" fill="#BEB8F2"/>
<path opacity="0.5" d="M176.394 264.622C156.408 250.847 128.68 268.09 128.43 268.28L128.11 267.9C128.347 267.686 156.515 250.325 176.691 264.219L176.394 264.622Z" fill="#BEB8F2"/>
<path opacity="0.5" d="M169.792 257.094L169.364 257.343C161.539 243.971 166.752 225.196 166.811 225.018L167.298 225.161C167.239 225.339 162.085 243.912 169.792 257.094Z" fill="#BEB8F2"/>
<path opacity="0.5" d="M199.419 293.658C192.722 287.317 178.104 290.713 177.949 290.749L177.831 290.262C178.436 290.119 192.864 286.771 199.752 293.29L199.419 293.658Z" fill="#BEB8F2"/>
<path opacity="0.5" d="M195.62 287.364L195.192 287.637C191.285 281.486 193.981 268.256 194.872 263.91C195.002 263.292 195.109 262.77 195.109 262.663H195.608C195.608 262.806 195.537 263.15 195.359 264.005C194.48 268.304 191.82 281.379 195.62 287.364Z" fill="#BEB8F2"/>
</g>
<path d="M165.374 287.875C163.415 296.069 168.485 302.482 172.891 306.555C173.675 306.365 174.173 306.448 175.016 306.424C182.545 306.234 185.716 304.548 193.102 303.182C194.693 302.885 199.099 300.605 200.845 299.56L204.063 297.553C204.063 297.553 206.224 278.268 195.453 275.845C184.683 273.411 184.41 254.837 183.056 245.016C182.225 238.984 179.909 236.49 179.244 234.329C172.238 211.385 177.581 202.799 170.718 196.731C163.141 190.045 154.461 198.595 145.839 191.755C136.102 184.024 140.638 167.933 129.784 162.684C127.92 161.781 125.984 160.915 123.241 160.784C116.449 160.463 112.186 165.404 106.391 161.283C94.7531 152.994 78.888 152.994 72.4162 166.223C66.0274 179.286 81.5956 198.073 112.162 208.571C133.038 218.522 134.285 222.774 135.271 233.652C135.959 241.276 132.789 262.39 145.198 267.342C157.584 272.294 167.618 278.493 165.374 287.875Z" fill="url(#paint2_linear)"/>
<g opacity="0.5">
<path opacity="0.5" d="M189.373 304.417L189.895 304.216C188.827 301.354 187.722 298.468 186.594 295.665C178.246 274.895 168.116 255.716 156.479 238.687C146.623 224.258 135.543 211.148 123.55 199.736C113.907 190.556 103.635 182.421 93.0069 175.545C85.5375 170.712 77.9612 166.556 70.5156 163.183C69.2212 162.589 67.8556 162.067 66.5256 161.556C64.7681 160.867 62.9393 160.167 61.265 159.312L60.9918 159.775C62.69 160.63 64.5187 161.342 66.3 162.031C67.6181 162.542 68.9718 163.064 70.2662 163.646C77.7 167.007 85.2406 171.151 92.6982 175.973C103.303 182.825 113.551 190.948 123.169 200.104C135.128 211.492 146.183 224.567 156.028 238.972C167.642 255.978 177.759 275.121 186.095 295.855C187.2 298.682 188.304 301.555 189.373 304.417Z" fill="#FCFDFE"/>
<path opacity="0.5" d="M137.099 214.615L137.539 214.283C123.383 197.277 123.835 159.074 123.847 158.682L123.3 158.706C123.277 159.086 122.825 197.467 137.099 214.615Z" fill="#FCFDFE"/>
<path opacity="0.5" d="M172.095 265.739L172.57 265.454C164.435 252.748 134.083 249.066 133.774 249.031L133.679 249.541C133.988 249.577 164.091 253.235 172.095 265.739Z" fill="#FCFDFE"/>
<path opacity="0.5" d="M176.038 273.363L176.548 273.162C172.926 264.018 173.247 249.434 177.451 232.084C177.665 231.218 177.665 231.218 177.629 231.123L177.118 231.324L177.379 231.229H177.106C177.095 231.289 177.023 231.621 176.928 232.001C172.689 249.434 172.368 264.136 176.038 273.363Z" fill="#FCFDFE"/>
<path opacity="0.5" d="M187.354 299.216L187.794 298.884C180.87 290.488 163.735 290.844 163.569 290.844L163.557 291.366C163.711 291.366 180.585 291.022 187.354 299.216Z" fill="#FCFDFE"/>
<path opacity="0.5" d="M190.191 304.252C190.334 295.405 193.148 286.165 198.813 276L198.338 275.774C192.638 286.023 189.788 295.345 189.657 304.275L190.191 304.252Z" fill="#FCFDFE"/>
<path opacity="0.5" d="M98.8608 180.141L99.2764 179.785C90.8214 170.771 84.2545 159.324 82.1051 155.559C81.5826 154.645 81.3926 154.324 81.3095 154.229L80.882 154.573C80.9413 154.645 81.2501 155.167 81.6182 155.832C83.7913 159.609 90.3701 171.092 98.8608 180.141Z" fill="#FCFDFE"/>
<path opacity="0.5" d="M115.011 192.729L115.308 192.277C104.977 186.565 81.0365 192.931 80.0153 193.204L80.134 193.703C80.3834 193.643 104.87 187.124 115.011 192.729Z" fill="#FCFDFE"/>
</g>
<path d="M206.461 279.966C204.917 279.74 198.446 293.444 194.147 283.184C193.066 280.619 191.95 271.795 180.538 271.19C178.317 271.071 176.109 270.952 173.888 270.834C172.071 265.822 171.287 260.763 178.044 258.97C188.542 256.191 188.862 238.758 186.001 232.535C182.474 224.84 174.636 206.754 190.786 202.217C204.229 198.441 213.764 198.607 214.762 182.278C215.759 165.938 225.236 155.915 240.923 157.162C257.429 158.48 271.038 137.947 284.528 145.132C308.052 157.661 286.57 193.311 257.88 203.239C229.19 213.166 245.59 223.225 246.314 236.62C246.314 237.867 246.207 239.803 245.661 242.059C242.264 255.965 227.634 258.115 217.006 269.373C202.519 284.74 209.05 280.346 206.461 279.966Z" fill="url(#paint3_linear)"/>
<g opacity="0.5">
<path opacity="0.5" d="M194.195 269.931L193.435 269.765C205.06 217.192 243.713 170.617 294.289 148.208L294.634 148.873C244.26 171.199 205.773 217.572 194.195 269.931Z" fill="#FCFDFE"/>
<path opacity="0.5" d="M203.136 241.822L202.353 241.81C202.507 220.636 183.46 203.738 183.258 203.572L183.78 203.037C183.982 203.191 203.291 220.316 203.136 241.822Z" fill="#FCFDFE"/>
<path opacity="0.5" d="M196.616 260.312L195.927 259.944C206.841 241.288 248.106 239.483 248.522 239.459L248.57 240.195C248.154 240.219 207.316 242.012 196.616 260.312Z" fill="#FCFDFE"/>
<path opacity="0.5" d="M231.149 196.541L230.437 196.233C237.716 180.759 227.1 156.497 226.993 156.26L227.706 155.987C227.824 156.236 238.559 180.795 231.149 196.541Z" fill="#FCFDFE"/>
<path opacity="0.5" d="M256.182 172.209L255.778 171.568C273.329 161.782 300.369 167.958 300.642 168.029L300.464 168.741C300.203 168.682 273.472 162.578 256.182 172.209Z" fill="#FCFDFE"/>
</g>
<path d="M261.169 175.629C261.786 175.13 262.605 174.322 263.08 173.111C263.579 171.817 263.235 171.247 263.864 170.439C264.66 169.418 266.299 168.978 267.427 169.477C267.664 169.584 267.949 169.727 268.127 170.035C268.626 170.878 267.522 172.339 266.631 173.111C265.966 173.693 265.693 173.657 264.98 174.156C264.292 174.643 263.425 175.474 262.724 177.018L261.169 175.629Z" fill="url(#paint4_linear)"/>
<path d="M298.195 168.551C297.435 168.337 296.366 167.91 295.463 166.983C294.502 165.986 294.597 165.321 293.706 164.822C292.566 164.193 290.892 164.43 290.048 165.321C289.87 165.511 289.668 165.76 289.621 166.116C289.49 167.09 291.082 168.005 292.198 168.373C293.041 168.646 293.278 168.503 294.122 168.693C294.941 168.871 296.069 169.311 297.316 170.451L298.195 168.551Z" fill="url(#paint5_linear)"/>
<path d="M294.656 169.75C294.17 172.09 296.699 174.18 298.516 176.223C302.173 180.32 306.009 187.647 304.608 193.929C303.836 197.361 301.378 201.066 297.898 202.824C294.158 204.712 291.913 202.99 288.018 205.246C287.733 205.412 282.805 208.334 282.663 212.276C282.485 217.145 289.633 222.311 295.761 222.715C306.959 223.439 320.449 208.548 319.82 193.774C319.131 177.695 301.853 164.929 296.889 167.09C296.081 167.435 294.941 168.432 294.656 169.75Z" fill="url(#paint6_linear)"/>
<path d="M289.68 336.28L289.277 340.353L291.177 340.008L292.447 336.185L289.68 336.28Z" fill="url(#paint7_linear)"/>
<path d="M301.235 260.99C301.033 268.222 300.131 274.421 299.062 279.468C297.91 284.907 297.245 285.845 296.889 289.61C296.105 297.792 298.741 298.967 299.228 308.206C299.763 318.419 297.043 326.53 295.975 329.63C295.036 332.337 294.063 334.522 293.326 336.043C292.388 336.862 290.963 336.541 289.455 336.244C288.897 326.982 288.208 318.265 287.65 309.002C285.857 295.072 284.064 281.13 282.271 267.201C288.6 265.134 294.918 263.068 301.235 260.99Z" fill="url(#paint8_linear)"/>
<path opacity="0.3" d="M289.467 336.244C288.909 326.982 288.22 318.265 287.662 309.002C285.869 295.072 284.076 281.13 282.282 267.201C288.6 265.134 294.929 263.068 301.247 260.99C301.235 261.465 301.211 261.928 301.188 262.403C292.317 270.098 290.583 276.202 290.666 280.37C290.773 285.418 293.528 287.923 292.994 295.239C292.614 300.476 291.034 301.39 291.034 306.116C291.034 312.197 293.647 315.617 294.917 319.132C296.141 322.528 296.58 327.338 294.205 334.178C293.896 334.879 293.599 335.52 293.338 336.054C292.4 336.862 290.975 336.553 289.467 336.244Z" fill="url(#paint9_linear)"/>
<path d="M290.394 341.742C291.296 340.626 292.116 340.709 292.27 339.961C292.389 339.367 292.009 338.655 291.463 338.393C290.691 338.025 289.776 338.643 289.563 338.785C288.161 339.747 288.577 341.184 287.247 341.837C286.974 341.968 286.558 342.11 286.107 342.55C285.917 342.728 285.454 343.191 285.573 343.488C285.703 343.844 286.558 343.808 287.366 343.785C288.328 343.749 288.814 343.737 289.278 343.428C289.895 343.013 289.693 342.597 290.394 341.742Z" fill="url(#paint10_linear)"/>
<path d="M288.48 306.888L292.031 308.278L293.064 306.651L290.285 304.786L288.48 306.888Z" fill="url(#paint11_linear)"/>
<path d="M293.896 309.132C293.682 307.719 294.311 307.161 293.848 306.543C293.492 306.056 292.708 305.842 292.138 306.068C291.342 306.389 291.176 307.481 291.141 307.731C290.891 309.417 292.233 310.082 291.817 311.507C291.734 311.792 291.544 312.208 291.568 312.825C291.58 313.086 291.592 313.74 291.901 313.858C292.257 314.001 292.803 313.359 293.326 312.742C293.955 312.006 294.276 311.638 294.359 311.103C294.489 310.355 294.062 310.224 293.896 309.132Z" fill="url(#paint12_linear)"/>
<path d="M273.126 254.565C266.512 268.044 264.268 279.29 263.424 286.629C262.878 291.343 262.926 294.265 264.291 297.198C269.16 307.696 286.141 308.384 288.73 308.468C289.573 306.734 290.428 304.988 291.271 303.254C289.704 300.357 286.985 296.331 282.318 293.398C278.731 291.141 277.318 291.628 276.428 290.108C272.83 284.016 292.245 270.834 289.348 262.046C288.338 258.994 284.479 255.919 273.126 254.565Z" fill="url(#paint13_linear)"/>
<path d="M287.448 206.101C280.299 207.324 274.86 208.607 272.438 212.348C269.873 216.302 273.946 219.271 275.062 227.94C276.76 241.217 269.125 246.169 271.321 259.541C271.678 261.726 272.224 263.661 272.806 265.324C273.839 268.233 275.834 270.692 278.446 272.342C280.406 273.577 282.793 274.812 285.595 275.798C292.839 278.327 296.413 276.855 306.163 277.413C322.099 278.328 324.486 282.947 331.694 280.109C338.973 277.235 344.246 269.468 342.702 266.155C341.776 264.172 338.867 265.407 334.675 262.973C329.283 259.826 330.186 255.539 325.816 251.857C319.534 246.573 313.49 251.905 308.122 247.309C302.683 242.654 302.042 231.348 304.346 224.615C305.854 220.221 305.878 215.435 307.006 210.923C307.101 210.543 307.172 209.949 306.935 209.272C306.044 206.683 301.294 206.184 297.708 205.84C292.245 205.317 288.041 206.006 287.448 206.101Z" fill="url(#paint14_linear)"/>
<path opacity="0.3" d="M330.863 275.074C328.654 273.601 329.854 269.433 326.588 267.224C323.56 265.169 321.185 267.853 316.72 266.488C310.984 264.73 311.281 259.208 305.795 257.45C301.841 256.18 300.653 258.709 294.953 258.816C289.265 258.923 281.807 256.572 277.081 250.539C275.074 247.974 273.958 245.242 273.341 242.713C271.821 247.629 270.17 252.38 271.346 259.552C271.821 262.45 272.628 264.932 273.424 266.879C274.16 268.696 275.419 270.264 277.034 271.38C279.231 272.912 282.104 274.563 285.631 275.798C292.875 278.327 296.449 276.855 306.199 277.413C322.135 278.327 324.522 282.947 331.73 280.109C336.385 278.268 340.197 274.444 341.955 271.048C335.625 275.632 332.466 276.142 330.863 275.074Z" fill="url(#paint15_linear)"/>
<path d="M283.933 194.321C283.933 194.321 281.985 197.979 281.866 200.544C281.748 203.109 284.633 202.919 284.633 202.919L284.526 204.534C284.431 205.912 283.541 207.111 282.234 207.586L281.094 208.002C281.094 208.002 288.552 209.593 292.625 206.719L291.45 206.6C289.787 206.434 288.469 205.128 288.303 203.465L288.231 202.777C288.231 202.8 289.526 194.796 283.933 194.321Z" fill="url(#paint16_linear)"/>
<path d="M264.767 176.365C265.883 178.478 264.03 181.174 262.831 183.644C260.444 188.596 258.77 196.695 261.857 202.336C263.544 205.424 266.94 208.309 270.764 209.046C274.884 209.83 276.57 207.561 280.929 208.642C281.249 208.725 286.795 210.174 288.018 213.927C289.526 218.558 284.087 225.493 278.304 227.571C267.747 231.36 250.671 220.767 247.203 206.397C243.427 190.746 256.514 173.716 261.893 174.429C262.748 174.524 264.137 175.177 264.767 176.365Z" fill="url(#paint17_linear)"/>
<path d="M285.097 197.954C285.477 197.918 285.798 197.432 286.059 197.574C286.332 197.728 286.308 198.441 286.059 198.94C285.857 199.355 285.536 199.581 285.358 199.688C285.655 200.103 286.035 200.745 286.19 201.576C286.534 203.429 285.548 204.925 285.144 205.792C283.292 209.723 286.166 215.945 289.325 219.08C291.89 221.634 293.077 220.6 294.609 222.691C297.59 226.752 293.481 231.205 295.013 236.668C297.352 244.969 310.462 247.439 311.008 247.534C311.222 247.57 311.365 247.593 311.59 247.629C317.468 248.567 326.387 249.98 332.657 245.147C337.347 241.537 339.508 235.255 339.152 229.721C339.057 228.26 338.618 222.738 334.117 218.225C333.405 217.513 329.165 213.285 323.453 213.226C320.425 213.202 319.808 214.271 317.492 213.606C314.321 212.703 312.362 209.818 311.151 208.024C308.918 204.735 309.833 204.034 308.218 202.407C305.071 199.237 301.39 201.73 298.029 198.928C294.716 196.173 296.711 192.432 293.516 190.045C290.227 187.587 283.921 188.442 282.58 191.375C281.451 193.916 283.921 198.061 285.097 197.954Z" fill="url(#paint18_linear)"/>
<path d="M293.528 165.998C293.528 165.998 292.198 166.354 291.51 165.345C290.821 164.335 290.536 166.045 291.45 166.663C292.365 167.28 293.267 167.482 293.267 167.482L293.528 165.998Z" fill="url(#paint19_linear)"/>
<path d="M233.12 282.531C232.621 281.913 218.549 282.198 200.559 282.828C193.659 282.246 186.012 282.044 177.949 282.317C168.662 282.626 159.899 283.516 152.168 284.835C135.127 285.618 122.16 286.26 122.16 286.26C122.16 286.26 120.212 299.346 122.955 301.733H122.967C128.05 308.348 150.885 312.623 178.091 311.602C208.028 310.474 232.17 303.336 233.167 295.511C233.191 295.511 233.215 295.511 233.215 295.511C233.215 295.511 234.521 284.276 233.12 282.531Z" fill="#FFDB44"/>
<path d="M233.726 283.991C233.786 292.007 209.097 299.406 178.341 300.51C147.3 301.626 121.899 295.926 121.875 287.78C121.852 279.633 147.193 272.223 178.199 271.249C208.919 270.275 233.667 275.975 233.726 283.991Z" fill="#F6C33E"/>
<path d="M224.12 271.558C223.692 271.023 211.817 271.237 196.665 271.748C190.858 271.237 184.41 271.047 177.617 271.261C169.803 271.51 162.429 272.258 155.921 273.375C141.6 274.004 130.711 274.538 130.711 274.538C130.711 274.538 129.072 285.773 131.376 287.827H131.388C135.663 293.515 154.853 297.256 177.736 296.437C202.958 295.546 223.312 289.454 224.155 282.732C224.179 282.732 224.203 282.732 224.203 282.732C224.203 282.732 225.307 273.054 224.12 271.558Z" fill="url(#paint20_linear)"/>
<path d="M224.915 272.805C224.962 279.704 204.086 286.022 178.092 286.901C151.895 287.791 130.496 282.839 130.473 275.833C130.449 268.838 151.8 262.52 177.961 261.725C203.932 260.953 224.867 265.905 224.915 272.805Z" fill="#F6C33E"/>
<path d="M205.428 269.112C205.44 271.784 193.316 274.337 178.282 274.812C173.603 274.966 169.198 274.895 165.35 274.646C156.741 274.099 150.875 272.674 150.863 270.822C150.863 270.169 151.587 269.717 152.893 269.112C162.928 261.428 162.417 221.099 162.417 221.099L193.791 220.339C193.791 220.339 193.625 263.815 204.87 268.209C204.87 268.209 204.823 268.126 204.752 268.162C205.203 268.494 205.428 268.756 205.428 269.112Z" fill="#F6C33E"/>
<path opacity="0.3" d="M165.361 274.646C156.752 274.099 150.885 272.674 150.873 270.822C150.873 270.169 151.598 269.717 152.904 269.112C162.938 261.428 162.428 221.099 162.428 221.099L169.007 220.945C173.424 221.372 177.77 223.189 178.483 225.933C178.471 225.933 181.25 272.069 165.361 274.646Z" fill="#F6C33E"/>
<path d="M221.732 180.189L225.591 180.117C241.931 179.821 256.407 169.263 261.668 153.778L281.154 96.3362C282.294 92.9636 281.76 89.3772 279.658 86.4677C277.628 83.6413 274.35 82.0263 270.657 82.0382C270.574 82.0382 270.491 82.05 270.396 82.05L224.819 83.9738C221.126 84.1282 218.264 87.2396 218.431 90.9091C218.597 94.5786 221.732 97.4406 225.425 97.2625L267.522 95.398L249.056 149.598C245.601 159.739 236.124 166.651 225.472 166.817L221.613 166.876C217.896 166.936 214.904 169.94 214.927 173.645C214.987 177.35 218.015 180.26 221.732 180.189Z" fill="#F6C33E"/>
<path d="M248.131 66.327C248.131 66.327 248.131 67.9658 248.059 70.8871C248.059 71.2434 248.047 71.6115 248.036 72.0034C247.406 95.4812 242.537 185.841 204.715 215.922C201.972 218.107 199.49 219.971 196.403 221.468C191.403 223.89 185.407 225.375 180.336 225.707V225.731C179.065 225.755 179.517 225.743 179.279 225.743C179.042 225.755 178.65 225.767 178.222 225.778V225.755C115.724 225.446 107.328 100.92 106.259 72.3241C106.164 69.7471 105.939 67.942 105.915 67.0751C105.903 66.6951 105.808 66.4695 105.808 66.4695L176.702 66.2676H178.721L248.131 66.327Z" fill="url(#paint21_linear)"/>
<path opacity="0.4" d="M196.402 221.467C191.403 223.89 185.406 225.374 180.335 225.707V225.73C179.064 225.754 179.516 225.742 179.278 225.742C179.041 225.754 178.649 225.766 178.221 225.778V225.754C115.723 225.445 107.327 100.92 106.259 72.3235C105.784 72.2047 105.13 72.086 104.703 71.9672C104.489 71.9078 104.145 71.8366 103.895 71.7653C103.551 68.3096 103.325 66.3857 103.325 66.3857L105.748 67.0864L126.802 73.0954C126.802 73.0954 126.838 73.9741 126.945 75.5773C127.966 92.2742 135.067 188.168 158.022 196.077C179.373 203.416 177.058 221.645 196.402 221.467Z" fill="#F6C33E"/>
<path d="M126.376 173.277L122.398 173.348C111.366 173.538 101.438 166.746 97.7331 156.485L77.7593 101.193L117.208 102.44C117.208 102.44 127.587 97.7968 118.051 88.9377L74.5887 87.4771C74.4937 87.4771 74.4105 87.4771 74.3155 87.4771C70.4087 87.4889 66.9293 89.1871 64.7918 92.1322C62.583 95.1605 62.0368 98.9012 63.2955 102.369L84.5518 161.152C90.2518 176.875 105.499 187.195 122.445 186.874L126.423 186.803C130.247 186.732 133.334 183.68 133.323 179.927C133.299 176.151 130.199 173.206 126.376 173.277Z" fill="#F6C33E"/>
<g opacity="0.4">
<path opacity="0.4" d="M248.059 70.8982C248.059 71.2545 248.047 71.6226 248.035 72.0145C247.406 95.4922 242.537 185.852 204.715 215.933C238.381 185.461 237.526 68.25 237.526 68.25L248.059 70.8982Z" fill="white"/>
</g>
<path d="M259.708 61.8257C259.767 68.6303 252.037 70.8629 249.115 71.7061C248.759 71.8011 248.403 71.9079 248.035 72.003C244.033 73.0599 238.665 74.0099 232.039 74.8174C217.551 76.5987 198.255 77.6082 177.628 77.6675C158.972 77.715 141.183 76.9788 126.933 75.5656C125.342 75.4112 123.786 75.2449 122.29 75.0668C115.545 74.283 110.035 73.3686 105.879 72.3236C105.404 72.2048 104.952 72.0861 104.513 71.9555C104.299 71.8961 104.05 71.8248 103.8 71.7536C100.357 70.756 93.3385 68.3572 93.3267 61.8613C93.3148 54.8904 101.425 52.6222 104.477 51.7791C108.764 50.5915 114.725 49.5465 122.231 48.6677C137.122 46.922 156.763 45.9957 177.473 46.0432C198.076 46.0907 217.361 47.0764 231.849 48.8458C239.093 49.7246 244.84 50.7815 248.961 51.9453C251.894 52.8004 259.648 55.0329 259.708 61.8257Z" fill="#FFDB44"/>
<path d="M253.059 58.5362C253.083 61.6951 219.5 64.2839 177.557 64.3077C135.092 64.3314 100.263 61.7307 100.251 58.5006C100.251 55.2705 135.045 52.6817 177.498 52.7292C219.417 52.7767 253.035 55.3774 253.059 58.5362Z" fill="#F6C33E"/>
<path opacity="0.3" d="M253.059 58.5362C253.083 61.6951 219.5 64.2839 177.557 64.3077C135.092 64.3314 100.263 61.7307 100.251 58.5006C100.251 55.2705 135.045 52.6817 177.498 52.7292C219.417 52.7767 253.035 55.3774 253.059 58.5362Z" fill="#CC9D3E"/>
<path d="M92.673 186.838L90.6187 185.971C90.6187 185.971 88.2674 183.287 87.7449 184.51C87.2224 185.734 85.9874 188.952 87.9112 188.892C89.8349 188.833 91.7587 187.942 92.293 188.346L92.673 186.838Z" fill="url(#paint22_linear)"/>
<path d="M58.8645 154.478L61.2276 152.388C61.6789 151.984 61.9401 151.402 61.9164 150.785C61.8808 149.894 61.9401 148.6 62.4389 147.911C63.2464 146.807 66.2626 147.709 66.4051 147.911C66.9989 148.802 67.2127 150.345 65.4195 150.915C63.6264 151.485 63.1633 152.435 63.1633 152.435L60.3251 156.437L58.8645 154.478Z" fill="url(#paint23_linear)"/>
<path d="M70.3475 339.509C70.1218 338.82 67.735 338.5 66.7375 339.616C66.2387 340.162 65.9893 341.172 66.3812 341.564C66.5237 341.706 66.0725 342.051 66.5356 341.991C68.0793 341.777 70.5731 340.198 70.3475 339.509Z" fill="url(#paint24_linear)"/>
<path d="M67.9842 340.103H65.5854C66.488 338.63 65.6923 334.486 65.6923 334.486L68.2692 334.688C68.2692 334.688 68.1505 335.875 67.9011 337.633C67.8298 338.238 67.8773 339.153 67.9842 340.103Z" fill="url(#paint25_linear)"/>
<path d="M74.2072 249.292C75.3235 252.961 76.9028 258.899 77.936 266.333C80.8572 287.554 74.6585 288.231 75.8103 311.745C76.1785 319.25 69.3147 336.552 68.6972 336.933C68.4003 336.956 68.0916 336.98 67.7472 336.968C67.1534 336.944 66.3103 336.861 65.3247 336.564C64.2322 336.374 60.3134 325.746 61.2159 319.428C62.3084 311.816 60.9665 306.531 61.299 300.558C62.0947 286.26 61.3465 271.154 60.349 271.107C59.7197 271.071 58.6747 277.045 57.5821 283.315C56.3234 290.523 56.1215 293.813 53.4496 296.948C51.6446 299.074 49.4953 300.214 47.999 300.843C29.8064 308.443 32.3358 308.503 28.3696 311.78C27.7164 312.327 25.9352 313.847 24.6764 313.3C23.8333 312.932 23.5958 311.78 23.4889 311.258C22.6577 307.125 25.2108 298.527 31.9677 295.297C34.3902 294.145 35.0552 294.751 37.3946 293.314C40.2921 291.521 42.3702 288.599 43.2609 285.892C44.8284 281.118 42.3702 278.149 41.0165 271.819C40.7552 270.608 41.1471 259.742 42.3227 252.581C43.8546 243.2 74.2072 249.292 74.2072 249.292Z" fill="url(#paint26_linear)"/>
<path d="M68.1506 339.782C68.1506 339.782 65.2293 339.533 64.9918 340.139C64.7662 340.744 64.7425 342.288 66.5356 341.979C68.3287 341.682 68.3762 340.234 68.1506 339.782Z" fill="url(#paint27_linear)"/>
<path d="M92.1028 186.364C91.8534 187.159 91.5922 187.967 91.3428 188.763C93.1834 190.164 98.2303 194.368 97.6247 198.869C96.7459 205.376 84.6215 208.333 76.9384 208.31C74.8365 208.31 61.1564 208.274 54.7321 198.465C49.0914 189.843 52.5827 179.084 55.4683 170.201C57.7008 163.337 60.7764 158.171 62.9971 154.929C61.7265 153.849 60.4558 152.768 59.1733 151.688C54.5539 154.478 45.9445 160.642 40.3751 171.709C35.2451 181.91 34.9482 191.815 35.0076 195.579C35.0789 200.246 35.7676 201.529 35.8864 208.274C35.9933 214.497 35.4945 218.38 34.7226 225.624C32.027 251.073 32.6801 255.633 34.6632 260.17C36.3258 263.982 37.7626 267.271 41.242 269.254C48.2127 273.209 54.0552 266.606 69.2552 267.829C74.5396 268.257 76.4159 269.254 78.589 267.734C79.8596 266.844 82.2109 264.397 81.4509 248.532C80.7978 234.982 78.8265 231.384 81.6528 227.488C84.1346 224.08 86.6759 225.422 94.3234 221.563C99.3228 219.033 110.117 213.582 111.079 204.604C111.768 198.097 106.958 192.978 106.175 192.147C100.653 186.281 93.2903 186.34 92.1028 186.364Z" fill="url(#paint28_linear)"/>
<path d="M66.2681 197.006C66.3998 194.631 64.8192 192.82 64.4826 192.429C63.0337 190.793 62.7264 190.59 62.1556 190.387L61.3799 190.127C61.3799 190.127 61.336 190.127 61.2921 190.112C60.8238 190.054 59.331 190.344 59.0529 190.474C58.1455 190.894 57.9992 194.978 59.5212 200.38C59.5359 200.597 59.5359 200.815 59.5505 201.032C59.5652 201.35 59.5798 201.611 59.5798 201.814C59.6091 202.77 58.7602 203.523 57.8089 203.378C52.9208 202.639 53.594 203.812 53.755 204.174C54.1501 205.058 58.6724 207.52 64.1313 208.852C70.8928 210.416 75.1517 210.228 74.5809 209.2C74.3614 208.809 71.0099 207.085 67.0437 205.782C66.151 205.492 65.4339 204.797 65.1558 203.914C64.7606 202.712 63.9996 201.061 63.824 200.554C64.146 200.264 66.1656 198.758 66.2681 197.006Z" fill="url(#paint29_linear)"/>
<path d="M61.7867 189.506C62.1294 191.107 61.7735 192.982 61.4571 193.338C61.4176 193.379 61.1935 193.666 61.0353 194.104C61.009 194.159 60.9958 194.227 60.9826 194.309C60.864 195.39 62.6566 196.225 62.4589 196.745C62.3139 197.128 61.1671 196.923 61.1012 197.237C61.0353 197.525 62.0371 197.881 61.9712 198.223C61.9185 198.483 61.3385 198.387 61.0749 198.838C60.9431 199.057 61.0221 199.194 60.9694 199.796C60.9431 200.138 60.864 200.521 60.7981 200.74C60.4685 201.808 59.0317 202.492 58.6627 202.191C58.5572 202.109 58.6099 201.999 58.4518 201.671C58.4518 201.671 58.3068 201.356 58.0036 201.041C57.5818 200.576 56.7382 200.371 55.855 199.974C54.2205 199.249 53.6405 198.442 53.4692 198.168C53.4033 198.072 53.3637 197.99 53.3374 197.935C52.7178 196.841 52.3356 195.116 52.6256 193.926C53.1001 191.942 55.2091 192.339 56.4086 190.204C57.7927 187.741 56.1055 185.209 57.0282 184.662C58.0563 184.087 61.1671 186.55 61.7867 189.506Z" fill="url(#paint30_linear)"/>
<path d="M61.3105 196.992C60.8711 196.6 60.3605 197.17 60.503 197.776C60.6336 198.382 61.358 198.88 61.9042 198.631C62.4386 198.382 61.9161 197.515 61.3105 196.992Z" fill="url(#paint31_linear)"/>
<path d="M25.3408 312.67L23.8208 313.881L22.7877 312.765L24.189 311.399C24.4621 311.126 24.9015 311.114 25.1983 311.352L25.3408 311.471C25.7208 311.791 25.7208 312.361 25.3408 312.67Z" fill="url(#paint32_linear)"/>
<path d="M22.4914 314.808C22.4557 313.68 21.8976 313.348 22.1589 312.801C22.3607 312.374 22.9426 312.101 23.4176 312.196C24.0826 312.326 24.3557 313.158 24.427 313.336C24.8545 314.606 23.9164 315.307 24.4389 316.352C24.5457 316.566 24.7476 316.851 24.8189 317.338C24.8545 317.54 24.9257 318.05 24.712 318.181C24.4626 318.335 23.9401 317.92 23.4532 317.516C22.8595 317.041 22.5626 316.791 22.4201 316.388C22.2064 315.841 22.527 315.675 22.4914 314.808Z" fill="url(#paint33_linear)"/>
<path opacity="0.3" d="M53.9718 253.697C60.0043 250.99 66.6543 257.331 68.6493 255.193C70.9294 252.771 61.7618 245.206 62.6524 234.815C63.175 228.759 67.1531 221.42 73.1381 219.235C79.3725 216.954 84.265 221.574 89.3119 218.035C92.0194 216.147 91.01 214.544 94.1094 211.444C99.4057 206.148 105.082 208.107 108.193 204.557C109.309 203.286 110.164 201.208 109.844 197.645C110.723 199.616 111.328 202.003 111.043 204.604C110.081 213.582 99.2869 219.033 94.2876 221.562C86.6519 225.422 84.0988 224.08 81.6169 227.488C78.7906 231.383 80.7619 234.981 81.415 248.531C82.175 264.397 79.8356 266.843 78.5531 267.734C76.38 269.254 74.5037 268.256 69.2194 267.829C54.0193 266.618 48.1887 273.208 41.2061 269.254C39.983 268.565 39.0211 267.71 38.2136 266.736C42.0968 266.701 44.543 265.596 46.1462 264.183C49.8987 260.917 49.388 255.763 53.9718 253.697Z" fill="url(#paint34_linear)"/>
<path d="M189.289 72.8825L194.146 76.3145C194.146 76.3145 194.264 65.6504 206.151 62.3371C218.038 59.0358 226.173 54.6181 224.071 45.3909L211.637 40.8188C211.637 40.8188 209.607 52.9793 201.259 55.1169C187.187 58.727 189.289 72.8825 189.289 72.8825Z" fill="url(#paint35_linear)"/>
<path d="M206.994 81.0769C206.709 75.6974 207.196 68.964 211.447 66.0307C215.615 63.1569 220.235 66.1139 226.968 64.6413C231.374 63.6794 237.204 60.7105 243.082 51.6733C246.455 58.478 249.827 65.2826 253.2 72.0872C242.786 79.7588 236.064 80.1388 231.718 78.7375C226.529 77.0749 223.94 72.6335 219.689 73.3579C215.746 74.0348 213.217 78.69 211.661 82.6682C210.117 82.1338 208.562 81.5994 206.994 81.0769Z" fill="url(#paint36_linear)"/>
<path d="M234.212 51.7916C232.87 48.8109 231.659 44.9039 233.416 42.315C235.138 39.7737 238.392 40.4269 241.871 38.1111C244.151 36.603 246.787 33.646 248.117 27.2451C251.514 30.3446 254.922 33.4441 258.318 36.5436C254.126 43.1701 250.421 44.8564 247.654 45.0226C244.353 45.2245 241.919 43.2888 239.686 44.6308C237.608 45.8777 237.204 49.0603 237.204 51.6491C236.195 51.7085 235.209 51.7441 234.212 51.7916Z" fill="url(#paint37_linear)"/>
<path d="M254.103 62.4677C251.609 59.0832 255.682 50.996 260.611 46.044C269.695 36.9117 278.922 41.1275 287.211 33.2422C289.491 31.069 291.973 27.7202 293.552 22.3406C294.395 19.4786 298.088 18.6948 300.036 20.9512C304.168 25.7251 308.301 30.499 312.421 35.2729C310.189 49.0009 305.451 53.7511 301.473 55.5324C292.887 59.3682 284.432 50.8535 272.308 54.3805C265.717 56.2925 261.228 60.8408 258.509 64.2728C256.917 64.1778 255.077 63.7977 254.103 62.4677Z" fill="url(#paint38_linear)"/>
<path d="M230.162 29.2283C232.787 27.3877 237.026 26.9839 238.237 28.8127C239.342 30.4871 237.667 33.5985 235.874 35.2492C233.155 37.7668 228.369 38.5862 227.004 36.7811C225.721 35.0948 227.443 31.1284 230.162 29.2283Z" fill="url(#paint39_linear)"/>
<path d="M285.785 65.1754C288.683 66.553 291.117 70.0325 290.12 71.9919C289.205 73.7732 285.678 73.8564 283.351 73.1082C279.824 71.98 276.748 68.2274 277.639 66.1373C278.482 64.2016 282.781 63.7504 285.785 65.1754Z" fill="url(#paint40_linear)"/>
<path d="M192.922 41.1273C195.547 39.2866 199.786 38.8828 200.997 40.7116C202.102 42.3861 200.427 45.4974 198.634 47.1481C195.915 49.6657 191.129 50.4851 189.763 48.68C188.481 46.9937 190.203 43.0273 192.922 41.1273Z" fill="url(#paint41_linear)"/>
<defs>
<linearGradient id="paint0_linear" x1="287.835" y1="197.812" x2="154.508" y2="270.277" gradientUnits="userSpaceOnUse">
<stop offset="0.00359712" stop-color="#E38DDD"/>
<stop offset="1" stop-color="#9571F6"/>
</linearGradient>
<linearGradient id="paint1_linear" x1="84.9217" y1="214.621" x2="209.985" y2="282.595" gradientUnits="userSpaceOnUse">
<stop offset="0.00359712" stop-color="#E38DDD"/>
<stop offset="1" stop-color="#9571F6"/>
</linearGradient>
<linearGradient id="paint2_linear" x1="89.8277" y1="148.176" x2="225.389" y2="321.046" gradientUnits="userSpaceOnUse">
<stop stop-color="#FF9085"/>
<stop offset="1" stop-color="#FB6FBB"/>
</linearGradient>
<linearGradient id="paint3_linear" x1="262.448" y1="151.104" x2="181.559" y2="278.818" gradientUnits="userSpaceOnUse">
<stop stop-color="#AA80F9"/>
<stop offset="0.9964" stop-color="#6165D7"/>
</linearGradient>
<linearGradient id="paint4_linear" x1="264.42" y1="171.343" x2="266.269" y2="182.122" gradientUnits="userSpaceOnUse">
<stop stop-color="#FFC444"/>
<stop offset="0.9964" stop-color="#F36F56"/>
</linearGradient>
<linearGradient id="paint5_linear" x1="292.619" y1="165.245" x2="297.242" y2="173.434" gradientUnits="userSpaceOnUse">
<stop stop-color="#FFC444"/>
<stop offset="0.9964" stop-color="#F36F56"/>
</linearGradient>
<linearGradient id="paint6_linear" x1="298.771" y1="180.674" x2="308.165" y2="266.057" gradientUnits="userSpaceOnUse">
<stop stop-color="#FF9085"/>
<stop offset="1" stop-color="#FB6FBB"/>
</linearGradient>
<linearGradient id="paint7_linear" x1="291.112" y1="345.368" x2="289.711" y2="305.585" gradientUnits="userSpaceOnUse">
<stop stop-color="#FFC444"/>
<stop offset="0.9964" stop-color="#F36F56"/>
</linearGradient>
<linearGradient id="paint8_linear" x1="292.134" y1="268.802" x2="297.938" y2="341.541" gradientUnits="userSpaceOnUse">
<stop stop-color="#311944"/>
<stop offset="1" stop-color="#893976"/>
</linearGradient>
<linearGradient id="paint9_linear" x1="292.134" y1="268.802" x2="297.938" y2="341.541" gradientUnits="userSpaceOnUse">
<stop stop-color="#311944"/>
<stop offset="1" stop-color="#893976"/>
</linearGradient>
<linearGradient id="paint10_linear" x1="287.831" y1="345.689" x2="293.714" y2="323.509" gradientUnits="userSpaceOnUse">
<stop stop-color="#FF9085"/>
<stop offset="1" stop-color="#FB6FBB"/>
</linearGradient>
<linearGradient id="paint11_linear" x1="295.651" y1="310.964" x2="268.905" y2="287.958" gradientUnits="userSpaceOnUse">
<stop stop-color="#FFC444"/>
<stop offset="0.9964" stop-color="#F36F56"/>
</linearGradient>
<linearGradient id="paint12_linear" x1="295.063" y1="313.693" x2="282.757" y2="294.323" gradientUnits="userSpaceOnUse">
<stop stop-color="#FF9085"/>
<stop offset="1" stop-color="#FB6FBB"/>
</linearGradient>
<linearGradient id="paint13_linear" x1="319.241" y1="283.255" x2="251.298" y2="280.167" gradientUnits="userSpaceOnUse">
<stop stop-color="#311944"/>
<stop offset="1" stop-color="#893976"/>
</linearGradient>
<linearGradient id="paint14_linear" x1="292.245" y1="176.466" x2="309.142" y2="274.985" gradientUnits="userSpaceOnUse">
<stop stop-color="#FF9085"/>
<stop offset="1" stop-color="#FB6FBB"/>
</linearGradient>
<linearGradient id="paint15_linear" x1="265.604" y1="215.374" x2="311.887" y2="274.681" gradientUnits="userSpaceOnUse">
<stop stop-color="#FF9085"/>
<stop offset="1" stop-color="#FB6FBB"/>
</linearGradient>
<linearGradient id="paint16_linear" x1="282.396" y1="199.473" x2="290.336" y2="211.359" gradientUnits="userSpaceOnUse">
<stop stop-color="#FFC444"/>
<stop offset="0.9964" stop-color="#F36F56"/>
</linearGradient>
<linearGradient id="paint17_linear" x1="263.824" y1="187.992" x2="278.345" y2="272.655" gradientUnits="userSpaceOnUse">
<stop stop-color="#FF9085"/>
<stop offset="1" stop-color="#FB6FBB"/>
</linearGradient>
<linearGradient id="paint18_linear" x1="325.907" y1="248.897" x2="293.253" y2="185.08" gradientUnits="userSpaceOnUse">
<stop stop-color="#444B8C"/>
<stop offset="0.9964" stop-color="#26264F"/>
</linearGradient>
<linearGradient id="paint19_linear" x1="292.085" y1="165.288" x2="293.97" y2="174.502" gradientUnits="userSpaceOnUse">
<stop stop-color="#FFC444"/>
<stop offset="0.9964" stop-color="#F36F56"/>
</linearGradient>
<linearGradient id="paint20_linear" x1="158.057" y1="306.871" x2="196.204" y2="252.107" gradientUnits="userSpaceOnUse">
<stop stop-color="#FFDB44"/>
<stop offset="1" stop-color="#FEEF06"/>
</linearGradient>
<linearGradient id="paint21_linear" x1="176.969" y1="66.2676" x2="176.969" y2="225.778" gradientUnits="userSpaceOnUse">
<stop stop-color="#FFD873"/>
<stop offset="1" stop-color="#F6C33E"/>
</linearGradient>
<linearGradient id="paint22_linear" x1="-12.089" y1="182.918" x2="147.51" y2="188.701" gradientUnits="userSpaceOnUse">
<stop stop-color="#311944"/>
<stop offset="1" stop-color="#893976"/>
</linearGradient>
<linearGradient id="paint23_linear" x1="49.8658" y1="180.403" x2="58.6345" y2="161.242" gradientUnits="userSpaceOnUse">
<stop stop-color="#311944"/>
<stop offset="1" stop-color="#893976"/>
</linearGradient>
<linearGradient id="paint24_linear" x1="71.3309" y1="337.281" x2="66.7638" y2="341.343" gradientUnits="userSpaceOnUse">
<stop stop-color="#AA80F9"/>
<stop offset="0.9964" stop-color="#6165D7"/>
</linearGradient>
<linearGradient id="paint25_linear" x1="66.9317" y1="341.351" x2="66.9317" y2="333.395" gradientUnits="userSpaceOnUse">
<stop stop-color="#311944"/>
<stop offset="1" stop-color="#893976"/>
</linearGradient>
<linearGradient id="paint26_linear" x1="65.0909" y1="345.549" x2="35.3105" y2="225.315" gradientUnits="userSpaceOnUse">
<stop stop-color="#444B8C"/>
<stop offset="0.9964" stop-color="#26264F"/>
</linearGradient>
<linearGradient id="paint27_linear" x1="70.8717" y1="336.765" x2="66.3049" y2="340.827" gradientUnits="userSpaceOnUse">
<stop stop-color="#AA80F9"/>
<stop offset="0.9964" stop-color="#6165D7"/>
</linearGradient>
<linearGradient id="paint28_linear" x1="260.279" y1="224.998" x2="-555.991" y2="170.493" gradientUnits="userSpaceOnUse">
<stop stop-color="#AA80F9"/>
<stop offset="0.9964" stop-color="#6165D7"/>
</linearGradient>
<linearGradient id="paint29_linear" x1="52.8294" y1="239.187" x2="70.2867" y2="187.682" gradientUnits="userSpaceOnUse">
<stop stop-color="#311944"/>
<stop offset="1" stop-color="#893976"/>
</linearGradient>
<linearGradient id="paint30_linear" x1="62.492" y1="193.435" x2="52.5482" y2="193.435" gradientUnits="userSpaceOnUse">
<stop stop-color="#444B8C"/>
<stop offset="0.9964" stop-color="#26264F"/>
</linearGradient>
<linearGradient id="paint31_linear" x1="49.732" y1="231.67" x2="64.1665" y2="189.529" gradientUnits="userSpaceOnUse">
<stop stop-color="#311944"/>
<stop offset="1" stop-color="#893976"/>
</linearGradient>
<linearGradient id="paint32_linear" x1="21.1783" y1="316.292" x2="38.6454" y2="294.755" gradientUnits="userSpaceOnUse">
<stop stop-color="#311944"/>
<stop offset="1" stop-color="#893976"/>
</linearGradient>
<linearGradient id="paint33_linear" x1="22.2314" y1="318.496" x2="29.0383" y2="301.793" gradientUnits="userSpaceOnUse">
<stop stop-color="#AA80F9"/>
<stop offset="0.9964" stop-color="#6165D7"/>
</linearGradient>
<linearGradient id="paint34_linear" x1="111.134" y1="234.097" x2="38.2508" y2="234.097" gradientUnits="userSpaceOnUse">
<stop stop-color="#AA80F9"/>
<stop offset="0.9964" stop-color="#6165D7"/>
</linearGradient>
<linearGradient id="paint35_linear" x1="186.438" y1="63.6701" x2="225.945" y2="51.4363" gradientUnits="userSpaceOnUse">
<stop stop-color="#FF9085"/>
<stop offset="1" stop-color="#FB6FBB"/>
</linearGradient>
<linearGradient id="paint36_linear" x1="206.933" y1="67.1659" x2="253.207" y2="67.1659" gradientUnits="userSpaceOnUse">
<stop stop-color="#AA80F9"/>
<stop offset="0.9964" stop-color="#6165D7"/>
</linearGradient>
<linearGradient id="paint37_linear" x1="242.545" y1="32.1046" x2="259.183" y2="87.9608" gradientUnits="userSpaceOnUse">
<stop offset="0.00359712" stop-color="#E38DDD"/>
<stop offset="1" stop-color="#9571F6"/>
</linearGradient>
<linearGradient id="paint38_linear" x1="284.665" y1="25.8162" x2="273.403" y2="162.348" gradientUnits="userSpaceOnUse">
<stop stop-color="#FF9085"/>
<stop offset="1" stop-color="#FB6FBB"/>
</linearGradient>
<linearGradient id="paint39_linear" x1="232.488" y1="29.2037" x2="233.265" y2="57.8922" gradientUnits="userSpaceOnUse">
<stop stop-color="#AA80F9"/>
<stop offset="0.9964" stop-color="#6165D7"/>
</linearGradient>
<linearGradient id="paint40_linear" x1="286.943" y1="67.1812" x2="262.365" y2="81.9964" gradientUnits="userSpaceOnUse">
<stop stop-color="#AA80F9"/>
<stop offset="0.9964" stop-color="#6165D7"/>
</linearGradient>
<linearGradient id="paint41_linear" x1="195.246" y1="41.1018" x2="196.023" y2="69.7904" gradientUnits="userSpaceOnUse">
<stop offset="0.00359712" stop-color="#E38DDD"/>
<stop offset="1" stop-color="#9571F6"/>
</linearGradient>
</defs>
</svg>
